%TF.GenerationSoftware,KiCad,Pcbnew,8.0.9-8.0.9-0~ubuntu24.04.1*%
%TF.CreationDate,2026-08-08T03:17:24+02:00*%
%TF.ProjectId,breakout_board_imu,62726561-6b6f-4757-945f-626f6172645f,rev?*%
%TF.SameCoordinates,Original*%
%TF.FileFunction,Soldermask,Top*%
%TF.FilePolarity,Negative*%
%FSLAX46Y46*%
G04 Gerber Fmt 4.6, Leading zero omitted, Abs format (unit mm)*
G04 Created by KiCad (PCBNEW 8.0.9-8.0.9-0~ubuntu24.04.1) date 2026-08-08 03:17:24*
%MOMM*%
%LPD*%
G01*
G04 APERTURE LIST*
G04 Aperture macros list*
%AMRoundRect*
0 Rectangle with rounded corners*
0 $1 Rounding radius*
0 $2 $3 $4 $5 $6 $7 $8 $9 X,Y pos of 4 corners*
0 Add a 4 corners polygon primitive as box body*
4,1,4,$2,$3,$4,$5,$6,$7,$8,$9,$2,$3,0*
0 Add four circle primitives for the rounded corners*
1,1,$1+$1,$2,$3*
1,1,$1+$1,$4,$5*
1,1,$1+$1,$6,$7*
1,1,$1+$1,$8,$9*
0 Add four rect primitives between the rounded corners*
20,1,$1+$1,$2,$3,$4,$5,0*
20,1,$1+$1,$4,$5,$6,$7,0*
20,1,$1+$1,$6,$7,$8,$9,0*
20,1,$1+$1,$8,$9,$2,$3,0*%
G04 Aperture macros list end*
%ADD10C,0.010000*%
%ADD11RoundRect,0.183500X-0.573500X-0.183500X0.573500X-0.183500X0.573500X0.183500X-0.573500X0.183500X0*%
%ADD12RoundRect,0.135000X-0.135000X-0.185000X0.135000X-0.185000X0.135000X0.185000X-0.135000X0.185000X0*%
%ADD13RoundRect,0.135000X-0.185000X0.135000X-0.185000X-0.135000X0.185000X-0.135000X0.185000X0.135000X0*%
%ADD14RoundRect,0.135000X0.135000X0.185000X-0.135000X0.185000X-0.135000X-0.185000X0.135000X-0.185000X0*%
%ADD15R,1.700000X1.700000*%
%ADD16O,1.700000X1.700000*%
%ADD17C,0.700000*%
%ADD18C,4.400000*%
%ADD19RoundRect,0.218750X-0.256250X0.218750X-0.256250X-0.218750X0.256250X-0.218750X0.256250X0.218750X0*%
%ADD20RoundRect,0.218750X0.256250X-0.218750X0.256250X0.218750X-0.256250X0.218750X-0.256250X-0.218750X0*%
%ADD21RoundRect,0.218750X-0.218750X-0.256250X0.218750X-0.256250X0.218750X0.256250X-0.218750X0.256250X0*%
%ADD22RoundRect,0.150000X-0.150000X-0.200000X0.150000X-0.200000X0.150000X0.200000X-0.150000X0.200000X0*%
%ADD23RoundRect,0.150000X0.150000X0.200000X-0.150000X0.200000X-0.150000X-0.200000X0.150000X-0.200000X0*%
%ADD24RoundRect,0.218750X0.218750X0.256250X-0.218750X0.256250X-0.218750X-0.256250X0.218750X-0.256250X0*%
%ADD25RoundRect,0.250000X0.250000X0.475000X-0.250000X0.475000X-0.250000X-0.475000X0.250000X-0.475000X0*%
%ADD26RoundRect,0.140000X-0.170000X0.140000X-0.170000X-0.140000X0.170000X-0.140000X0.170000X0.140000X0*%
%ADD27RoundRect,0.140000X0.170000X-0.140000X0.170000X0.140000X-0.170000X0.140000X-0.170000X-0.140000X0*%
%ADD28RoundRect,0.250000X-0.475000X0.250000X-0.475000X-0.250000X0.475000X-0.250000X0.475000X0.250000X0*%
%ADD29RoundRect,0.140000X-0.140000X-0.170000X0.140000X-0.170000X0.140000X0.170000X-0.140000X0.170000X0*%
G04 APERTURE END LIST*
D10*
%TO.C,U1*%
X136568000Y-112621000D02*
X136575000Y-112622000D01*
X136581000Y-112623000D01*
X136587000Y-112624000D01*
X136594000Y-112626000D01*
X136600000Y-112628000D01*
X136606000Y-112631000D01*
X136612000Y-112634000D01*
X136618000Y-112637000D01*
X136623000Y-112640000D01*
X136628000Y-112644000D01*
X136634000Y-112648000D01*
X136639000Y-112652000D01*
X136643000Y-112657000D01*
X136648000Y-112661000D01*
X136652000Y-112666000D01*
X136656000Y-112672000D01*
X136660000Y-112677000D01*
X136663000Y-112683000D01*
X136666000Y-112688000D01*
X136669000Y-112694000D01*
X136672000Y-112700000D01*
X136674000Y-112706000D01*
X136676000Y-112713000D01*
X136677000Y-112719000D01*
X136678000Y-112725000D01*
X136679000Y-112732000D01*
X136680000Y-112738000D01*
X136680000Y-112745000D01*
X136680000Y-112945000D01*
X136680000Y-112952000D01*
X136679000Y-112958000D01*
X136678000Y-112965000D01*
X136677000Y-112971000D01*
X136676000Y-112977000D01*
X136674000Y-112984000D01*
X136672000Y-112990000D01*
X136669000Y-112996000D01*
X136666000Y-113002000D01*
X136663000Y-113007000D01*
X136660000Y-113013000D01*
X136656000Y-113018000D01*
X136652000Y-113024000D01*
X136648000Y-113029000D01*
X136643000Y-113033000D01*
X136639000Y-113038000D01*
X136634000Y-113042000D01*
X136628000Y-113046000D01*
X136623000Y-113050000D01*
X136618000Y-113053000D01*
X136612000Y-113056000D01*
X136606000Y-113059000D01*
X136600000Y-113062000D01*
X136594000Y-113064000D01*
X136587000Y-113066000D01*
X136581000Y-113067000D01*
X136575000Y-113068000D01*
X136568000Y-113069000D01*
X136562000Y-113070000D01*
X136555000Y-113070000D01*
X136115000Y-113070000D01*
X136108000Y-113070000D01*
X136102000Y-113069000D01*
X136095000Y-113068000D01*
X136089000Y-113067000D01*
X136083000Y-113066000D01*
X136076000Y-113064000D01*
X136070000Y-113062000D01*
X136064000Y-113059000D01*
X136058000Y-113056000D01*
X136052000Y-113053000D01*
X136047000Y-113050000D01*
X136042000Y-113046000D01*
X136036000Y-113042000D01*
X136031000Y-113038000D01*
X136027000Y-113033000D01*
X136022000Y-113029000D01*
X136018000Y-113024000D01*
X136014000Y-113018000D01*
X136010000Y-113013000D01*
X136007000Y-113007000D01*
X136004000Y-113002000D01*
X136001000Y-112996000D01*
X135998000Y-112990000D01*
X135996000Y-112984000D01*
X135994000Y-112977000D01*
X135993000Y-112971000D01*
X135992000Y-112965000D01*
X135991000Y-112958000D01*
X135990000Y-112952000D01*
X135990000Y-112945000D01*
X135990000Y-112745000D01*
X135990000Y-112738000D01*
X135991000Y-112732000D01*
X135992000Y-112725000D01*
X135993000Y-112719000D01*
X135994000Y-112713000D01*
X135996000Y-112706000D01*
X135998000Y-112700000D01*
X136001000Y-112694000D01*
X136004000Y-112688000D01*
X136007000Y-112683000D01*
X136010000Y-112677000D01*
X136014000Y-112672000D01*
X136018000Y-112666000D01*
X136022000Y-112661000D01*
X136027000Y-112657000D01*
X136031000Y-112652000D01*
X136036000Y-112648000D01*
X136042000Y-112644000D01*
X136047000Y-112640000D01*
X136052000Y-112637000D01*
X136058000Y-112634000D01*
X136064000Y-112631000D01*
X136070000Y-112628000D01*
X136076000Y-112626000D01*
X136083000Y-112624000D01*
X136089000Y-112623000D01*
X136095000Y-112622000D01*
X136102000Y-112621000D01*
X136108000Y-112620000D01*
X136115000Y-112620000D01*
X136555000Y-112620000D01*
X136562000Y-112620000D01*
X136568000Y-112621000D01*
G36*
X136568000Y-112621000D02*
G01*
X136575000Y-112622000D01*
X136581000Y-112623000D01*
X136587000Y-112624000D01*
X136594000Y-112626000D01*
X136600000Y-112628000D01*
X136606000Y-112631000D01*
X136612000Y-112634000D01*
X136618000Y-112637000D01*
X136623000Y-112640000D01*
X136628000Y-112644000D01*
X136634000Y-112648000D01*
X136639000Y-112652000D01*
X136643000Y-112657000D01*
X136648000Y-112661000D01*
X136652000Y-112666000D01*
X136656000Y-112672000D01*
X136660000Y-112677000D01*
X136663000Y-112683000D01*
X136666000Y-112688000D01*
X136669000Y-112694000D01*
X136672000Y-112700000D01*
X136674000Y-112706000D01*
X136676000Y-112713000D01*
X136677000Y-112719000D01*
X136678000Y-112725000D01*
X136679000Y-112732000D01*
X136680000Y-112738000D01*
X136680000Y-112745000D01*
X136680000Y-112945000D01*
X136680000Y-112952000D01*
X136679000Y-112958000D01*
X136678000Y-112965000D01*
X136677000Y-112971000D01*
X136676000Y-112977000D01*
X136674000Y-112984000D01*
X136672000Y-112990000D01*
X136669000Y-112996000D01*
X136666000Y-113002000D01*
X136663000Y-113007000D01*
X136660000Y-113013000D01*
X136656000Y-113018000D01*
X136652000Y-113024000D01*
X136648000Y-113029000D01*
X136643000Y-113033000D01*
X136639000Y-113038000D01*
X136634000Y-113042000D01*
X136628000Y-113046000D01*
X136623000Y-113050000D01*
X136618000Y-113053000D01*
X136612000Y-113056000D01*
X136606000Y-113059000D01*
X136600000Y-113062000D01*
X136594000Y-113064000D01*
X136587000Y-113066000D01*
X136581000Y-113067000D01*
X136575000Y-113068000D01*
X136568000Y-113069000D01*
X136562000Y-113070000D01*
X136555000Y-113070000D01*
X136115000Y-113070000D01*
X136108000Y-113070000D01*
X136102000Y-113069000D01*
X136095000Y-113068000D01*
X136089000Y-113067000D01*
X136083000Y-113066000D01*
X136076000Y-113064000D01*
X136070000Y-113062000D01*
X136064000Y-113059000D01*
X136058000Y-113056000D01*
X136052000Y-113053000D01*
X136047000Y-113050000D01*
X136042000Y-113046000D01*
X136036000Y-113042000D01*
X136031000Y-113038000D01*
X136027000Y-113033000D01*
X136022000Y-113029000D01*
X136018000Y-113024000D01*
X136014000Y-113018000D01*
X136010000Y-113013000D01*
X136007000Y-113007000D01*
X136004000Y-113002000D01*
X136001000Y-112996000D01*
X135998000Y-112990000D01*
X135996000Y-112984000D01*
X135994000Y-112977000D01*
X135993000Y-112971000D01*
X135992000Y-112965000D01*
X135991000Y-112958000D01*
X135990000Y-112952000D01*
X135990000Y-112945000D01*
X135990000Y-112745000D01*
X135990000Y-112738000D01*
X135991000Y-112732000D01*
X135992000Y-112725000D01*
X135993000Y-112719000D01*
X135994000Y-112713000D01*
X135996000Y-112706000D01*
X135998000Y-112700000D01*
X136001000Y-112694000D01*
X136004000Y-112688000D01*
X136007000Y-112683000D01*
X136010000Y-112677000D01*
X136014000Y-112672000D01*
X136018000Y-112666000D01*
X136022000Y-112661000D01*
X136027000Y-112657000D01*
X136031000Y-112652000D01*
X136036000Y-112648000D01*
X136042000Y-112644000D01*
X136047000Y-112640000D01*
X136052000Y-112637000D01*
X136058000Y-112634000D01*
X136064000Y-112631000D01*
X136070000Y-112628000D01*
X136076000Y-112626000D01*
X136083000Y-112624000D01*
X136089000Y-112623000D01*
X136095000Y-112622000D01*
X136102000Y-112621000D01*
X136108000Y-112620000D01*
X136115000Y-112620000D01*
X136555000Y-112620000D01*
X136562000Y-112620000D01*
X136568000Y-112621000D01*
G37*
X136568000Y-113121000D02*
X136575000Y-113122000D01*
X136581000Y-113123000D01*
X136587000Y-113124000D01*
X136594000Y-113126000D01*
X136600000Y-113128000D01*
X136606000Y-113131000D01*
X136612000Y-113134000D01*
X136618000Y-113137000D01*
X136623000Y-113140000D01*
X136628000Y-113144000D01*
X136634000Y-113148000D01*
X136639000Y-113152000D01*
X136643000Y-113157000D01*
X136648000Y-113161000D01*
X136652000Y-113166000D01*
X136656000Y-113172000D01*
X136660000Y-113177000D01*
X136663000Y-113183000D01*
X136666000Y-113188000D01*
X136669000Y-113194000D01*
X136672000Y-113200000D01*
X136674000Y-113206000D01*
X136676000Y-113213000D01*
X136677000Y-113219000D01*
X136678000Y-113225000D01*
X136679000Y-113232000D01*
X136680000Y-113238000D01*
X136680000Y-113245000D01*
X136680000Y-113445000D01*
X136680000Y-113452000D01*
X136679000Y-113458000D01*
X136678000Y-113465000D01*
X136677000Y-113471000D01*
X136676000Y-113477000D01*
X136674000Y-113484000D01*
X136672000Y-113490000D01*
X136669000Y-113496000D01*
X136666000Y-113502000D01*
X136663000Y-113507000D01*
X136660000Y-113513000D01*
X136656000Y-113518000D01*
X136652000Y-113524000D01*
X136648000Y-113529000D01*
X136643000Y-113533000D01*
X136639000Y-113538000D01*
X136634000Y-113542000D01*
X136628000Y-113546000D01*
X136623000Y-113550000D01*
X136618000Y-113553000D01*
X136612000Y-113556000D01*
X136606000Y-113559000D01*
X136600000Y-113562000D01*
X136594000Y-113564000D01*
X136587000Y-113566000D01*
X136581000Y-113567000D01*
X136575000Y-113568000D01*
X136568000Y-113569000D01*
X136562000Y-113570000D01*
X136555000Y-113570000D01*
X136115000Y-113570000D01*
X136108000Y-113570000D01*
X136102000Y-113569000D01*
X136095000Y-113568000D01*
X136089000Y-113567000D01*
X136083000Y-113566000D01*
X136076000Y-113564000D01*
X136070000Y-113562000D01*
X136064000Y-113559000D01*
X136058000Y-113556000D01*
X136052000Y-113553000D01*
X136047000Y-113550000D01*
X136042000Y-113546000D01*
X136036000Y-113542000D01*
X136031000Y-113538000D01*
X136027000Y-113533000D01*
X136022000Y-113529000D01*
X136018000Y-113524000D01*
X136014000Y-113518000D01*
X136010000Y-113513000D01*
X136007000Y-113507000D01*
X136004000Y-113502000D01*
X136001000Y-113496000D01*
X135998000Y-113490000D01*
X135996000Y-113484000D01*
X135994000Y-113477000D01*
X135993000Y-113471000D01*
X135992000Y-113465000D01*
X135991000Y-113458000D01*
X135990000Y-113452000D01*
X135990000Y-113445000D01*
X135990000Y-113245000D01*
X135990000Y-113238000D01*
X135991000Y-113232000D01*
X135992000Y-113225000D01*
X135993000Y-113219000D01*
X135994000Y-113213000D01*
X135996000Y-113206000D01*
X135998000Y-113200000D01*
X136001000Y-113194000D01*
X136004000Y-113188000D01*
X136007000Y-113183000D01*
X136010000Y-113177000D01*
X136014000Y-113172000D01*
X136018000Y-113166000D01*
X136022000Y-113161000D01*
X136027000Y-113157000D01*
X136031000Y-113152000D01*
X136036000Y-113148000D01*
X136042000Y-113144000D01*
X136047000Y-113140000D01*
X136052000Y-113137000D01*
X136058000Y-113134000D01*
X136064000Y-113131000D01*
X136070000Y-113128000D01*
X136076000Y-113126000D01*
X136083000Y-113124000D01*
X136089000Y-113123000D01*
X136095000Y-113122000D01*
X136102000Y-113121000D01*
X136108000Y-113120000D01*
X136115000Y-113120000D01*
X136555000Y-113120000D01*
X136562000Y-113120000D01*
X136568000Y-113121000D01*
G36*
X136568000Y-113121000D02*
G01*
X136575000Y-113122000D01*
X136581000Y-113123000D01*
X136587000Y-113124000D01*
X136594000Y-113126000D01*
X136600000Y-113128000D01*
X136606000Y-113131000D01*
X136612000Y-113134000D01*
X136618000Y-113137000D01*
X136623000Y-113140000D01*
X136628000Y-113144000D01*
X136634000Y-113148000D01*
X136639000Y-113152000D01*
X136643000Y-113157000D01*
X136648000Y-113161000D01*
X136652000Y-113166000D01*
X136656000Y-113172000D01*
X136660000Y-113177000D01*
X136663000Y-113183000D01*
X136666000Y-113188000D01*
X136669000Y-113194000D01*
X136672000Y-113200000D01*
X136674000Y-113206000D01*
X136676000Y-113213000D01*
X136677000Y-113219000D01*
X136678000Y-113225000D01*
X136679000Y-113232000D01*
X136680000Y-113238000D01*
X136680000Y-113245000D01*
X136680000Y-113445000D01*
X136680000Y-113452000D01*
X136679000Y-113458000D01*
X136678000Y-113465000D01*
X136677000Y-113471000D01*
X136676000Y-113477000D01*
X136674000Y-113484000D01*
X136672000Y-113490000D01*
X136669000Y-113496000D01*
X136666000Y-113502000D01*
X136663000Y-113507000D01*
X136660000Y-113513000D01*
X136656000Y-113518000D01*
X136652000Y-113524000D01*
X136648000Y-113529000D01*
X136643000Y-113533000D01*
X136639000Y-113538000D01*
X136634000Y-113542000D01*
X136628000Y-113546000D01*
X136623000Y-113550000D01*
X136618000Y-113553000D01*
X136612000Y-113556000D01*
X136606000Y-113559000D01*
X136600000Y-113562000D01*
X136594000Y-113564000D01*
X136587000Y-113566000D01*
X136581000Y-113567000D01*
X136575000Y-113568000D01*
X136568000Y-113569000D01*
X136562000Y-113570000D01*
X136555000Y-113570000D01*
X136115000Y-113570000D01*
X136108000Y-113570000D01*
X136102000Y-113569000D01*
X136095000Y-113568000D01*
X136089000Y-113567000D01*
X136083000Y-113566000D01*
X136076000Y-113564000D01*
X136070000Y-113562000D01*
X136064000Y-113559000D01*
X136058000Y-113556000D01*
X136052000Y-113553000D01*
X136047000Y-113550000D01*
X136042000Y-113546000D01*
X136036000Y-113542000D01*
X136031000Y-113538000D01*
X136027000Y-113533000D01*
X136022000Y-113529000D01*
X136018000Y-113524000D01*
X136014000Y-113518000D01*
X136010000Y-113513000D01*
X136007000Y-113507000D01*
X136004000Y-113502000D01*
X136001000Y-113496000D01*
X135998000Y-113490000D01*
X135996000Y-113484000D01*
X135994000Y-113477000D01*
X135993000Y-113471000D01*
X135992000Y-113465000D01*
X135991000Y-113458000D01*
X135990000Y-113452000D01*
X135990000Y-113445000D01*
X135990000Y-113245000D01*
X135990000Y-113238000D01*
X135991000Y-113232000D01*
X135992000Y-113225000D01*
X135993000Y-113219000D01*
X135994000Y-113213000D01*
X135996000Y-113206000D01*
X135998000Y-113200000D01*
X136001000Y-113194000D01*
X136004000Y-113188000D01*
X136007000Y-113183000D01*
X136010000Y-113177000D01*
X136014000Y-113172000D01*
X136018000Y-113166000D01*
X136022000Y-113161000D01*
X136027000Y-113157000D01*
X136031000Y-113152000D01*
X136036000Y-113148000D01*
X136042000Y-113144000D01*
X136047000Y-113140000D01*
X136052000Y-113137000D01*
X136058000Y-113134000D01*
X136064000Y-113131000D01*
X136070000Y-113128000D01*
X136076000Y-113126000D01*
X136083000Y-113124000D01*
X136089000Y-113123000D01*
X136095000Y-113122000D01*
X136102000Y-113121000D01*
X136108000Y-113120000D01*
X136115000Y-113120000D01*
X136555000Y-113120000D01*
X136562000Y-113120000D01*
X136568000Y-113121000D01*
G37*
X136568000Y-113621000D02*
X136575000Y-113622000D01*
X136581000Y-113623000D01*
X136587000Y-113624000D01*
X136594000Y-113626000D01*
X136600000Y-113628000D01*
X136606000Y-113631000D01*
X136612000Y-113634000D01*
X136618000Y-113637000D01*
X136623000Y-113640000D01*
X136628000Y-113644000D01*
X136634000Y-113648000D01*
X136639000Y-113652000D01*
X136643000Y-113657000D01*
X136648000Y-113661000D01*
X136652000Y-113666000D01*
X136656000Y-113672000D01*
X136660000Y-113677000D01*
X136663000Y-113683000D01*
X136666000Y-113688000D01*
X136669000Y-113694000D01*
X136672000Y-113700000D01*
X136674000Y-113706000D01*
X136676000Y-113713000D01*
X136677000Y-113719000D01*
X136678000Y-113725000D01*
X136679000Y-113732000D01*
X136680000Y-113738000D01*
X136680000Y-113745000D01*
X136680000Y-113945000D01*
X136680000Y-113952000D01*
X136679000Y-113958000D01*
X136678000Y-113965000D01*
X136677000Y-113971000D01*
X136676000Y-113977000D01*
X136674000Y-113984000D01*
X136672000Y-113990000D01*
X136669000Y-113996000D01*
X136666000Y-114002000D01*
X136663000Y-114007000D01*
X136660000Y-114013000D01*
X136656000Y-114018000D01*
X136652000Y-114024000D01*
X136648000Y-114029000D01*
X136643000Y-114033000D01*
X136639000Y-114038000D01*
X136634000Y-114042000D01*
X136628000Y-114046000D01*
X136623000Y-114050000D01*
X136618000Y-114053000D01*
X136612000Y-114056000D01*
X136606000Y-114059000D01*
X136600000Y-114062000D01*
X136594000Y-114064000D01*
X136587000Y-114066000D01*
X136581000Y-114067000D01*
X136575000Y-114068000D01*
X136568000Y-114069000D01*
X136562000Y-114070000D01*
X136555000Y-114070000D01*
X136115000Y-114070000D01*
X136108000Y-114070000D01*
X136102000Y-114069000D01*
X136095000Y-114068000D01*
X136089000Y-114067000D01*
X136083000Y-114066000D01*
X136076000Y-114064000D01*
X136070000Y-114062000D01*
X136064000Y-114059000D01*
X136058000Y-114056000D01*
X136052000Y-114053000D01*
X136047000Y-114050000D01*
X136042000Y-114046000D01*
X136036000Y-114042000D01*
X136031000Y-114038000D01*
X136027000Y-114033000D01*
X136022000Y-114029000D01*
X136018000Y-114024000D01*
X136014000Y-114018000D01*
X136010000Y-114013000D01*
X136007000Y-114007000D01*
X136004000Y-114002000D01*
X136001000Y-113996000D01*
X135998000Y-113990000D01*
X135996000Y-113984000D01*
X135994000Y-113977000D01*
X135993000Y-113971000D01*
X135992000Y-113965000D01*
X135991000Y-113958000D01*
X135990000Y-113952000D01*
X135990000Y-113945000D01*
X135990000Y-113745000D01*
X135990000Y-113738000D01*
X135991000Y-113732000D01*
X135992000Y-113725000D01*
X135993000Y-113719000D01*
X135994000Y-113713000D01*
X135996000Y-113706000D01*
X135998000Y-113700000D01*
X136001000Y-113694000D01*
X136004000Y-113688000D01*
X136007000Y-113683000D01*
X136010000Y-113677000D01*
X136014000Y-113672000D01*
X136018000Y-113666000D01*
X136022000Y-113661000D01*
X136027000Y-113657000D01*
X136031000Y-113652000D01*
X136036000Y-113648000D01*
X136042000Y-113644000D01*
X136047000Y-113640000D01*
X136052000Y-113637000D01*
X136058000Y-113634000D01*
X136064000Y-113631000D01*
X136070000Y-113628000D01*
X136076000Y-113626000D01*
X136083000Y-113624000D01*
X136089000Y-113623000D01*
X136095000Y-113622000D01*
X136102000Y-113621000D01*
X136108000Y-113620000D01*
X136115000Y-113620000D01*
X136555000Y-113620000D01*
X136562000Y-113620000D01*
X136568000Y-113621000D01*
G36*
X136568000Y-113621000D02*
G01*
X136575000Y-113622000D01*
X136581000Y-113623000D01*
X136587000Y-113624000D01*
X136594000Y-113626000D01*
X136600000Y-113628000D01*
X136606000Y-113631000D01*
X136612000Y-113634000D01*
X136618000Y-113637000D01*
X136623000Y-113640000D01*
X136628000Y-113644000D01*
X136634000Y-113648000D01*
X136639000Y-113652000D01*
X136643000Y-113657000D01*
X136648000Y-113661000D01*
X136652000Y-113666000D01*
X136656000Y-113672000D01*
X136660000Y-113677000D01*
X136663000Y-113683000D01*
X136666000Y-113688000D01*
X136669000Y-113694000D01*
X136672000Y-113700000D01*
X136674000Y-113706000D01*
X136676000Y-113713000D01*
X136677000Y-113719000D01*
X136678000Y-113725000D01*
X136679000Y-113732000D01*
X136680000Y-113738000D01*
X136680000Y-113745000D01*
X136680000Y-113945000D01*
X136680000Y-113952000D01*
X136679000Y-113958000D01*
X136678000Y-113965000D01*
X136677000Y-113971000D01*
X136676000Y-113977000D01*
X136674000Y-113984000D01*
X136672000Y-113990000D01*
X136669000Y-113996000D01*
X136666000Y-114002000D01*
X136663000Y-114007000D01*
X136660000Y-114013000D01*
X136656000Y-114018000D01*
X136652000Y-114024000D01*
X136648000Y-114029000D01*
X136643000Y-114033000D01*
X136639000Y-114038000D01*
X136634000Y-114042000D01*
X136628000Y-114046000D01*
X136623000Y-114050000D01*
X136618000Y-114053000D01*
X136612000Y-114056000D01*
X136606000Y-114059000D01*
X136600000Y-114062000D01*
X136594000Y-114064000D01*
X136587000Y-114066000D01*
X136581000Y-114067000D01*
X136575000Y-114068000D01*
X136568000Y-114069000D01*
X136562000Y-114070000D01*
X136555000Y-114070000D01*
X136115000Y-114070000D01*
X136108000Y-114070000D01*
X136102000Y-114069000D01*
X136095000Y-114068000D01*
X136089000Y-114067000D01*
X136083000Y-114066000D01*
X136076000Y-114064000D01*
X136070000Y-114062000D01*
X136064000Y-114059000D01*
X136058000Y-114056000D01*
X136052000Y-114053000D01*
X136047000Y-114050000D01*
X136042000Y-114046000D01*
X136036000Y-114042000D01*
X136031000Y-114038000D01*
X136027000Y-114033000D01*
X136022000Y-114029000D01*
X136018000Y-114024000D01*
X136014000Y-114018000D01*
X136010000Y-114013000D01*
X136007000Y-114007000D01*
X136004000Y-114002000D01*
X136001000Y-113996000D01*
X135998000Y-113990000D01*
X135996000Y-113984000D01*
X135994000Y-113977000D01*
X135993000Y-113971000D01*
X135992000Y-113965000D01*
X135991000Y-113958000D01*
X135990000Y-113952000D01*
X135990000Y-113945000D01*
X135990000Y-113745000D01*
X135990000Y-113738000D01*
X135991000Y-113732000D01*
X135992000Y-113725000D01*
X135993000Y-113719000D01*
X135994000Y-113713000D01*
X135996000Y-113706000D01*
X135998000Y-113700000D01*
X136001000Y-113694000D01*
X136004000Y-113688000D01*
X136007000Y-113683000D01*
X136010000Y-113677000D01*
X136014000Y-113672000D01*
X136018000Y-113666000D01*
X136022000Y-113661000D01*
X136027000Y-113657000D01*
X136031000Y-113652000D01*
X136036000Y-113648000D01*
X136042000Y-113644000D01*
X136047000Y-113640000D01*
X136052000Y-113637000D01*
X136058000Y-113634000D01*
X136064000Y-113631000D01*
X136070000Y-113628000D01*
X136076000Y-113626000D01*
X136083000Y-113624000D01*
X136089000Y-113623000D01*
X136095000Y-113622000D01*
X136102000Y-113621000D01*
X136108000Y-113620000D01*
X136115000Y-113620000D01*
X136555000Y-113620000D01*
X136562000Y-113620000D01*
X136568000Y-113621000D01*
G37*
X136568000Y-112121000D02*
X136575000Y-112122000D01*
X136581000Y-112123000D01*
X136587000Y-112124000D01*
X136594000Y-112126000D01*
X136600000Y-112128000D01*
X136606000Y-112131000D01*
X136612000Y-112134000D01*
X136618000Y-112137000D01*
X136623000Y-112140000D01*
X136628000Y-112144000D01*
X136634000Y-112148000D01*
X136639000Y-112152000D01*
X136643000Y-112157000D01*
X136648000Y-112161000D01*
X136652000Y-112166000D01*
X136656000Y-112172000D01*
X136660000Y-112177000D01*
X136663000Y-112183000D01*
X136666000Y-112188000D01*
X136669000Y-112194000D01*
X136672000Y-112200000D01*
X136674000Y-112206000D01*
X136676000Y-112213000D01*
X136677000Y-112219000D01*
X136678000Y-112225000D01*
X136679000Y-112232000D01*
X136680000Y-112238000D01*
X136680000Y-112245000D01*
X136680000Y-112445000D01*
X136680000Y-112452000D01*
X136679000Y-112458000D01*
X136678000Y-112465000D01*
X136677000Y-112471000D01*
X136676000Y-112477000D01*
X136674000Y-112484000D01*
X136672000Y-112490000D01*
X136669000Y-112496000D01*
X136666000Y-112502000D01*
X136663000Y-112507000D01*
X136660000Y-112513000D01*
X136656000Y-112518000D01*
X136652000Y-112524000D01*
X136648000Y-112529000D01*
X136643000Y-112533000D01*
X136639000Y-112538000D01*
X136634000Y-112542000D01*
X136628000Y-112546000D01*
X136623000Y-112550000D01*
X136618000Y-112553000D01*
X136612000Y-112556000D01*
X136606000Y-112559000D01*
X136600000Y-112562000D01*
X136594000Y-112564000D01*
X136587000Y-112566000D01*
X136581000Y-112567000D01*
X136575000Y-112568000D01*
X136568000Y-112569000D01*
X136562000Y-112570000D01*
X136555000Y-112570000D01*
X136115000Y-112570000D01*
X136108000Y-112570000D01*
X136102000Y-112569000D01*
X136095000Y-112568000D01*
X136089000Y-112567000D01*
X136083000Y-112566000D01*
X136076000Y-112564000D01*
X136070000Y-112562000D01*
X136064000Y-112559000D01*
X136058000Y-112556000D01*
X136052000Y-112553000D01*
X136047000Y-112550000D01*
X136042000Y-112546000D01*
X136036000Y-112542000D01*
X136031000Y-112538000D01*
X136027000Y-112533000D01*
X136022000Y-112529000D01*
X136018000Y-112524000D01*
X136014000Y-112518000D01*
X136010000Y-112513000D01*
X136007000Y-112507000D01*
X136004000Y-112502000D01*
X136001000Y-112496000D01*
X135998000Y-112490000D01*
X135996000Y-112484000D01*
X135994000Y-112477000D01*
X135993000Y-112471000D01*
X135992000Y-112465000D01*
X135991000Y-112458000D01*
X135990000Y-112452000D01*
X135990000Y-112445000D01*
X135990000Y-112245000D01*
X135990000Y-112238000D01*
X135991000Y-112232000D01*
X135992000Y-112225000D01*
X135993000Y-112219000D01*
X135994000Y-112213000D01*
X135996000Y-112206000D01*
X135998000Y-112200000D01*
X136001000Y-112194000D01*
X136004000Y-112188000D01*
X136007000Y-112183000D01*
X136010000Y-112177000D01*
X136014000Y-112172000D01*
X136018000Y-112166000D01*
X136022000Y-112161000D01*
X136027000Y-112157000D01*
X136031000Y-112152000D01*
X136036000Y-112148000D01*
X136042000Y-112144000D01*
X136047000Y-112140000D01*
X136052000Y-112137000D01*
X136058000Y-112134000D01*
X136064000Y-112131000D01*
X136070000Y-112128000D01*
X136076000Y-112126000D01*
X136083000Y-112124000D01*
X136089000Y-112123000D01*
X136095000Y-112122000D01*
X136102000Y-112121000D01*
X136108000Y-112120000D01*
X136115000Y-112120000D01*
X136555000Y-112120000D01*
X136562000Y-112120000D01*
X136568000Y-112121000D01*
G36*
X136568000Y-112121000D02*
G01*
X136575000Y-112122000D01*
X136581000Y-112123000D01*
X136587000Y-112124000D01*
X136594000Y-112126000D01*
X136600000Y-112128000D01*
X136606000Y-112131000D01*
X136612000Y-112134000D01*
X136618000Y-112137000D01*
X136623000Y-112140000D01*
X136628000Y-112144000D01*
X136634000Y-112148000D01*
X136639000Y-112152000D01*
X136643000Y-112157000D01*
X136648000Y-112161000D01*
X136652000Y-112166000D01*
X136656000Y-112172000D01*
X136660000Y-112177000D01*
X136663000Y-112183000D01*
X136666000Y-112188000D01*
X136669000Y-112194000D01*
X136672000Y-112200000D01*
X136674000Y-112206000D01*
X136676000Y-112213000D01*
X136677000Y-112219000D01*
X136678000Y-112225000D01*
X136679000Y-112232000D01*
X136680000Y-112238000D01*
X136680000Y-112245000D01*
X136680000Y-112445000D01*
X136680000Y-112452000D01*
X136679000Y-112458000D01*
X136678000Y-112465000D01*
X136677000Y-112471000D01*
X136676000Y-112477000D01*
X136674000Y-112484000D01*
X136672000Y-112490000D01*
X136669000Y-112496000D01*
X136666000Y-112502000D01*
X136663000Y-112507000D01*
X136660000Y-112513000D01*
X136656000Y-112518000D01*
X136652000Y-112524000D01*
X136648000Y-112529000D01*
X136643000Y-112533000D01*
X136639000Y-112538000D01*
X136634000Y-112542000D01*
X136628000Y-112546000D01*
X136623000Y-112550000D01*
X136618000Y-112553000D01*
X136612000Y-112556000D01*
X136606000Y-112559000D01*
X136600000Y-112562000D01*
X136594000Y-112564000D01*
X136587000Y-112566000D01*
X136581000Y-112567000D01*
X136575000Y-112568000D01*
X136568000Y-112569000D01*
X136562000Y-112570000D01*
X136555000Y-112570000D01*
X136115000Y-112570000D01*
X136108000Y-112570000D01*
X136102000Y-112569000D01*
X136095000Y-112568000D01*
X136089000Y-112567000D01*
X136083000Y-112566000D01*
X136076000Y-112564000D01*
X136070000Y-112562000D01*
X136064000Y-112559000D01*
X136058000Y-112556000D01*
X136052000Y-112553000D01*
X136047000Y-112550000D01*
X136042000Y-112546000D01*
X136036000Y-112542000D01*
X136031000Y-112538000D01*
X136027000Y-112533000D01*
X136022000Y-112529000D01*
X136018000Y-112524000D01*
X136014000Y-112518000D01*
X136010000Y-112513000D01*
X136007000Y-112507000D01*
X136004000Y-112502000D01*
X136001000Y-112496000D01*
X135998000Y-112490000D01*
X135996000Y-112484000D01*
X135994000Y-112477000D01*
X135993000Y-112471000D01*
X135992000Y-112465000D01*
X135991000Y-112458000D01*
X135990000Y-112452000D01*
X135990000Y-112445000D01*
X135990000Y-112245000D01*
X135990000Y-112238000D01*
X135991000Y-112232000D01*
X135992000Y-112225000D01*
X135993000Y-112219000D01*
X135994000Y-112213000D01*
X135996000Y-112206000D01*
X135998000Y-112200000D01*
X136001000Y-112194000D01*
X136004000Y-112188000D01*
X136007000Y-112183000D01*
X136010000Y-112177000D01*
X136014000Y-112172000D01*
X136018000Y-112166000D01*
X136022000Y-112161000D01*
X136027000Y-112157000D01*
X136031000Y-112152000D01*
X136036000Y-112148000D01*
X136042000Y-112144000D01*
X136047000Y-112140000D01*
X136052000Y-112137000D01*
X136058000Y-112134000D01*
X136064000Y-112131000D01*
X136070000Y-112128000D01*
X136076000Y-112126000D01*
X136083000Y-112124000D01*
X136089000Y-112123000D01*
X136095000Y-112122000D01*
X136102000Y-112121000D01*
X136108000Y-112120000D01*
X136115000Y-112120000D01*
X136555000Y-112120000D01*
X136562000Y-112120000D01*
X136568000Y-112121000D01*
G37*
X138898000Y-112621000D02*
X138905000Y-112622000D01*
X138911000Y-112623000D01*
X138917000Y-112624000D01*
X138924000Y-112626000D01*
X138930000Y-112628000D01*
X138936000Y-112631000D01*
X138942000Y-112634000D01*
X138948000Y-112637000D01*
X138953000Y-112640000D01*
X138958000Y-112644000D01*
X138964000Y-112648000D01*
X138969000Y-112652000D01*
X138973000Y-112657000D01*
X138978000Y-112661000D01*
X138982000Y-112666000D01*
X138986000Y-112672000D01*
X138990000Y-112677000D01*
X138993000Y-112683000D01*
X138996000Y-112688000D01*
X138999000Y-112694000D01*
X139002000Y-112700000D01*
X139004000Y-112706000D01*
X139006000Y-112713000D01*
X139007000Y-112719000D01*
X139008000Y-112725000D01*
X139009000Y-112732000D01*
X139010000Y-112738000D01*
X139010000Y-112745000D01*
X139010000Y-112945000D01*
X139010000Y-112952000D01*
X139009000Y-112958000D01*
X139008000Y-112965000D01*
X139007000Y-112971000D01*
X139006000Y-112977000D01*
X139004000Y-112984000D01*
X139002000Y-112990000D01*
X138999000Y-112996000D01*
X138996000Y-113002000D01*
X138993000Y-113007000D01*
X138990000Y-113013000D01*
X138986000Y-113018000D01*
X138982000Y-113024000D01*
X138978000Y-113029000D01*
X138973000Y-113033000D01*
X138969000Y-113038000D01*
X138964000Y-113042000D01*
X138958000Y-113046000D01*
X138953000Y-113050000D01*
X138948000Y-113053000D01*
X138942000Y-113056000D01*
X138936000Y-113059000D01*
X138930000Y-113062000D01*
X138924000Y-113064000D01*
X138917000Y-113066000D01*
X138911000Y-113067000D01*
X138905000Y-113068000D01*
X138898000Y-113069000D01*
X138892000Y-113070000D01*
X138885000Y-113070000D01*
X138445000Y-113070000D01*
X138438000Y-113070000D01*
X138432000Y-113069000D01*
X138425000Y-113068000D01*
X138419000Y-113067000D01*
X138413000Y-113066000D01*
X138406000Y-113064000D01*
X138400000Y-113062000D01*
X138394000Y-113059000D01*
X138388000Y-113056000D01*
X138382000Y-113053000D01*
X138377000Y-113050000D01*
X138372000Y-113046000D01*
X138366000Y-113042000D01*
X138361000Y-113038000D01*
X138357000Y-113033000D01*
X138352000Y-113029000D01*
X138348000Y-113024000D01*
X138344000Y-113018000D01*
X138340000Y-113013000D01*
X138337000Y-113007000D01*
X138334000Y-113002000D01*
X138331000Y-112996000D01*
X138328000Y-112990000D01*
X138326000Y-112984000D01*
X138324000Y-112977000D01*
X138323000Y-112971000D01*
X138322000Y-112965000D01*
X138321000Y-112958000D01*
X138320000Y-112952000D01*
X138320000Y-112945000D01*
X138320000Y-112745000D01*
X138320000Y-112738000D01*
X138321000Y-112732000D01*
X138322000Y-112725000D01*
X138323000Y-112719000D01*
X138324000Y-112713000D01*
X138326000Y-112706000D01*
X138328000Y-112700000D01*
X138331000Y-112694000D01*
X138334000Y-112688000D01*
X138337000Y-112683000D01*
X138340000Y-112677000D01*
X138344000Y-112672000D01*
X138348000Y-112666000D01*
X138352000Y-112661000D01*
X138357000Y-112657000D01*
X138361000Y-112652000D01*
X138366000Y-112648000D01*
X138372000Y-112644000D01*
X138377000Y-112640000D01*
X138382000Y-112637000D01*
X138388000Y-112634000D01*
X138394000Y-112631000D01*
X138400000Y-112628000D01*
X138406000Y-112626000D01*
X138413000Y-112624000D01*
X138419000Y-112623000D01*
X138425000Y-112622000D01*
X138432000Y-112621000D01*
X138438000Y-112620000D01*
X138445000Y-112620000D01*
X138885000Y-112620000D01*
X138892000Y-112620000D01*
X138898000Y-112621000D01*
G36*
X138898000Y-112621000D02*
G01*
X138905000Y-112622000D01*
X138911000Y-112623000D01*
X138917000Y-112624000D01*
X138924000Y-112626000D01*
X138930000Y-112628000D01*
X138936000Y-112631000D01*
X138942000Y-112634000D01*
X138948000Y-112637000D01*
X138953000Y-112640000D01*
X138958000Y-112644000D01*
X138964000Y-112648000D01*
X138969000Y-112652000D01*
X138973000Y-112657000D01*
X138978000Y-112661000D01*
X138982000Y-112666000D01*
X138986000Y-112672000D01*
X138990000Y-112677000D01*
X138993000Y-112683000D01*
X138996000Y-112688000D01*
X138999000Y-112694000D01*
X139002000Y-112700000D01*
X139004000Y-112706000D01*
X139006000Y-112713000D01*
X139007000Y-112719000D01*
X139008000Y-112725000D01*
X139009000Y-112732000D01*
X139010000Y-112738000D01*
X139010000Y-112745000D01*
X139010000Y-112945000D01*
X139010000Y-112952000D01*
X139009000Y-112958000D01*
X139008000Y-112965000D01*
X139007000Y-112971000D01*
X139006000Y-112977000D01*
X139004000Y-112984000D01*
X139002000Y-112990000D01*
X138999000Y-112996000D01*
X138996000Y-113002000D01*
X138993000Y-113007000D01*
X138990000Y-113013000D01*
X138986000Y-113018000D01*
X138982000Y-113024000D01*
X138978000Y-113029000D01*
X138973000Y-113033000D01*
X138969000Y-113038000D01*
X138964000Y-113042000D01*
X138958000Y-113046000D01*
X138953000Y-113050000D01*
X138948000Y-113053000D01*
X138942000Y-113056000D01*
X138936000Y-113059000D01*
X138930000Y-113062000D01*
X138924000Y-113064000D01*
X138917000Y-113066000D01*
X138911000Y-113067000D01*
X138905000Y-113068000D01*
X138898000Y-113069000D01*
X138892000Y-113070000D01*
X138885000Y-113070000D01*
X138445000Y-113070000D01*
X138438000Y-113070000D01*
X138432000Y-113069000D01*
X138425000Y-113068000D01*
X138419000Y-113067000D01*
X138413000Y-113066000D01*
X138406000Y-113064000D01*
X138400000Y-113062000D01*
X138394000Y-113059000D01*
X138388000Y-113056000D01*
X138382000Y-113053000D01*
X138377000Y-113050000D01*
X138372000Y-113046000D01*
X138366000Y-113042000D01*
X138361000Y-113038000D01*
X138357000Y-113033000D01*
X138352000Y-113029000D01*
X138348000Y-113024000D01*
X138344000Y-113018000D01*
X138340000Y-113013000D01*
X138337000Y-113007000D01*
X138334000Y-113002000D01*
X138331000Y-112996000D01*
X138328000Y-112990000D01*
X138326000Y-112984000D01*
X138324000Y-112977000D01*
X138323000Y-112971000D01*
X138322000Y-112965000D01*
X138321000Y-112958000D01*
X138320000Y-112952000D01*
X138320000Y-112945000D01*
X138320000Y-112745000D01*
X138320000Y-112738000D01*
X138321000Y-112732000D01*
X138322000Y-112725000D01*
X138323000Y-112719000D01*
X138324000Y-112713000D01*
X138326000Y-112706000D01*
X138328000Y-112700000D01*
X138331000Y-112694000D01*
X138334000Y-112688000D01*
X138337000Y-112683000D01*
X138340000Y-112677000D01*
X138344000Y-112672000D01*
X138348000Y-112666000D01*
X138352000Y-112661000D01*
X138357000Y-112657000D01*
X138361000Y-112652000D01*
X138366000Y-112648000D01*
X138372000Y-112644000D01*
X138377000Y-112640000D01*
X138382000Y-112637000D01*
X138388000Y-112634000D01*
X138394000Y-112631000D01*
X138400000Y-112628000D01*
X138406000Y-112626000D01*
X138413000Y-112624000D01*
X138419000Y-112623000D01*
X138425000Y-112622000D01*
X138432000Y-112621000D01*
X138438000Y-112620000D01*
X138445000Y-112620000D01*
X138885000Y-112620000D01*
X138892000Y-112620000D01*
X138898000Y-112621000D01*
G37*
X138898000Y-113121000D02*
X138905000Y-113122000D01*
X138911000Y-113123000D01*
X138917000Y-113124000D01*
X138924000Y-113126000D01*
X138930000Y-113128000D01*
X138936000Y-113131000D01*
X138942000Y-113134000D01*
X138948000Y-113137000D01*
X138953000Y-113140000D01*
X138958000Y-113144000D01*
X138964000Y-113148000D01*
X138969000Y-113152000D01*
X138973000Y-113157000D01*
X138978000Y-113161000D01*
X138982000Y-113166000D01*
X138986000Y-113172000D01*
X138990000Y-113177000D01*
X138993000Y-113183000D01*
X138996000Y-113188000D01*
X138999000Y-113194000D01*
X139002000Y-113200000D01*
X139004000Y-113206000D01*
X139006000Y-113213000D01*
X139007000Y-113219000D01*
X139008000Y-113225000D01*
X139009000Y-113232000D01*
X139010000Y-113238000D01*
X139010000Y-113245000D01*
X139010000Y-113445000D01*
X139010000Y-113452000D01*
X139009000Y-113458000D01*
X139008000Y-113465000D01*
X139007000Y-113471000D01*
X139006000Y-113477000D01*
X139004000Y-113484000D01*
X139002000Y-113490000D01*
X138999000Y-113496000D01*
X138996000Y-113502000D01*
X138993000Y-113507000D01*
X138990000Y-113513000D01*
X138986000Y-113518000D01*
X138982000Y-113524000D01*
X138978000Y-113529000D01*
X138973000Y-113533000D01*
X138969000Y-113538000D01*
X138964000Y-113542000D01*
X138958000Y-113546000D01*
X138953000Y-113550000D01*
X138948000Y-113553000D01*
X138942000Y-113556000D01*
X138936000Y-113559000D01*
X138930000Y-113562000D01*
X138924000Y-113564000D01*
X138917000Y-113566000D01*
X138911000Y-113567000D01*
X138905000Y-113568000D01*
X138898000Y-113569000D01*
X138892000Y-113570000D01*
X138885000Y-113570000D01*
X138445000Y-113570000D01*
X138438000Y-113570000D01*
X138432000Y-113569000D01*
X138425000Y-113568000D01*
X138419000Y-113567000D01*
X138413000Y-113566000D01*
X138406000Y-113564000D01*
X138400000Y-113562000D01*
X138394000Y-113559000D01*
X138388000Y-113556000D01*
X138382000Y-113553000D01*
X138377000Y-113550000D01*
X138372000Y-113546000D01*
X138366000Y-113542000D01*
X138361000Y-113538000D01*
X138357000Y-113533000D01*
X138352000Y-113529000D01*
X138348000Y-113524000D01*
X138344000Y-113518000D01*
X138340000Y-113513000D01*
X138337000Y-113507000D01*
X138334000Y-113502000D01*
X138331000Y-113496000D01*
X138328000Y-113490000D01*
X138326000Y-113484000D01*
X138324000Y-113477000D01*
X138323000Y-113471000D01*
X138322000Y-113465000D01*
X138321000Y-113458000D01*
X138320000Y-113452000D01*
X138320000Y-113445000D01*
X138320000Y-113245000D01*
X138320000Y-113238000D01*
X138321000Y-113232000D01*
X138322000Y-113225000D01*
X138323000Y-113219000D01*
X138324000Y-113213000D01*
X138326000Y-113206000D01*
X138328000Y-113200000D01*
X138331000Y-113194000D01*
X138334000Y-113188000D01*
X138337000Y-113183000D01*
X138340000Y-113177000D01*
X138344000Y-113172000D01*
X138348000Y-113166000D01*
X138352000Y-113161000D01*
X138357000Y-113157000D01*
X138361000Y-113152000D01*
X138366000Y-113148000D01*
X138372000Y-113144000D01*
X138377000Y-113140000D01*
X138382000Y-113137000D01*
X138388000Y-113134000D01*
X138394000Y-113131000D01*
X138400000Y-113128000D01*
X138406000Y-113126000D01*
X138413000Y-113124000D01*
X138419000Y-113123000D01*
X138425000Y-113122000D01*
X138432000Y-113121000D01*
X138438000Y-113120000D01*
X138445000Y-113120000D01*
X138885000Y-113120000D01*
X138892000Y-113120000D01*
X138898000Y-113121000D01*
G36*
X138898000Y-113121000D02*
G01*
X138905000Y-113122000D01*
X138911000Y-113123000D01*
X138917000Y-113124000D01*
X138924000Y-113126000D01*
X138930000Y-113128000D01*
X138936000Y-113131000D01*
X138942000Y-113134000D01*
X138948000Y-113137000D01*
X138953000Y-113140000D01*
X138958000Y-113144000D01*
X138964000Y-113148000D01*
X138969000Y-113152000D01*
X138973000Y-113157000D01*
X138978000Y-113161000D01*
X138982000Y-113166000D01*
X138986000Y-113172000D01*
X138990000Y-113177000D01*
X138993000Y-113183000D01*
X138996000Y-113188000D01*
X138999000Y-113194000D01*
X139002000Y-113200000D01*
X139004000Y-113206000D01*
X139006000Y-113213000D01*
X139007000Y-113219000D01*
X139008000Y-113225000D01*
X139009000Y-113232000D01*
X139010000Y-113238000D01*
X139010000Y-113245000D01*
X139010000Y-113445000D01*
X139010000Y-113452000D01*
X139009000Y-113458000D01*
X139008000Y-113465000D01*
X139007000Y-113471000D01*
X139006000Y-113477000D01*
X139004000Y-113484000D01*
X139002000Y-113490000D01*
X138999000Y-113496000D01*
X138996000Y-113502000D01*
X138993000Y-113507000D01*
X138990000Y-113513000D01*
X138986000Y-113518000D01*
X138982000Y-113524000D01*
X138978000Y-113529000D01*
X138973000Y-113533000D01*
X138969000Y-113538000D01*
X138964000Y-113542000D01*
X138958000Y-113546000D01*
X138953000Y-113550000D01*
X138948000Y-113553000D01*
X138942000Y-113556000D01*
X138936000Y-113559000D01*
X138930000Y-113562000D01*
X138924000Y-113564000D01*
X138917000Y-113566000D01*
X138911000Y-113567000D01*
X138905000Y-113568000D01*
X138898000Y-113569000D01*
X138892000Y-113570000D01*
X138885000Y-113570000D01*
X138445000Y-113570000D01*
X138438000Y-113570000D01*
X138432000Y-113569000D01*
X138425000Y-113568000D01*
X138419000Y-113567000D01*
X138413000Y-113566000D01*
X138406000Y-113564000D01*
X138400000Y-113562000D01*
X138394000Y-113559000D01*
X138388000Y-113556000D01*
X138382000Y-113553000D01*
X138377000Y-113550000D01*
X138372000Y-113546000D01*
X138366000Y-113542000D01*
X138361000Y-113538000D01*
X138357000Y-113533000D01*
X138352000Y-113529000D01*
X138348000Y-113524000D01*
X138344000Y-113518000D01*
X138340000Y-113513000D01*
X138337000Y-113507000D01*
X138334000Y-113502000D01*
X138331000Y-113496000D01*
X138328000Y-113490000D01*
X138326000Y-113484000D01*
X138324000Y-113477000D01*
X138323000Y-113471000D01*
X138322000Y-113465000D01*
X138321000Y-113458000D01*
X138320000Y-113452000D01*
X138320000Y-113445000D01*
X138320000Y-113245000D01*
X138320000Y-113238000D01*
X138321000Y-113232000D01*
X138322000Y-113225000D01*
X138323000Y-113219000D01*
X138324000Y-113213000D01*
X138326000Y-113206000D01*
X138328000Y-113200000D01*
X138331000Y-113194000D01*
X138334000Y-113188000D01*
X138337000Y-113183000D01*
X138340000Y-113177000D01*
X138344000Y-113172000D01*
X138348000Y-113166000D01*
X138352000Y-113161000D01*
X138357000Y-113157000D01*
X138361000Y-113152000D01*
X138366000Y-113148000D01*
X138372000Y-113144000D01*
X138377000Y-113140000D01*
X138382000Y-113137000D01*
X138388000Y-113134000D01*
X138394000Y-113131000D01*
X138400000Y-113128000D01*
X138406000Y-113126000D01*
X138413000Y-113124000D01*
X138419000Y-113123000D01*
X138425000Y-113122000D01*
X138432000Y-113121000D01*
X138438000Y-113120000D01*
X138445000Y-113120000D01*
X138885000Y-113120000D01*
X138892000Y-113120000D01*
X138898000Y-113121000D01*
G37*
X138898000Y-113621000D02*
X138905000Y-113622000D01*
X138911000Y-113623000D01*
X138917000Y-113624000D01*
X138924000Y-113626000D01*
X138930000Y-113628000D01*
X138936000Y-113631000D01*
X138942000Y-113634000D01*
X138948000Y-113637000D01*
X138953000Y-113640000D01*
X138958000Y-113644000D01*
X138964000Y-113648000D01*
X138969000Y-113652000D01*
X138973000Y-113657000D01*
X138978000Y-113661000D01*
X138982000Y-113666000D01*
X138986000Y-113672000D01*
X138990000Y-113677000D01*
X138993000Y-113683000D01*
X138996000Y-113688000D01*
X138999000Y-113694000D01*
X139002000Y-113700000D01*
X139004000Y-113706000D01*
X139006000Y-113713000D01*
X139007000Y-113719000D01*
X139008000Y-113725000D01*
X139009000Y-113732000D01*
X139010000Y-113738000D01*
X139010000Y-113745000D01*
X139010000Y-113945000D01*
X139010000Y-113952000D01*
X139009000Y-113958000D01*
X139008000Y-113965000D01*
X139007000Y-113971000D01*
X139006000Y-113977000D01*
X139004000Y-113984000D01*
X139002000Y-113990000D01*
X138999000Y-113996000D01*
X138996000Y-114002000D01*
X138993000Y-114007000D01*
X138990000Y-114013000D01*
X138986000Y-114018000D01*
X138982000Y-114024000D01*
X138978000Y-114029000D01*
X138973000Y-114033000D01*
X138969000Y-114038000D01*
X138964000Y-114042000D01*
X138958000Y-114046000D01*
X138953000Y-114050000D01*
X138948000Y-114053000D01*
X138942000Y-114056000D01*
X138936000Y-114059000D01*
X138930000Y-114062000D01*
X138924000Y-114064000D01*
X138917000Y-114066000D01*
X138911000Y-114067000D01*
X138905000Y-114068000D01*
X138898000Y-114069000D01*
X138892000Y-114070000D01*
X138885000Y-114070000D01*
X138445000Y-114070000D01*
X138438000Y-114070000D01*
X138432000Y-114069000D01*
X138425000Y-114068000D01*
X138419000Y-114067000D01*
X138413000Y-114066000D01*
X138406000Y-114064000D01*
X138400000Y-114062000D01*
X138394000Y-114059000D01*
X138388000Y-114056000D01*
X138382000Y-114053000D01*
X138377000Y-114050000D01*
X138372000Y-114046000D01*
X138366000Y-114042000D01*
X138361000Y-114038000D01*
X138357000Y-114033000D01*
X138352000Y-114029000D01*
X138348000Y-114024000D01*
X138344000Y-114018000D01*
X138340000Y-114013000D01*
X138337000Y-114007000D01*
X138334000Y-114002000D01*
X138331000Y-113996000D01*
X138328000Y-113990000D01*
X138326000Y-113984000D01*
X138324000Y-113977000D01*
X138323000Y-113971000D01*
X138322000Y-113965000D01*
X138321000Y-113958000D01*
X138320000Y-113952000D01*
X138320000Y-113945000D01*
X138320000Y-113745000D01*
X138320000Y-113738000D01*
X138321000Y-113732000D01*
X138322000Y-113725000D01*
X138323000Y-113719000D01*
X138324000Y-113713000D01*
X138326000Y-113706000D01*
X138328000Y-113700000D01*
X138331000Y-113694000D01*
X138334000Y-113688000D01*
X138337000Y-113683000D01*
X138340000Y-113677000D01*
X138344000Y-113672000D01*
X138348000Y-113666000D01*
X138352000Y-113661000D01*
X138357000Y-113657000D01*
X138361000Y-113652000D01*
X138366000Y-113648000D01*
X138372000Y-113644000D01*
X138377000Y-113640000D01*
X138382000Y-113637000D01*
X138388000Y-113634000D01*
X138394000Y-113631000D01*
X138400000Y-113628000D01*
X138406000Y-113626000D01*
X138413000Y-113624000D01*
X138419000Y-113623000D01*
X138425000Y-113622000D01*
X138432000Y-113621000D01*
X138438000Y-113620000D01*
X138445000Y-113620000D01*
X138885000Y-113620000D01*
X138892000Y-113620000D01*
X138898000Y-113621000D01*
G36*
X138898000Y-113621000D02*
G01*
X138905000Y-113622000D01*
X138911000Y-113623000D01*
X138917000Y-113624000D01*
X138924000Y-113626000D01*
X138930000Y-113628000D01*
X138936000Y-113631000D01*
X138942000Y-113634000D01*
X138948000Y-113637000D01*
X138953000Y-113640000D01*
X138958000Y-113644000D01*
X138964000Y-113648000D01*
X138969000Y-113652000D01*
X138973000Y-113657000D01*
X138978000Y-113661000D01*
X138982000Y-113666000D01*
X138986000Y-113672000D01*
X138990000Y-113677000D01*
X138993000Y-113683000D01*
X138996000Y-113688000D01*
X138999000Y-113694000D01*
X139002000Y-113700000D01*
X139004000Y-113706000D01*
X139006000Y-113713000D01*
X139007000Y-113719000D01*
X139008000Y-113725000D01*
X139009000Y-113732000D01*
X139010000Y-113738000D01*
X139010000Y-113745000D01*
X139010000Y-113945000D01*
X139010000Y-113952000D01*
X139009000Y-113958000D01*
X139008000Y-113965000D01*
X139007000Y-113971000D01*
X139006000Y-113977000D01*
X139004000Y-113984000D01*
X139002000Y-113990000D01*
X138999000Y-113996000D01*
X138996000Y-114002000D01*
X138993000Y-114007000D01*
X138990000Y-114013000D01*
X138986000Y-114018000D01*
X138982000Y-114024000D01*
X138978000Y-114029000D01*
X138973000Y-114033000D01*
X138969000Y-114038000D01*
X138964000Y-114042000D01*
X138958000Y-114046000D01*
X138953000Y-114050000D01*
X138948000Y-114053000D01*
X138942000Y-114056000D01*
X138936000Y-114059000D01*
X138930000Y-114062000D01*
X138924000Y-114064000D01*
X138917000Y-114066000D01*
X138911000Y-114067000D01*
X138905000Y-114068000D01*
X138898000Y-114069000D01*
X138892000Y-114070000D01*
X138885000Y-114070000D01*
X138445000Y-114070000D01*
X138438000Y-114070000D01*
X138432000Y-114069000D01*
X138425000Y-114068000D01*
X138419000Y-114067000D01*
X138413000Y-114066000D01*
X138406000Y-114064000D01*
X138400000Y-114062000D01*
X138394000Y-114059000D01*
X138388000Y-114056000D01*
X138382000Y-114053000D01*
X138377000Y-114050000D01*
X138372000Y-114046000D01*
X138366000Y-114042000D01*
X138361000Y-114038000D01*
X138357000Y-114033000D01*
X138352000Y-114029000D01*
X138348000Y-114024000D01*
X138344000Y-114018000D01*
X138340000Y-114013000D01*
X138337000Y-114007000D01*
X138334000Y-114002000D01*
X138331000Y-113996000D01*
X138328000Y-113990000D01*
X138326000Y-113984000D01*
X138324000Y-113977000D01*
X138323000Y-113971000D01*
X138322000Y-113965000D01*
X138321000Y-113958000D01*
X138320000Y-113952000D01*
X138320000Y-113945000D01*
X138320000Y-113745000D01*
X138320000Y-113738000D01*
X138321000Y-113732000D01*
X138322000Y-113725000D01*
X138323000Y-113719000D01*
X138324000Y-113713000D01*
X138326000Y-113706000D01*
X138328000Y-113700000D01*
X138331000Y-113694000D01*
X138334000Y-113688000D01*
X138337000Y-113683000D01*
X138340000Y-113677000D01*
X138344000Y-113672000D01*
X138348000Y-113666000D01*
X138352000Y-113661000D01*
X138357000Y-113657000D01*
X138361000Y-113652000D01*
X138366000Y-113648000D01*
X138372000Y-113644000D01*
X138377000Y-113640000D01*
X138382000Y-113637000D01*
X138388000Y-113634000D01*
X138394000Y-113631000D01*
X138400000Y-113628000D01*
X138406000Y-113626000D01*
X138413000Y-113624000D01*
X138419000Y-113623000D01*
X138425000Y-113622000D01*
X138432000Y-113621000D01*
X138438000Y-113620000D01*
X138445000Y-113620000D01*
X138885000Y-113620000D01*
X138892000Y-113620000D01*
X138898000Y-113621000D01*
G37*
X138898000Y-112121000D02*
X138905000Y-112122000D01*
X138911000Y-112123000D01*
X138917000Y-112124000D01*
X138924000Y-112126000D01*
X138930000Y-112128000D01*
X138936000Y-112131000D01*
X138942000Y-112134000D01*
X138948000Y-112137000D01*
X138953000Y-112140000D01*
X138958000Y-112144000D01*
X138964000Y-112148000D01*
X138969000Y-112152000D01*
X138973000Y-112157000D01*
X138978000Y-112161000D01*
X138982000Y-112166000D01*
X138986000Y-112172000D01*
X138990000Y-112177000D01*
X138993000Y-112183000D01*
X138996000Y-112188000D01*
X138999000Y-112194000D01*
X139002000Y-112200000D01*
X139004000Y-112206000D01*
X139006000Y-112213000D01*
X139007000Y-112219000D01*
X139008000Y-112225000D01*
X139009000Y-112232000D01*
X139010000Y-112238000D01*
X139010000Y-112245000D01*
X139010000Y-112445000D01*
X139010000Y-112452000D01*
X139009000Y-112458000D01*
X139008000Y-112465000D01*
X139007000Y-112471000D01*
X139006000Y-112477000D01*
X139004000Y-112484000D01*
X139002000Y-112490000D01*
X138999000Y-112496000D01*
X138996000Y-112502000D01*
X138993000Y-112507000D01*
X138990000Y-112513000D01*
X138986000Y-112518000D01*
X138982000Y-112524000D01*
X138978000Y-112529000D01*
X138973000Y-112533000D01*
X138969000Y-112538000D01*
X138964000Y-112542000D01*
X138958000Y-112546000D01*
X138953000Y-112550000D01*
X138948000Y-112553000D01*
X138942000Y-112556000D01*
X138936000Y-112559000D01*
X138930000Y-112562000D01*
X138924000Y-112564000D01*
X138917000Y-112566000D01*
X138911000Y-112567000D01*
X138905000Y-112568000D01*
X138898000Y-112569000D01*
X138892000Y-112570000D01*
X138885000Y-112570000D01*
X138445000Y-112570000D01*
X138438000Y-112570000D01*
X138432000Y-112569000D01*
X138425000Y-112568000D01*
X138419000Y-112567000D01*
X138413000Y-112566000D01*
X138406000Y-112564000D01*
X138400000Y-112562000D01*
X138394000Y-112559000D01*
X138388000Y-112556000D01*
X138382000Y-112553000D01*
X138377000Y-112550000D01*
X138372000Y-112546000D01*
X138366000Y-112542000D01*
X138361000Y-112538000D01*
X138357000Y-112533000D01*
X138352000Y-112529000D01*
X138348000Y-112524000D01*
X138344000Y-112518000D01*
X138340000Y-112513000D01*
X138337000Y-112507000D01*
X138334000Y-112502000D01*
X138331000Y-112496000D01*
X138328000Y-112490000D01*
X138326000Y-112484000D01*
X138324000Y-112477000D01*
X138323000Y-112471000D01*
X138322000Y-112465000D01*
X138321000Y-112458000D01*
X138320000Y-112452000D01*
X138320000Y-112445000D01*
X138320000Y-112245000D01*
X138320000Y-112238000D01*
X138321000Y-112232000D01*
X138322000Y-112225000D01*
X138323000Y-112219000D01*
X138324000Y-112213000D01*
X138326000Y-112206000D01*
X138328000Y-112200000D01*
X138331000Y-112194000D01*
X138334000Y-112188000D01*
X138337000Y-112183000D01*
X138340000Y-112177000D01*
X138344000Y-112172000D01*
X138348000Y-112166000D01*
X138352000Y-112161000D01*
X138357000Y-112157000D01*
X138361000Y-112152000D01*
X138366000Y-112148000D01*
X138372000Y-112144000D01*
X138377000Y-112140000D01*
X138382000Y-112137000D01*
X138388000Y-112134000D01*
X138394000Y-112131000D01*
X138400000Y-112128000D01*
X138406000Y-112126000D01*
X138413000Y-112124000D01*
X138419000Y-112123000D01*
X138425000Y-112122000D01*
X138432000Y-112121000D01*
X138438000Y-112120000D01*
X138445000Y-112120000D01*
X138885000Y-112120000D01*
X138892000Y-112120000D01*
X138898000Y-112121000D01*
G36*
X138898000Y-112121000D02*
G01*
X138905000Y-112122000D01*
X138911000Y-112123000D01*
X138917000Y-112124000D01*
X138924000Y-112126000D01*
X138930000Y-112128000D01*
X138936000Y-112131000D01*
X138942000Y-112134000D01*
X138948000Y-112137000D01*
X138953000Y-112140000D01*
X138958000Y-112144000D01*
X138964000Y-112148000D01*
X138969000Y-112152000D01*
X138973000Y-112157000D01*
X138978000Y-112161000D01*
X138982000Y-112166000D01*
X138986000Y-112172000D01*
X138990000Y-112177000D01*
X138993000Y-112183000D01*
X138996000Y-112188000D01*
X138999000Y-112194000D01*
X139002000Y-112200000D01*
X139004000Y-112206000D01*
X139006000Y-112213000D01*
X139007000Y-112219000D01*
X139008000Y-112225000D01*
X139009000Y-112232000D01*
X139010000Y-112238000D01*
X139010000Y-112245000D01*
X139010000Y-112445000D01*
X139010000Y-112452000D01*
X139009000Y-112458000D01*
X139008000Y-112465000D01*
X139007000Y-112471000D01*
X139006000Y-112477000D01*
X139004000Y-112484000D01*
X139002000Y-112490000D01*
X138999000Y-112496000D01*
X138996000Y-112502000D01*
X138993000Y-112507000D01*
X138990000Y-112513000D01*
X138986000Y-112518000D01*
X138982000Y-112524000D01*
X138978000Y-112529000D01*
X138973000Y-112533000D01*
X138969000Y-112538000D01*
X138964000Y-112542000D01*
X138958000Y-112546000D01*
X138953000Y-112550000D01*
X138948000Y-112553000D01*
X138942000Y-112556000D01*
X138936000Y-112559000D01*
X138930000Y-112562000D01*
X138924000Y-112564000D01*
X138917000Y-112566000D01*
X138911000Y-112567000D01*
X138905000Y-112568000D01*
X138898000Y-112569000D01*
X138892000Y-112570000D01*
X138885000Y-112570000D01*
X138445000Y-112570000D01*
X138438000Y-112570000D01*
X138432000Y-112569000D01*
X138425000Y-112568000D01*
X138419000Y-112567000D01*
X138413000Y-112566000D01*
X138406000Y-112564000D01*
X138400000Y-112562000D01*
X138394000Y-112559000D01*
X138388000Y-112556000D01*
X138382000Y-112553000D01*
X138377000Y-112550000D01*
X138372000Y-112546000D01*
X138366000Y-112542000D01*
X138361000Y-112538000D01*
X138357000Y-112533000D01*
X138352000Y-112529000D01*
X138348000Y-112524000D01*
X138344000Y-112518000D01*
X138340000Y-112513000D01*
X138337000Y-112507000D01*
X138334000Y-112502000D01*
X138331000Y-112496000D01*
X138328000Y-112490000D01*
X138326000Y-112484000D01*
X138324000Y-112477000D01*
X138323000Y-112471000D01*
X138322000Y-112465000D01*
X138321000Y-112458000D01*
X138320000Y-112452000D01*
X138320000Y-112445000D01*
X138320000Y-112245000D01*
X138320000Y-112238000D01*
X138321000Y-112232000D01*
X138322000Y-112225000D01*
X138323000Y-112219000D01*
X138324000Y-112213000D01*
X138326000Y-112206000D01*
X138328000Y-112200000D01*
X138331000Y-112194000D01*
X138334000Y-112188000D01*
X138337000Y-112183000D01*
X138340000Y-112177000D01*
X138344000Y-112172000D01*
X138348000Y-112166000D01*
X138352000Y-112161000D01*
X138357000Y-112157000D01*
X138361000Y-112152000D01*
X138366000Y-112148000D01*
X138372000Y-112144000D01*
X138377000Y-112140000D01*
X138382000Y-112137000D01*
X138388000Y-112134000D01*
X138394000Y-112131000D01*
X138400000Y-112128000D01*
X138406000Y-112126000D01*
X138413000Y-112124000D01*
X138419000Y-112123000D01*
X138425000Y-112122000D01*
X138432000Y-112121000D01*
X138438000Y-112120000D01*
X138445000Y-112120000D01*
X138885000Y-112120000D01*
X138892000Y-112120000D01*
X138898000Y-112121000D01*
G37*
X137613000Y-111836000D02*
X137620000Y-111837000D01*
X137626000Y-111838000D01*
X137632000Y-111839000D01*
X137639000Y-111841000D01*
X137645000Y-111843000D01*
X137651000Y-111846000D01*
X137657000Y-111849000D01*
X137663000Y-111852000D01*
X137668000Y-111855000D01*
X137673000Y-111859000D01*
X137679000Y-111863000D01*
X137684000Y-111867000D01*
X137688000Y-111872000D01*
X137693000Y-111876000D01*
X137697000Y-111881000D01*
X137701000Y-111887000D01*
X137705000Y-111892000D01*
X137708000Y-111897000D01*
X137711000Y-111903000D01*
X137714000Y-111909000D01*
X137717000Y-111915000D01*
X137719000Y-111921000D01*
X137721000Y-111928000D01*
X137722000Y-111934000D01*
X137723000Y-111940000D01*
X137724000Y-111947000D01*
X137725000Y-111953000D01*
X137725000Y-111960000D01*
X137725000Y-112400000D01*
X137725000Y-112407000D01*
X137724000Y-112413000D01*
X137723000Y-112420000D01*
X137722000Y-112426000D01*
X137721000Y-112432000D01*
X137719000Y-112439000D01*
X137717000Y-112445000D01*
X137714000Y-112451000D01*
X137711000Y-112457000D01*
X137708000Y-112463000D01*
X137705000Y-112468000D01*
X137701000Y-112473000D01*
X137697000Y-112479000D01*
X137693000Y-112484000D01*
X137688000Y-112488000D01*
X137684000Y-112493000D01*
X137679000Y-112497000D01*
X137673000Y-112501000D01*
X137668000Y-112505000D01*
X137663000Y-112508000D01*
X137657000Y-112511000D01*
X137651000Y-112514000D01*
X137645000Y-112517000D01*
X137639000Y-112519000D01*
X137632000Y-112521000D01*
X137626000Y-112522000D01*
X137620000Y-112523000D01*
X137613000Y-112524000D01*
X137607000Y-112525000D01*
X137600000Y-112525000D01*
X137400000Y-112525000D01*
X137393000Y-112525000D01*
X137387000Y-112524000D01*
X137380000Y-112523000D01*
X137374000Y-112522000D01*
X137368000Y-112521000D01*
X137361000Y-112519000D01*
X137355000Y-112517000D01*
X137349000Y-112514000D01*
X137343000Y-112511000D01*
X137337000Y-112508000D01*
X137332000Y-112505000D01*
X137327000Y-112501000D01*
X137321000Y-112497000D01*
X137316000Y-112493000D01*
X137312000Y-112488000D01*
X137307000Y-112484000D01*
X137303000Y-112479000D01*
X137299000Y-112473000D01*
X137295000Y-112468000D01*
X137292000Y-112463000D01*
X137289000Y-112457000D01*
X137286000Y-112451000D01*
X137283000Y-112445000D01*
X137281000Y-112439000D01*
X137279000Y-112432000D01*
X137278000Y-112426000D01*
X137277000Y-112420000D01*
X137276000Y-112413000D01*
X137275000Y-112407000D01*
X137275000Y-112400000D01*
X137275000Y-111960000D01*
X137275000Y-111953000D01*
X137276000Y-111947000D01*
X137277000Y-111940000D01*
X137278000Y-111934000D01*
X137279000Y-111928000D01*
X137281000Y-111921000D01*
X137283000Y-111915000D01*
X137286000Y-111909000D01*
X137289000Y-111903000D01*
X137292000Y-111897000D01*
X137295000Y-111892000D01*
X137299000Y-111887000D01*
X137303000Y-111881000D01*
X137307000Y-111876000D01*
X137312000Y-111872000D01*
X137316000Y-111867000D01*
X137321000Y-111863000D01*
X137327000Y-111859000D01*
X137332000Y-111855000D01*
X137338000Y-111852000D01*
X137343000Y-111849000D01*
X137349000Y-111846000D01*
X137355000Y-111843000D01*
X137361000Y-111841000D01*
X137368000Y-111839000D01*
X137374000Y-111838000D01*
X137380000Y-111837000D01*
X137387000Y-111836000D01*
X137393000Y-111835000D01*
X137400000Y-111835000D01*
X137600000Y-111835000D01*
X137607000Y-111835000D01*
X137613000Y-111836000D01*
G36*
X137613000Y-111836000D02*
G01*
X137620000Y-111837000D01*
X137626000Y-111838000D01*
X137632000Y-111839000D01*
X137639000Y-111841000D01*
X137645000Y-111843000D01*
X137651000Y-111846000D01*
X137657000Y-111849000D01*
X137663000Y-111852000D01*
X137668000Y-111855000D01*
X137673000Y-111859000D01*
X137679000Y-111863000D01*
X137684000Y-111867000D01*
X137688000Y-111872000D01*
X137693000Y-111876000D01*
X137697000Y-111881000D01*
X137701000Y-111887000D01*
X137705000Y-111892000D01*
X137708000Y-111897000D01*
X137711000Y-111903000D01*
X137714000Y-111909000D01*
X137717000Y-111915000D01*
X137719000Y-111921000D01*
X137721000Y-111928000D01*
X137722000Y-111934000D01*
X137723000Y-111940000D01*
X137724000Y-111947000D01*
X137725000Y-111953000D01*
X137725000Y-111960000D01*
X137725000Y-112400000D01*
X137725000Y-112407000D01*
X137724000Y-112413000D01*
X137723000Y-112420000D01*
X137722000Y-112426000D01*
X137721000Y-112432000D01*
X137719000Y-112439000D01*
X137717000Y-112445000D01*
X137714000Y-112451000D01*
X137711000Y-112457000D01*
X137708000Y-112463000D01*
X137705000Y-112468000D01*
X137701000Y-112473000D01*
X137697000Y-112479000D01*
X137693000Y-112484000D01*
X137688000Y-112488000D01*
X137684000Y-112493000D01*
X137679000Y-112497000D01*
X137673000Y-112501000D01*
X137668000Y-112505000D01*
X137663000Y-112508000D01*
X137657000Y-112511000D01*
X137651000Y-112514000D01*
X137645000Y-112517000D01*
X137639000Y-112519000D01*
X137632000Y-112521000D01*
X137626000Y-112522000D01*
X137620000Y-112523000D01*
X137613000Y-112524000D01*
X137607000Y-112525000D01*
X137600000Y-112525000D01*
X137400000Y-112525000D01*
X137393000Y-112525000D01*
X137387000Y-112524000D01*
X137380000Y-112523000D01*
X137374000Y-112522000D01*
X137368000Y-112521000D01*
X137361000Y-112519000D01*
X137355000Y-112517000D01*
X137349000Y-112514000D01*
X137343000Y-112511000D01*
X137337000Y-112508000D01*
X137332000Y-112505000D01*
X137327000Y-112501000D01*
X137321000Y-112497000D01*
X137316000Y-112493000D01*
X137312000Y-112488000D01*
X137307000Y-112484000D01*
X137303000Y-112479000D01*
X137299000Y-112473000D01*
X137295000Y-112468000D01*
X137292000Y-112463000D01*
X137289000Y-112457000D01*
X137286000Y-112451000D01*
X137283000Y-112445000D01*
X137281000Y-112439000D01*
X137279000Y-112432000D01*
X137278000Y-112426000D01*
X137277000Y-112420000D01*
X137276000Y-112413000D01*
X137275000Y-112407000D01*
X137275000Y-112400000D01*
X137275000Y-111960000D01*
X137275000Y-111953000D01*
X137276000Y-111947000D01*
X137277000Y-111940000D01*
X137278000Y-111934000D01*
X137279000Y-111928000D01*
X137281000Y-111921000D01*
X137283000Y-111915000D01*
X137286000Y-111909000D01*
X137289000Y-111903000D01*
X137292000Y-111897000D01*
X137295000Y-111892000D01*
X137299000Y-111887000D01*
X137303000Y-111881000D01*
X137307000Y-111876000D01*
X137312000Y-111872000D01*
X137316000Y-111867000D01*
X137321000Y-111863000D01*
X137327000Y-111859000D01*
X137332000Y-111855000D01*
X137338000Y-111852000D01*
X137343000Y-111849000D01*
X137349000Y-111846000D01*
X137355000Y-111843000D01*
X137361000Y-111841000D01*
X137368000Y-111839000D01*
X137374000Y-111838000D01*
X137380000Y-111837000D01*
X137387000Y-111836000D01*
X137393000Y-111835000D01*
X137400000Y-111835000D01*
X137600000Y-111835000D01*
X137607000Y-111835000D01*
X137613000Y-111836000D01*
G37*
X137113000Y-111836000D02*
X137120000Y-111837000D01*
X137126000Y-111838000D01*
X137132000Y-111839000D01*
X137139000Y-111841000D01*
X137145000Y-111843000D01*
X137151000Y-111846000D01*
X137157000Y-111849000D01*
X137162000Y-111852000D01*
X137168000Y-111855000D01*
X137173000Y-111859000D01*
X137179000Y-111863000D01*
X137184000Y-111867000D01*
X137188000Y-111872000D01*
X137193000Y-111876000D01*
X137197000Y-111881000D01*
X137201000Y-111887000D01*
X137205000Y-111892000D01*
X137208000Y-111897000D01*
X137211000Y-111903000D01*
X137214000Y-111909000D01*
X137217000Y-111915000D01*
X137219000Y-111921000D01*
X137221000Y-111928000D01*
X137222000Y-111934000D01*
X137223000Y-111940000D01*
X137224000Y-111947000D01*
X137225000Y-111953000D01*
X137225000Y-111960000D01*
X137225000Y-112400000D01*
X137225000Y-112407000D01*
X137224000Y-112413000D01*
X137223000Y-112420000D01*
X137222000Y-112426000D01*
X137221000Y-112432000D01*
X137219000Y-112439000D01*
X137217000Y-112445000D01*
X137214000Y-112451000D01*
X137211000Y-112457000D01*
X137208000Y-112463000D01*
X137205000Y-112468000D01*
X137201000Y-112473000D01*
X137197000Y-112479000D01*
X137193000Y-112484000D01*
X137188000Y-112488000D01*
X137184000Y-112493000D01*
X137179000Y-112497000D01*
X137173000Y-112501000D01*
X137168000Y-112505000D01*
X137162000Y-112508000D01*
X137157000Y-112511000D01*
X137151000Y-112514000D01*
X137145000Y-112517000D01*
X137139000Y-112519000D01*
X137132000Y-112521000D01*
X137126000Y-112522000D01*
X137120000Y-112523000D01*
X137113000Y-112524000D01*
X137107000Y-112525000D01*
X137100000Y-112525000D01*
X136900000Y-112525000D01*
X136893000Y-112525000D01*
X136887000Y-112524000D01*
X136880000Y-112523000D01*
X136874000Y-112522000D01*
X136868000Y-112521000D01*
X136861000Y-112519000D01*
X136855000Y-112517000D01*
X136849000Y-112514000D01*
X136843000Y-112511000D01*
X136837000Y-112508000D01*
X136832000Y-112505000D01*
X136827000Y-112501000D01*
X136821000Y-112497000D01*
X136816000Y-112493000D01*
X136812000Y-112488000D01*
X136807000Y-112484000D01*
X136803000Y-112479000D01*
X136799000Y-112473000D01*
X136795000Y-112468000D01*
X136792000Y-112463000D01*
X136789000Y-112457000D01*
X136786000Y-112451000D01*
X136783000Y-112445000D01*
X136781000Y-112439000D01*
X136779000Y-112432000D01*
X136778000Y-112426000D01*
X136777000Y-112420000D01*
X136776000Y-112413000D01*
X136775000Y-112407000D01*
X136775000Y-112400000D01*
X136775000Y-111960000D01*
X136775000Y-111953000D01*
X136776000Y-111947000D01*
X136777000Y-111940000D01*
X136778000Y-111934000D01*
X136779000Y-111928000D01*
X136781000Y-111921000D01*
X136783000Y-111915000D01*
X136786000Y-111909000D01*
X136789000Y-111903000D01*
X136792000Y-111897000D01*
X136795000Y-111892000D01*
X136799000Y-111887000D01*
X136803000Y-111881000D01*
X136807000Y-111876000D01*
X136812000Y-111872000D01*
X136816000Y-111867000D01*
X136821000Y-111863000D01*
X136827000Y-111859000D01*
X136832000Y-111855000D01*
X136838000Y-111852000D01*
X136843000Y-111849000D01*
X136849000Y-111846000D01*
X136855000Y-111843000D01*
X136861000Y-111841000D01*
X136868000Y-111839000D01*
X136874000Y-111838000D01*
X136880000Y-111837000D01*
X136887000Y-111836000D01*
X136893000Y-111835000D01*
X136900000Y-111835000D01*
X137100000Y-111835000D01*
X137107000Y-111835000D01*
X137113000Y-111836000D01*
G36*
X137113000Y-111836000D02*
G01*
X137120000Y-111837000D01*
X137126000Y-111838000D01*
X137132000Y-111839000D01*
X137139000Y-111841000D01*
X137145000Y-111843000D01*
X137151000Y-111846000D01*
X137157000Y-111849000D01*
X137162000Y-111852000D01*
X137168000Y-111855000D01*
X137173000Y-111859000D01*
X137179000Y-111863000D01*
X137184000Y-111867000D01*
X137188000Y-111872000D01*
X137193000Y-111876000D01*
X137197000Y-111881000D01*
X137201000Y-111887000D01*
X137205000Y-111892000D01*
X137208000Y-111897000D01*
X137211000Y-111903000D01*
X137214000Y-111909000D01*
X137217000Y-111915000D01*
X137219000Y-111921000D01*
X137221000Y-111928000D01*
X137222000Y-111934000D01*
X137223000Y-111940000D01*
X137224000Y-111947000D01*
X137225000Y-111953000D01*
X137225000Y-111960000D01*
X137225000Y-112400000D01*
X137225000Y-112407000D01*
X137224000Y-112413000D01*
X137223000Y-112420000D01*
X137222000Y-112426000D01*
X137221000Y-112432000D01*
X137219000Y-112439000D01*
X137217000Y-112445000D01*
X137214000Y-112451000D01*
X137211000Y-112457000D01*
X137208000Y-112463000D01*
X137205000Y-112468000D01*
X137201000Y-112473000D01*
X137197000Y-112479000D01*
X137193000Y-112484000D01*
X137188000Y-112488000D01*
X137184000Y-112493000D01*
X137179000Y-112497000D01*
X137173000Y-112501000D01*
X137168000Y-112505000D01*
X137162000Y-112508000D01*
X137157000Y-112511000D01*
X137151000Y-112514000D01*
X137145000Y-112517000D01*
X137139000Y-112519000D01*
X137132000Y-112521000D01*
X137126000Y-112522000D01*
X137120000Y-112523000D01*
X137113000Y-112524000D01*
X137107000Y-112525000D01*
X137100000Y-112525000D01*
X136900000Y-112525000D01*
X136893000Y-112525000D01*
X136887000Y-112524000D01*
X136880000Y-112523000D01*
X136874000Y-112522000D01*
X136868000Y-112521000D01*
X136861000Y-112519000D01*
X136855000Y-112517000D01*
X136849000Y-112514000D01*
X136843000Y-112511000D01*
X136837000Y-112508000D01*
X136832000Y-112505000D01*
X136827000Y-112501000D01*
X136821000Y-112497000D01*
X136816000Y-112493000D01*
X136812000Y-112488000D01*
X136807000Y-112484000D01*
X136803000Y-112479000D01*
X136799000Y-112473000D01*
X136795000Y-112468000D01*
X136792000Y-112463000D01*
X136789000Y-112457000D01*
X136786000Y-112451000D01*
X136783000Y-112445000D01*
X136781000Y-112439000D01*
X136779000Y-112432000D01*
X136778000Y-112426000D01*
X136777000Y-112420000D01*
X136776000Y-112413000D01*
X136775000Y-112407000D01*
X136775000Y-112400000D01*
X136775000Y-111960000D01*
X136775000Y-111953000D01*
X136776000Y-111947000D01*
X136777000Y-111940000D01*
X136778000Y-111934000D01*
X136779000Y-111928000D01*
X136781000Y-111921000D01*
X136783000Y-111915000D01*
X136786000Y-111909000D01*
X136789000Y-111903000D01*
X136792000Y-111897000D01*
X136795000Y-111892000D01*
X136799000Y-111887000D01*
X136803000Y-111881000D01*
X136807000Y-111876000D01*
X136812000Y-111872000D01*
X136816000Y-111867000D01*
X136821000Y-111863000D01*
X136827000Y-111859000D01*
X136832000Y-111855000D01*
X136838000Y-111852000D01*
X136843000Y-111849000D01*
X136849000Y-111846000D01*
X136855000Y-111843000D01*
X136861000Y-111841000D01*
X136868000Y-111839000D01*
X136874000Y-111838000D01*
X136880000Y-111837000D01*
X136887000Y-111836000D01*
X136893000Y-111835000D01*
X136900000Y-111835000D01*
X137100000Y-111835000D01*
X137107000Y-111835000D01*
X137113000Y-111836000D01*
G37*
X138113000Y-111836000D02*
X138120000Y-111837000D01*
X138126000Y-111838000D01*
X138132000Y-111839000D01*
X138139000Y-111841000D01*
X138145000Y-111843000D01*
X138151000Y-111846000D01*
X138157000Y-111849000D01*
X138162000Y-111852000D01*
X138168000Y-111855000D01*
X138173000Y-111859000D01*
X138179000Y-111863000D01*
X138184000Y-111867000D01*
X138188000Y-111872000D01*
X138193000Y-111876000D01*
X138197000Y-111881000D01*
X138201000Y-111887000D01*
X138205000Y-111892000D01*
X138208000Y-111897000D01*
X138211000Y-111903000D01*
X138214000Y-111909000D01*
X138217000Y-111915000D01*
X138219000Y-111921000D01*
X138221000Y-111928000D01*
X138222000Y-111934000D01*
X138223000Y-111940000D01*
X138224000Y-111947000D01*
X138225000Y-111953000D01*
X138225000Y-111960000D01*
X138225000Y-112400000D01*
X138225000Y-112407000D01*
X138224000Y-112413000D01*
X138223000Y-112420000D01*
X138222000Y-112426000D01*
X138221000Y-112432000D01*
X138219000Y-112439000D01*
X138217000Y-112445000D01*
X138214000Y-112451000D01*
X138211000Y-112457000D01*
X138208000Y-112463000D01*
X138205000Y-112468000D01*
X138201000Y-112473000D01*
X138197000Y-112479000D01*
X138193000Y-112484000D01*
X138188000Y-112488000D01*
X138184000Y-112493000D01*
X138179000Y-112497000D01*
X138173000Y-112501000D01*
X138168000Y-112505000D01*
X138162000Y-112508000D01*
X138157000Y-112511000D01*
X138151000Y-112514000D01*
X138145000Y-112517000D01*
X138139000Y-112519000D01*
X138132000Y-112521000D01*
X138126000Y-112522000D01*
X138120000Y-112523000D01*
X138113000Y-112524000D01*
X138107000Y-112525000D01*
X138100000Y-112525000D01*
X137900000Y-112525000D01*
X137893000Y-112525000D01*
X137887000Y-112524000D01*
X137880000Y-112523000D01*
X137874000Y-112522000D01*
X137868000Y-112521000D01*
X137861000Y-112519000D01*
X137855000Y-112517000D01*
X137849000Y-112514000D01*
X137843000Y-112511000D01*
X137837000Y-112508000D01*
X137832000Y-112505000D01*
X137827000Y-112501000D01*
X137821000Y-112497000D01*
X137816000Y-112493000D01*
X137812000Y-112488000D01*
X137807000Y-112484000D01*
X137803000Y-112479000D01*
X137799000Y-112473000D01*
X137795000Y-112468000D01*
X137792000Y-112463000D01*
X137789000Y-112457000D01*
X137786000Y-112451000D01*
X137783000Y-112445000D01*
X137781000Y-112439000D01*
X137779000Y-112432000D01*
X137778000Y-112426000D01*
X137777000Y-112420000D01*
X137776000Y-112413000D01*
X137775000Y-112407000D01*
X137775000Y-112400000D01*
X137775000Y-111960000D01*
X137775000Y-111953000D01*
X137776000Y-111947000D01*
X137777000Y-111940000D01*
X137778000Y-111934000D01*
X137779000Y-111928000D01*
X137781000Y-111921000D01*
X137783000Y-111915000D01*
X137786000Y-111909000D01*
X137789000Y-111903000D01*
X137792000Y-111897000D01*
X137795000Y-111892000D01*
X137799000Y-111887000D01*
X137803000Y-111881000D01*
X137807000Y-111876000D01*
X137812000Y-111872000D01*
X137816000Y-111867000D01*
X137821000Y-111863000D01*
X137827000Y-111859000D01*
X137832000Y-111855000D01*
X137838000Y-111852000D01*
X137843000Y-111849000D01*
X137849000Y-111846000D01*
X137855000Y-111843000D01*
X137861000Y-111841000D01*
X137868000Y-111839000D01*
X137874000Y-111838000D01*
X137880000Y-111837000D01*
X137887000Y-111836000D01*
X137893000Y-111835000D01*
X137900000Y-111835000D01*
X138100000Y-111835000D01*
X138107000Y-111835000D01*
X138113000Y-111836000D01*
G36*
X138113000Y-111836000D02*
G01*
X138120000Y-111837000D01*
X138126000Y-111838000D01*
X138132000Y-111839000D01*
X138139000Y-111841000D01*
X138145000Y-111843000D01*
X138151000Y-111846000D01*
X138157000Y-111849000D01*
X138162000Y-111852000D01*
X138168000Y-111855000D01*
X138173000Y-111859000D01*
X138179000Y-111863000D01*
X138184000Y-111867000D01*
X138188000Y-111872000D01*
X138193000Y-111876000D01*
X138197000Y-111881000D01*
X138201000Y-111887000D01*
X138205000Y-111892000D01*
X138208000Y-111897000D01*
X138211000Y-111903000D01*
X138214000Y-111909000D01*
X138217000Y-111915000D01*
X138219000Y-111921000D01*
X138221000Y-111928000D01*
X138222000Y-111934000D01*
X138223000Y-111940000D01*
X138224000Y-111947000D01*
X138225000Y-111953000D01*
X138225000Y-111960000D01*
X138225000Y-112400000D01*
X138225000Y-112407000D01*
X138224000Y-112413000D01*
X138223000Y-112420000D01*
X138222000Y-112426000D01*
X138221000Y-112432000D01*
X138219000Y-112439000D01*
X138217000Y-112445000D01*
X138214000Y-112451000D01*
X138211000Y-112457000D01*
X138208000Y-112463000D01*
X138205000Y-112468000D01*
X138201000Y-112473000D01*
X138197000Y-112479000D01*
X138193000Y-112484000D01*
X138188000Y-112488000D01*
X138184000Y-112493000D01*
X138179000Y-112497000D01*
X138173000Y-112501000D01*
X138168000Y-112505000D01*
X138162000Y-112508000D01*
X138157000Y-112511000D01*
X138151000Y-112514000D01*
X138145000Y-112517000D01*
X138139000Y-112519000D01*
X138132000Y-112521000D01*
X138126000Y-112522000D01*
X138120000Y-112523000D01*
X138113000Y-112524000D01*
X138107000Y-112525000D01*
X138100000Y-112525000D01*
X137900000Y-112525000D01*
X137893000Y-112525000D01*
X137887000Y-112524000D01*
X137880000Y-112523000D01*
X137874000Y-112522000D01*
X137868000Y-112521000D01*
X137861000Y-112519000D01*
X137855000Y-112517000D01*
X137849000Y-112514000D01*
X137843000Y-112511000D01*
X137837000Y-112508000D01*
X137832000Y-112505000D01*
X137827000Y-112501000D01*
X137821000Y-112497000D01*
X137816000Y-112493000D01*
X137812000Y-112488000D01*
X137807000Y-112484000D01*
X137803000Y-112479000D01*
X137799000Y-112473000D01*
X137795000Y-112468000D01*
X137792000Y-112463000D01*
X137789000Y-112457000D01*
X137786000Y-112451000D01*
X137783000Y-112445000D01*
X137781000Y-112439000D01*
X137779000Y-112432000D01*
X137778000Y-112426000D01*
X137777000Y-112420000D01*
X137776000Y-112413000D01*
X137775000Y-112407000D01*
X137775000Y-112400000D01*
X137775000Y-111960000D01*
X137775000Y-111953000D01*
X137776000Y-111947000D01*
X137777000Y-111940000D01*
X137778000Y-111934000D01*
X137779000Y-111928000D01*
X137781000Y-111921000D01*
X137783000Y-111915000D01*
X137786000Y-111909000D01*
X137789000Y-111903000D01*
X137792000Y-111897000D01*
X137795000Y-111892000D01*
X137799000Y-111887000D01*
X137803000Y-111881000D01*
X137807000Y-111876000D01*
X137812000Y-111872000D01*
X137816000Y-111867000D01*
X137821000Y-111863000D01*
X137827000Y-111859000D01*
X137832000Y-111855000D01*
X137838000Y-111852000D01*
X137843000Y-111849000D01*
X137849000Y-111846000D01*
X137855000Y-111843000D01*
X137861000Y-111841000D01*
X137868000Y-111839000D01*
X137874000Y-111838000D01*
X137880000Y-111837000D01*
X137887000Y-111836000D01*
X137893000Y-111835000D01*
X137900000Y-111835000D01*
X138100000Y-111835000D01*
X138107000Y-111835000D01*
X138113000Y-111836000D01*
G37*
X137613000Y-113666000D02*
X137620000Y-113667000D01*
X137626000Y-113668000D01*
X137632000Y-113669000D01*
X137639000Y-113671000D01*
X137645000Y-113673000D01*
X137651000Y-113676000D01*
X137657000Y-113679000D01*
X137663000Y-113682000D01*
X137668000Y-113685000D01*
X137673000Y-113689000D01*
X137679000Y-113693000D01*
X137684000Y-113697000D01*
X137688000Y-113702000D01*
X137693000Y-113706000D01*
X137697000Y-113711000D01*
X137701000Y-113717000D01*
X137705000Y-113722000D01*
X137708000Y-113727000D01*
X137711000Y-113733000D01*
X137714000Y-113739000D01*
X137717000Y-113745000D01*
X137719000Y-113751000D01*
X137721000Y-113758000D01*
X137722000Y-113764000D01*
X137723000Y-113770000D01*
X137724000Y-113777000D01*
X137725000Y-113783000D01*
X137725000Y-113790000D01*
X137725000Y-114230000D01*
X137725000Y-114237000D01*
X137724000Y-114243000D01*
X137723000Y-114250000D01*
X137722000Y-114256000D01*
X137721000Y-114262000D01*
X137719000Y-114269000D01*
X137717000Y-114275000D01*
X137714000Y-114281000D01*
X137711000Y-114287000D01*
X137708000Y-114293000D01*
X137705000Y-114298000D01*
X137701000Y-114303000D01*
X137697000Y-114309000D01*
X137693000Y-114314000D01*
X137688000Y-114318000D01*
X137684000Y-114323000D01*
X137679000Y-114327000D01*
X137673000Y-114331000D01*
X137668000Y-114335000D01*
X137663000Y-114338000D01*
X137657000Y-114341000D01*
X137651000Y-114344000D01*
X137645000Y-114347000D01*
X137639000Y-114349000D01*
X137632000Y-114351000D01*
X137626000Y-114352000D01*
X137620000Y-114353000D01*
X137613000Y-114354000D01*
X137607000Y-114355000D01*
X137600000Y-114355000D01*
X137400000Y-114355000D01*
X137393000Y-114355000D01*
X137387000Y-114354000D01*
X137380000Y-114353000D01*
X137374000Y-114352000D01*
X137368000Y-114351000D01*
X137361000Y-114349000D01*
X137355000Y-114347000D01*
X137349000Y-114344000D01*
X137343000Y-114341000D01*
X137337000Y-114338000D01*
X137332000Y-114335000D01*
X137327000Y-114331000D01*
X137321000Y-114327000D01*
X137316000Y-114323000D01*
X137312000Y-114318000D01*
X137307000Y-114314000D01*
X137303000Y-114309000D01*
X137299000Y-114303000D01*
X137295000Y-114298000D01*
X137292000Y-114293000D01*
X137289000Y-114287000D01*
X137286000Y-114281000D01*
X137283000Y-114275000D01*
X137281000Y-114269000D01*
X137279000Y-114262000D01*
X137278000Y-114256000D01*
X137277000Y-114250000D01*
X137276000Y-114243000D01*
X137275000Y-114237000D01*
X137275000Y-114230000D01*
X137275000Y-113790000D01*
X137275000Y-113783000D01*
X137276000Y-113777000D01*
X137277000Y-113770000D01*
X137278000Y-113764000D01*
X137279000Y-113758000D01*
X137281000Y-113751000D01*
X137283000Y-113745000D01*
X137286000Y-113739000D01*
X137289000Y-113733000D01*
X137292000Y-113727000D01*
X137295000Y-113722000D01*
X137299000Y-113717000D01*
X137303000Y-113711000D01*
X137307000Y-113706000D01*
X137312000Y-113702000D01*
X137316000Y-113697000D01*
X137321000Y-113693000D01*
X137327000Y-113689000D01*
X137332000Y-113685000D01*
X137338000Y-113682000D01*
X137343000Y-113679000D01*
X137349000Y-113676000D01*
X137355000Y-113673000D01*
X137361000Y-113671000D01*
X137368000Y-113669000D01*
X137374000Y-113668000D01*
X137380000Y-113667000D01*
X137387000Y-113666000D01*
X137393000Y-113665000D01*
X137400000Y-113665000D01*
X137600000Y-113665000D01*
X137607000Y-113665000D01*
X137613000Y-113666000D01*
G36*
X137613000Y-113666000D02*
G01*
X137620000Y-113667000D01*
X137626000Y-113668000D01*
X137632000Y-113669000D01*
X137639000Y-113671000D01*
X137645000Y-113673000D01*
X137651000Y-113676000D01*
X137657000Y-113679000D01*
X137663000Y-113682000D01*
X137668000Y-113685000D01*
X137673000Y-113689000D01*
X137679000Y-113693000D01*
X137684000Y-113697000D01*
X137688000Y-113702000D01*
X137693000Y-113706000D01*
X137697000Y-113711000D01*
X137701000Y-113717000D01*
X137705000Y-113722000D01*
X137708000Y-113727000D01*
X137711000Y-113733000D01*
X137714000Y-113739000D01*
X137717000Y-113745000D01*
X137719000Y-113751000D01*
X137721000Y-113758000D01*
X137722000Y-113764000D01*
X137723000Y-113770000D01*
X137724000Y-113777000D01*
X137725000Y-113783000D01*
X137725000Y-113790000D01*
X137725000Y-114230000D01*
X137725000Y-114237000D01*
X137724000Y-114243000D01*
X137723000Y-114250000D01*
X137722000Y-114256000D01*
X137721000Y-114262000D01*
X137719000Y-114269000D01*
X137717000Y-114275000D01*
X137714000Y-114281000D01*
X137711000Y-114287000D01*
X137708000Y-114293000D01*
X137705000Y-114298000D01*
X137701000Y-114303000D01*
X137697000Y-114309000D01*
X137693000Y-114314000D01*
X137688000Y-114318000D01*
X137684000Y-114323000D01*
X137679000Y-114327000D01*
X137673000Y-114331000D01*
X137668000Y-114335000D01*
X137663000Y-114338000D01*
X137657000Y-114341000D01*
X137651000Y-114344000D01*
X137645000Y-114347000D01*
X137639000Y-114349000D01*
X137632000Y-114351000D01*
X137626000Y-114352000D01*
X137620000Y-114353000D01*
X137613000Y-114354000D01*
X137607000Y-114355000D01*
X137600000Y-114355000D01*
X137400000Y-114355000D01*
X137393000Y-114355000D01*
X137387000Y-114354000D01*
X137380000Y-114353000D01*
X137374000Y-114352000D01*
X137368000Y-114351000D01*
X137361000Y-114349000D01*
X137355000Y-114347000D01*
X137349000Y-114344000D01*
X137343000Y-114341000D01*
X137337000Y-114338000D01*
X137332000Y-114335000D01*
X137327000Y-114331000D01*
X137321000Y-114327000D01*
X137316000Y-114323000D01*
X137312000Y-114318000D01*
X137307000Y-114314000D01*
X137303000Y-114309000D01*
X137299000Y-114303000D01*
X137295000Y-114298000D01*
X137292000Y-114293000D01*
X137289000Y-114287000D01*
X137286000Y-114281000D01*
X137283000Y-114275000D01*
X137281000Y-114269000D01*
X137279000Y-114262000D01*
X137278000Y-114256000D01*
X137277000Y-114250000D01*
X137276000Y-114243000D01*
X137275000Y-114237000D01*
X137275000Y-114230000D01*
X137275000Y-113790000D01*
X137275000Y-113783000D01*
X137276000Y-113777000D01*
X137277000Y-113770000D01*
X137278000Y-113764000D01*
X137279000Y-113758000D01*
X137281000Y-113751000D01*
X137283000Y-113745000D01*
X137286000Y-113739000D01*
X137289000Y-113733000D01*
X137292000Y-113727000D01*
X137295000Y-113722000D01*
X137299000Y-113717000D01*
X137303000Y-113711000D01*
X137307000Y-113706000D01*
X137312000Y-113702000D01*
X137316000Y-113697000D01*
X137321000Y-113693000D01*
X137327000Y-113689000D01*
X137332000Y-113685000D01*
X137338000Y-113682000D01*
X137343000Y-113679000D01*
X137349000Y-113676000D01*
X137355000Y-113673000D01*
X137361000Y-113671000D01*
X137368000Y-113669000D01*
X137374000Y-113668000D01*
X137380000Y-113667000D01*
X137387000Y-113666000D01*
X137393000Y-113665000D01*
X137400000Y-113665000D01*
X137600000Y-113665000D01*
X137607000Y-113665000D01*
X137613000Y-113666000D01*
G37*
X137113000Y-113666000D02*
X137120000Y-113667000D01*
X137126000Y-113668000D01*
X137132000Y-113669000D01*
X137139000Y-113671000D01*
X137145000Y-113673000D01*
X137151000Y-113676000D01*
X137157000Y-113679000D01*
X137162000Y-113682000D01*
X137168000Y-113685000D01*
X137173000Y-113689000D01*
X137179000Y-113693000D01*
X137184000Y-113697000D01*
X137188000Y-113702000D01*
X137193000Y-113706000D01*
X137197000Y-113711000D01*
X137201000Y-113717000D01*
X137205000Y-113722000D01*
X137208000Y-113727000D01*
X137211000Y-113733000D01*
X137214000Y-113739000D01*
X137217000Y-113745000D01*
X137219000Y-113751000D01*
X137221000Y-113758000D01*
X137222000Y-113764000D01*
X137223000Y-113770000D01*
X137224000Y-113777000D01*
X137225000Y-113783000D01*
X137225000Y-113790000D01*
X137225000Y-114230000D01*
X137225000Y-114237000D01*
X137224000Y-114243000D01*
X137223000Y-114250000D01*
X137222000Y-114256000D01*
X137221000Y-114262000D01*
X137219000Y-114269000D01*
X137217000Y-114275000D01*
X137214000Y-114281000D01*
X137211000Y-114287000D01*
X137208000Y-114293000D01*
X137205000Y-114298000D01*
X137201000Y-114303000D01*
X137197000Y-114309000D01*
X137193000Y-114314000D01*
X137188000Y-114318000D01*
X137184000Y-114323000D01*
X137179000Y-114327000D01*
X137173000Y-114331000D01*
X137168000Y-114335000D01*
X137162000Y-114338000D01*
X137157000Y-114341000D01*
X137151000Y-114344000D01*
X137145000Y-114347000D01*
X137139000Y-114349000D01*
X137132000Y-114351000D01*
X137126000Y-114352000D01*
X137120000Y-114353000D01*
X137113000Y-114354000D01*
X137107000Y-114355000D01*
X137100000Y-114355000D01*
X136900000Y-114355000D01*
X136893000Y-114355000D01*
X136887000Y-114354000D01*
X136880000Y-114353000D01*
X136874000Y-114352000D01*
X136868000Y-114351000D01*
X136861000Y-114349000D01*
X136855000Y-114347000D01*
X136849000Y-114344000D01*
X136843000Y-114341000D01*
X136837000Y-114338000D01*
X136832000Y-114335000D01*
X136827000Y-114331000D01*
X136821000Y-114327000D01*
X136816000Y-114323000D01*
X136812000Y-114318000D01*
X136807000Y-114314000D01*
X136803000Y-114309000D01*
X136799000Y-114303000D01*
X136795000Y-114298000D01*
X136792000Y-114293000D01*
X136789000Y-114287000D01*
X136786000Y-114281000D01*
X136783000Y-114275000D01*
X136781000Y-114269000D01*
X136779000Y-114262000D01*
X136778000Y-114256000D01*
X136777000Y-114250000D01*
X136776000Y-114243000D01*
X136775000Y-114237000D01*
X136775000Y-114230000D01*
X136775000Y-113790000D01*
X136775000Y-113783000D01*
X136776000Y-113777000D01*
X136777000Y-113770000D01*
X136778000Y-113764000D01*
X136779000Y-113758000D01*
X136781000Y-113751000D01*
X136783000Y-113745000D01*
X136786000Y-113739000D01*
X136789000Y-113733000D01*
X136792000Y-113727000D01*
X136795000Y-113722000D01*
X136799000Y-113717000D01*
X136803000Y-113711000D01*
X136807000Y-113706000D01*
X136812000Y-113702000D01*
X136816000Y-113697000D01*
X136821000Y-113693000D01*
X136827000Y-113689000D01*
X136832000Y-113685000D01*
X136838000Y-113682000D01*
X136843000Y-113679000D01*
X136849000Y-113676000D01*
X136855000Y-113673000D01*
X136861000Y-113671000D01*
X136868000Y-113669000D01*
X136874000Y-113668000D01*
X136880000Y-113667000D01*
X136887000Y-113666000D01*
X136893000Y-113665000D01*
X136900000Y-113665000D01*
X137100000Y-113665000D01*
X137107000Y-113665000D01*
X137113000Y-113666000D01*
G36*
X137113000Y-113666000D02*
G01*
X137120000Y-113667000D01*
X137126000Y-113668000D01*
X137132000Y-113669000D01*
X137139000Y-113671000D01*
X137145000Y-113673000D01*
X137151000Y-113676000D01*
X137157000Y-113679000D01*
X137162000Y-113682000D01*
X137168000Y-113685000D01*
X137173000Y-113689000D01*
X137179000Y-113693000D01*
X137184000Y-113697000D01*
X137188000Y-113702000D01*
X137193000Y-113706000D01*
X137197000Y-113711000D01*
X137201000Y-113717000D01*
X137205000Y-113722000D01*
X137208000Y-113727000D01*
X137211000Y-113733000D01*
X137214000Y-113739000D01*
X137217000Y-113745000D01*
X137219000Y-113751000D01*
X137221000Y-113758000D01*
X137222000Y-113764000D01*
X137223000Y-113770000D01*
X137224000Y-113777000D01*
X137225000Y-113783000D01*
X137225000Y-113790000D01*
X137225000Y-114230000D01*
X137225000Y-114237000D01*
X137224000Y-114243000D01*
X137223000Y-114250000D01*
X137222000Y-114256000D01*
X137221000Y-114262000D01*
X137219000Y-114269000D01*
X137217000Y-114275000D01*
X137214000Y-114281000D01*
X137211000Y-114287000D01*
X137208000Y-114293000D01*
X137205000Y-114298000D01*
X137201000Y-114303000D01*
X137197000Y-114309000D01*
X137193000Y-114314000D01*
X137188000Y-114318000D01*
X137184000Y-114323000D01*
X137179000Y-114327000D01*
X137173000Y-114331000D01*
X137168000Y-114335000D01*
X137162000Y-114338000D01*
X137157000Y-114341000D01*
X137151000Y-114344000D01*
X137145000Y-114347000D01*
X137139000Y-114349000D01*
X137132000Y-114351000D01*
X137126000Y-114352000D01*
X137120000Y-114353000D01*
X137113000Y-114354000D01*
X137107000Y-114355000D01*
X137100000Y-114355000D01*
X136900000Y-114355000D01*
X136893000Y-114355000D01*
X136887000Y-114354000D01*
X136880000Y-114353000D01*
X136874000Y-114352000D01*
X136868000Y-114351000D01*
X136861000Y-114349000D01*
X136855000Y-114347000D01*
X136849000Y-114344000D01*
X136843000Y-114341000D01*
X136837000Y-114338000D01*
X136832000Y-114335000D01*
X136827000Y-114331000D01*
X136821000Y-114327000D01*
X136816000Y-114323000D01*
X136812000Y-114318000D01*
X136807000Y-114314000D01*
X136803000Y-114309000D01*
X136799000Y-114303000D01*
X136795000Y-114298000D01*
X136792000Y-114293000D01*
X136789000Y-114287000D01*
X136786000Y-114281000D01*
X136783000Y-114275000D01*
X136781000Y-114269000D01*
X136779000Y-114262000D01*
X136778000Y-114256000D01*
X136777000Y-114250000D01*
X136776000Y-114243000D01*
X136775000Y-114237000D01*
X136775000Y-114230000D01*
X136775000Y-113790000D01*
X136775000Y-113783000D01*
X136776000Y-113777000D01*
X136777000Y-113770000D01*
X136778000Y-113764000D01*
X136779000Y-113758000D01*
X136781000Y-113751000D01*
X136783000Y-113745000D01*
X136786000Y-113739000D01*
X136789000Y-113733000D01*
X136792000Y-113727000D01*
X136795000Y-113722000D01*
X136799000Y-113717000D01*
X136803000Y-113711000D01*
X136807000Y-113706000D01*
X136812000Y-113702000D01*
X136816000Y-113697000D01*
X136821000Y-113693000D01*
X136827000Y-113689000D01*
X136832000Y-113685000D01*
X136838000Y-113682000D01*
X136843000Y-113679000D01*
X136849000Y-113676000D01*
X136855000Y-113673000D01*
X136861000Y-113671000D01*
X136868000Y-113669000D01*
X136874000Y-113668000D01*
X136880000Y-113667000D01*
X136887000Y-113666000D01*
X136893000Y-113665000D01*
X136900000Y-113665000D01*
X137100000Y-113665000D01*
X137107000Y-113665000D01*
X137113000Y-113666000D01*
G37*
X138113000Y-113666000D02*
X138120000Y-113667000D01*
X138126000Y-113668000D01*
X138132000Y-113669000D01*
X138139000Y-113671000D01*
X138145000Y-113673000D01*
X138151000Y-113676000D01*
X138157000Y-113679000D01*
X138162000Y-113682000D01*
X138168000Y-113685000D01*
X138173000Y-113689000D01*
X138179000Y-113693000D01*
X138184000Y-113697000D01*
X138188000Y-113702000D01*
X138193000Y-113706000D01*
X138197000Y-113711000D01*
X138201000Y-113717000D01*
X138205000Y-113722000D01*
X138208000Y-113727000D01*
X138211000Y-113733000D01*
X138214000Y-113739000D01*
X138217000Y-113745000D01*
X138219000Y-113751000D01*
X138221000Y-113758000D01*
X138222000Y-113764000D01*
X138223000Y-113770000D01*
X138224000Y-113777000D01*
X138225000Y-113783000D01*
X138225000Y-113790000D01*
X138225000Y-114230000D01*
X138225000Y-114237000D01*
X138224000Y-114243000D01*
X138223000Y-114250000D01*
X138222000Y-114256000D01*
X138221000Y-114262000D01*
X138219000Y-114269000D01*
X138217000Y-114275000D01*
X138214000Y-114281000D01*
X138211000Y-114287000D01*
X138208000Y-114293000D01*
X138205000Y-114298000D01*
X138201000Y-114303000D01*
X138197000Y-114309000D01*
X138193000Y-114314000D01*
X138188000Y-114318000D01*
X138184000Y-114323000D01*
X138179000Y-114327000D01*
X138173000Y-114331000D01*
X138168000Y-114335000D01*
X138162000Y-114338000D01*
X138157000Y-114341000D01*
X138151000Y-114344000D01*
X138145000Y-114347000D01*
X138139000Y-114349000D01*
X138132000Y-114351000D01*
X138126000Y-114352000D01*
X138120000Y-114353000D01*
X138113000Y-114354000D01*
X138107000Y-114355000D01*
X138100000Y-114355000D01*
X137900000Y-114355000D01*
X137893000Y-114355000D01*
X137887000Y-114354000D01*
X137880000Y-114353000D01*
X137874000Y-114352000D01*
X137868000Y-114351000D01*
X137861000Y-114349000D01*
X137855000Y-114347000D01*
X137849000Y-114344000D01*
X137843000Y-114341000D01*
X137837000Y-114338000D01*
X137832000Y-114335000D01*
X137827000Y-114331000D01*
X137821000Y-114327000D01*
X137816000Y-114323000D01*
X137812000Y-114318000D01*
X137807000Y-114314000D01*
X137803000Y-114309000D01*
X137799000Y-114303000D01*
X137795000Y-114298000D01*
X137792000Y-114293000D01*
X137789000Y-114287000D01*
X137786000Y-114281000D01*
X137783000Y-114275000D01*
X137781000Y-114269000D01*
X137779000Y-114262000D01*
X137778000Y-114256000D01*
X137777000Y-114250000D01*
X137776000Y-114243000D01*
X137775000Y-114237000D01*
X137775000Y-114230000D01*
X137775000Y-113790000D01*
X137775000Y-113783000D01*
X137776000Y-113777000D01*
X137777000Y-113770000D01*
X137778000Y-113764000D01*
X137779000Y-113758000D01*
X137781000Y-113751000D01*
X137783000Y-113745000D01*
X137786000Y-113739000D01*
X137789000Y-113733000D01*
X137792000Y-113727000D01*
X137795000Y-113722000D01*
X137799000Y-113717000D01*
X137803000Y-113711000D01*
X137807000Y-113706000D01*
X137812000Y-113702000D01*
X137816000Y-113697000D01*
X137821000Y-113693000D01*
X137827000Y-113689000D01*
X137832000Y-113685000D01*
X137838000Y-113682000D01*
X137843000Y-113679000D01*
X137849000Y-113676000D01*
X137855000Y-113673000D01*
X137861000Y-113671000D01*
X137868000Y-113669000D01*
X137874000Y-113668000D01*
X137880000Y-113667000D01*
X137887000Y-113666000D01*
X137893000Y-113665000D01*
X137900000Y-113665000D01*
X138100000Y-113665000D01*
X138107000Y-113665000D01*
X138113000Y-113666000D01*
G36*
X138113000Y-113666000D02*
G01*
X138120000Y-113667000D01*
X138126000Y-113668000D01*
X138132000Y-113669000D01*
X138139000Y-113671000D01*
X138145000Y-113673000D01*
X138151000Y-113676000D01*
X138157000Y-113679000D01*
X138162000Y-113682000D01*
X138168000Y-113685000D01*
X138173000Y-113689000D01*
X138179000Y-113693000D01*
X138184000Y-113697000D01*
X138188000Y-113702000D01*
X138193000Y-113706000D01*
X138197000Y-113711000D01*
X138201000Y-113717000D01*
X138205000Y-113722000D01*
X138208000Y-113727000D01*
X138211000Y-113733000D01*
X138214000Y-113739000D01*
X138217000Y-113745000D01*
X138219000Y-113751000D01*
X138221000Y-113758000D01*
X138222000Y-113764000D01*
X138223000Y-113770000D01*
X138224000Y-113777000D01*
X138225000Y-113783000D01*
X138225000Y-113790000D01*
X138225000Y-114230000D01*
X138225000Y-114237000D01*
X138224000Y-114243000D01*
X138223000Y-114250000D01*
X138222000Y-114256000D01*
X138221000Y-114262000D01*
X138219000Y-114269000D01*
X138217000Y-114275000D01*
X138214000Y-114281000D01*
X138211000Y-114287000D01*
X138208000Y-114293000D01*
X138205000Y-114298000D01*
X138201000Y-114303000D01*
X138197000Y-114309000D01*
X138193000Y-114314000D01*
X138188000Y-114318000D01*
X138184000Y-114323000D01*
X138179000Y-114327000D01*
X138173000Y-114331000D01*
X138168000Y-114335000D01*
X138162000Y-114338000D01*
X138157000Y-114341000D01*
X138151000Y-114344000D01*
X138145000Y-114347000D01*
X138139000Y-114349000D01*
X138132000Y-114351000D01*
X138126000Y-114352000D01*
X138120000Y-114353000D01*
X138113000Y-114354000D01*
X138107000Y-114355000D01*
X138100000Y-114355000D01*
X137900000Y-114355000D01*
X137893000Y-114355000D01*
X137887000Y-114354000D01*
X137880000Y-114353000D01*
X137874000Y-114352000D01*
X137868000Y-114351000D01*
X137861000Y-114349000D01*
X137855000Y-114347000D01*
X137849000Y-114344000D01*
X137843000Y-114341000D01*
X137837000Y-114338000D01*
X137832000Y-114335000D01*
X137827000Y-114331000D01*
X137821000Y-114327000D01*
X137816000Y-114323000D01*
X137812000Y-114318000D01*
X137807000Y-114314000D01*
X137803000Y-114309000D01*
X137799000Y-114303000D01*
X137795000Y-114298000D01*
X137792000Y-114293000D01*
X137789000Y-114287000D01*
X137786000Y-114281000D01*
X137783000Y-114275000D01*
X137781000Y-114269000D01*
X137779000Y-114262000D01*
X137778000Y-114256000D01*
X137777000Y-114250000D01*
X137776000Y-114243000D01*
X137775000Y-114237000D01*
X137775000Y-114230000D01*
X137775000Y-113790000D01*
X137775000Y-113783000D01*
X137776000Y-113777000D01*
X137777000Y-113770000D01*
X137778000Y-113764000D01*
X137779000Y-113758000D01*
X137781000Y-113751000D01*
X137783000Y-113745000D01*
X137786000Y-113739000D01*
X137789000Y-113733000D01*
X137792000Y-113727000D01*
X137795000Y-113722000D01*
X137799000Y-113717000D01*
X137803000Y-113711000D01*
X137807000Y-113706000D01*
X137812000Y-113702000D01*
X137816000Y-113697000D01*
X137821000Y-113693000D01*
X137827000Y-113689000D01*
X137832000Y-113685000D01*
X137838000Y-113682000D01*
X137843000Y-113679000D01*
X137849000Y-113676000D01*
X137855000Y-113673000D01*
X137861000Y-113671000D01*
X137868000Y-113669000D01*
X137874000Y-113668000D01*
X137880000Y-113667000D01*
X137887000Y-113666000D01*
X137893000Y-113665000D01*
X137900000Y-113665000D01*
X138100000Y-113665000D01*
X138107000Y-113665000D01*
X138113000Y-113666000D01*
G37*
%TD*%
D11*
%TO.C,U2*%
X157500000Y-112845000D03*
X159900000Y-112845000D03*
X157500000Y-114095000D03*
X157500000Y-115345000D03*
X157500000Y-116595000D03*
X159900000Y-116595000D03*
X159900000Y-115345000D03*
X159900000Y-114095000D03*
%TD*%
D12*
%TO.C,R5*%
X160490000Y-107595000D03*
X161510000Y-107595000D03*
%TD*%
D13*
%TO.C,R4*%
X135000000Y-119585000D03*
X135000000Y-120605000D03*
%TD*%
D14*
%TO.C,R3*%
X161510000Y-121095000D03*
X160490000Y-121095000D03*
%TD*%
D12*
%TO.C,R2*%
X133990000Y-123095000D03*
X135010000Y-123095000D03*
%TD*%
D13*
%TO.C,R1*%
X153500000Y-116085000D03*
X153500000Y-117105000D03*
%TD*%
D15*
%TO.C,J3*%
X174000000Y-108220000D03*
D16*
X174000000Y-110760000D03*
X174000000Y-113300000D03*
X174000000Y-115840000D03*
X174000000Y-118380000D03*
X174000000Y-120920000D03*
X174000000Y-123460000D03*
X174000000Y-126000000D03*
%TD*%
D15*
%TO.C,J2*%
X126000000Y-107475000D03*
D16*
X126000000Y-110015000D03*
X126000000Y-112555000D03*
X126000000Y-115095000D03*
X126000000Y-117635000D03*
X126000000Y-120175000D03*
X126000000Y-122715000D03*
X126000000Y-125255000D03*
%TD*%
D17*
%TO.C,H4*%
X119250000Y-98600000D03*
X119733274Y-97433274D03*
X119733274Y-99766726D03*
X120900000Y-96950000D03*
D18*
X120900000Y-98600000D03*
D17*
X120900000Y-100250000D03*
X122066726Y-97433274D03*
X122066726Y-99766726D03*
X122550000Y-98600000D03*
%TD*%
%TO.C,H3*%
X181550000Y-98500000D03*
X181066726Y-99666726D03*
X181066726Y-97333274D03*
X179900000Y-100150000D03*
D18*
X179900000Y-98500000D03*
D17*
X179900000Y-96850000D03*
X178733274Y-99666726D03*
X178733274Y-97333274D03*
X178250000Y-98500000D03*
%TD*%
%TO.C,H2*%
X119350000Y-133000000D03*
X119833274Y-131833274D03*
X119833274Y-134166726D03*
X121000000Y-131350000D03*
D18*
X121000000Y-133000000D03*
D17*
X121000000Y-134650000D03*
X122166726Y-131833274D03*
X122166726Y-134166726D03*
X122650000Y-133000000D03*
%TD*%
%TO.C,H1*%
X178183274Y-132833274D03*
X178666548Y-131666548D03*
X178666548Y-134000000D03*
X179833274Y-131183274D03*
D18*
X179833274Y-132833274D03*
D17*
X179833274Y-134483274D03*
X181000000Y-131666548D03*
X181000000Y-134000000D03*
X181483274Y-132833274D03*
%TD*%
D19*
%TO.C,D6*%
X158500000Y-107807500D03*
X158500000Y-109382500D03*
%TD*%
D20*
%TO.C,D5*%
X135000000Y-117670000D03*
X135000000Y-116095000D03*
%TD*%
D21*
%TO.C,D4*%
X164832500Y-121095000D03*
X166407500Y-121095000D03*
%TD*%
D22*
%TO.C,D3*%
X170000000Y-108095000D03*
X168600000Y-108095000D03*
%TD*%
D23*
%TO.C,D2*%
X131400000Y-107595000D03*
X130000000Y-107595000D03*
%TD*%
D24*
%TO.C,D1*%
X131787500Y-123095000D03*
X130212500Y-123095000D03*
%TD*%
D25*
%TO.C,C5*%
X155950000Y-109595000D03*
X154050000Y-109595000D03*
%TD*%
D26*
%TO.C,C4*%
X155400000Y-112220000D03*
X155400000Y-113180000D03*
%TD*%
D27*
%TO.C,C3*%
X140500000Y-113575000D03*
X140500000Y-112615000D03*
%TD*%
D28*
%TO.C,C2*%
X141500000Y-117495000D03*
X141500000Y-115595000D03*
%TD*%
D29*
%TO.C,C1*%
X137520000Y-115595000D03*
X138480000Y-115595000D03*
%TD*%
M02*
