%TF.GenerationSoftware,KiCad,Pcbnew,8.0.9-8.0.9-0~ubuntu24.04.1*%
%TF.CreationDate,2026-08-08T03:17:24+02:00*%
%TF.ProjectId,breakout_board_imu,62726561-6b6f-4757-945f-626f6172645f,rev?*%
%TF.SameCoordinates,Original*%
%TF.FileFunction,Copper,L2,Bot*%
%TF.FilePolarity,Positive*%
%FSLAX46Y46*%
G04 Gerber Fmt 4.6, Leading zero omitted, Abs format (unit mm)*
G04 Created by KiCad (PCBNEW 8.0.9-8.0.9-0~ubuntu24.04.1) date 2026-08-08 03:17:24*
%MOMM*%
%LPD*%
G01*
G04 APERTURE LIST*
%TA.AperFunction,ComponentPad*%
%ADD10R,1.700000X1.700000*%
%TD*%
%TA.AperFunction,ComponentPad*%
%ADD11O,1.700000X1.700000*%
%TD*%
%TA.AperFunction,ComponentPad*%
%ADD12C,0.700000*%
%TD*%
%TA.AperFunction,ComponentPad*%
%ADD13C,4.400000*%
%TD*%
%TA.AperFunction,ViaPad*%
%ADD14C,0.700000*%
%TD*%
G04 APERTURE END LIST*
D10*
%TO.P,J3,1,Pin_1*%
%TO.N,+3.3V*%
X174000000Y-108220000D03*
D11*
%TO.P,J3,2,Pin_2*%
%TO.N,BARO_SCLK*%
X174000000Y-110760000D03*
%TO.P,J3,3,Pin_3*%
%TO.N,BARO_MOSI*%
X174000000Y-113300000D03*
%TO.P,J3,4,Pin_4*%
%TO.N,BARO_MISO*%
X174000000Y-115840000D03*
%TO.P,J3,5,Pin_5*%
%TO.N,BARO_CS_N*%
X174000000Y-118380000D03*
%TO.P,J3,6,Pin_6*%
%TO.N,LED_DEBUG_2*%
X174000000Y-120920000D03*
%TO.P,J3,7,Pin_7*%
%TO.N,GND*%
X174000000Y-123460000D03*
%TO.P,J3,8,Pin_8*%
X174000000Y-126000000D03*
%TD*%
D10*
%TO.P,J2,1,Pin_1*%
%TO.N,+3.3V*%
X126000000Y-107475000D03*
D11*
%TO.P,J2,2,Pin_2*%
%TO.N,IMU_CS_N*%
X126000000Y-110015000D03*
%TO.P,J2,3,Pin_3*%
%TO.N,IMU_SCLK*%
X126000000Y-112555000D03*
%TO.P,J2,4,Pin_4*%
%TO.N,IMU_MOSI*%
X126000000Y-115095000D03*
%TO.P,J2,5,Pin_5*%
%TO.N,IMU_MISO*%
X126000000Y-117635000D03*
%TO.P,J2,6,Pin_6*%
%TO.N,IMU_INT*%
X126000000Y-120175000D03*
%TO.P,J2,7,Pin_7*%
%TO.N,LED_DEBUG_1*%
X126000000Y-122715000D03*
%TO.P,J2,8,Pin_8*%
%TO.N,GND*%
X126000000Y-125255000D03*
%TD*%
D12*
%TO.P,H4,1*%
%TO.N,N/C*%
X119250000Y-98600000D03*
X119733274Y-97433274D03*
X119733274Y-99766726D03*
X120900000Y-96950000D03*
D13*
X120900000Y-98600000D03*
D12*
X120900000Y-100250000D03*
X122066726Y-97433274D03*
X122066726Y-99766726D03*
X122550000Y-98600000D03*
%TD*%
%TO.P,H3,1*%
%TO.N,N/C*%
X181550000Y-98500000D03*
X181066726Y-99666726D03*
X181066726Y-97333274D03*
X179900000Y-100150000D03*
D13*
X179900000Y-98500000D03*
D12*
X179900000Y-96850000D03*
X178733274Y-99666726D03*
X178733274Y-97333274D03*
X178250000Y-98500000D03*
%TD*%
%TO.P,H2,1*%
%TO.N,N/C*%
X119350000Y-133000000D03*
X119833274Y-131833274D03*
X119833274Y-134166726D03*
X121000000Y-131350000D03*
D13*
X121000000Y-133000000D03*
D12*
X121000000Y-134650000D03*
X122166726Y-131833274D03*
X122166726Y-134166726D03*
X122650000Y-133000000D03*
%TD*%
%TO.P,H1,1*%
%TO.N,N/C*%
X178183274Y-132833274D03*
X178666548Y-131666548D03*
X178666548Y-134000000D03*
X179833274Y-131183274D03*
D13*
X179833274Y-132833274D03*
D12*
X179833274Y-134483274D03*
X181000000Y-131666548D03*
X181000000Y-134000000D03*
X181483274Y-132833274D03*
%TD*%
D14*
%TO.N,GND*%
X153900000Y-113200000D03*
X155200000Y-118000000D03*
X159200000Y-121000000D03*
X171400000Y-123500000D03*
X167600000Y-108000000D03*
X161500000Y-106400000D03*
X152700000Y-109600000D03*
X133100000Y-107600000D03*
X134800000Y-113020000D03*
X139300000Y-111200000D03*
X140500000Y-111700000D03*
X143100000Y-117400000D03*
X138500000Y-117100000D03*
X136200000Y-120600000D03*
X135000000Y-124400000D03*
X129400000Y-125300000D03*
%TD*%
%TA.AperFunction,Conductor*%
%TO.N,GND*%
G36*
X174250000Y-125566988D02*
G01*
X174192993Y-125534075D01*
X174065826Y-125500000D01*
X173934174Y-125500000D01*
X173807007Y-125534075D01*
X173750000Y-125566988D01*
X173750000Y-123893012D01*
X173807007Y-123925925D01*
X173934174Y-123960000D01*
X174065826Y-123960000D01*
X174192993Y-123925925D01*
X174250000Y-123893012D01*
X174250000Y-125566988D01*
G37*
%TD.AperFunction*%
%TA.AperFunction,Conductor*%
G36*
X178840252Y-96020185D02*
G01*
X178886007Y-96072989D01*
X178895951Y-96142147D01*
X178866926Y-96205703D01*
X178832952Y-96233160D01*
X178578538Y-96373027D01*
X178557516Y-96384584D01*
X178557504Y-96384591D01*
X178302978Y-96569515D01*
X178302968Y-96569523D01*
X178073608Y-96784907D01*
X178073606Y-96784909D01*
X177873054Y-97027334D01*
X177873051Y-97027338D01*
X177704464Y-97292990D01*
X177704461Y-97292996D01*
X177570499Y-97577678D01*
X177570497Y-97577683D01*
X177473270Y-97876916D01*
X177414311Y-98185988D01*
X177414310Y-98185995D01*
X177394556Y-98499994D01*
X177394556Y-98500005D01*
X177414310Y-98814004D01*
X177414311Y-98814011D01*
X177473270Y-99123083D01*
X177570497Y-99422316D01*
X177570499Y-99422321D01*
X177704461Y-99707003D01*
X177704464Y-99707009D01*
X177873051Y-99972661D01*
X177873054Y-99972665D01*
X178073606Y-100215090D01*
X178073608Y-100215092D01*
X178302968Y-100430476D01*
X178302978Y-100430484D01*
X178557504Y-100615408D01*
X178557509Y-100615410D01*
X178557516Y-100615416D01*
X178833234Y-100766994D01*
X178833239Y-100766996D01*
X178833241Y-100766997D01*
X178833242Y-100766998D01*
X179125771Y-100882818D01*
X179125774Y-100882819D01*
X179430523Y-100961065D01*
X179430527Y-100961066D01*
X179496010Y-100969338D01*
X179742670Y-101000499D01*
X179742679Y-101000499D01*
X179742682Y-101000500D01*
X179742684Y-101000500D01*
X180057316Y-101000500D01*
X180057318Y-101000500D01*
X180057321Y-101000499D01*
X180057329Y-101000499D01*
X180243593Y-100976968D01*
X180369473Y-100961066D01*
X180674225Y-100882819D01*
X180674228Y-100882818D01*
X180966757Y-100766998D01*
X180966758Y-100766997D01*
X180966756Y-100766997D01*
X180966766Y-100766994D01*
X181242484Y-100615416D01*
X181497030Y-100430478D01*
X181726390Y-100215094D01*
X181926947Y-99972663D01*
X182095537Y-99707007D01*
X182229503Y-99422315D01*
X182257569Y-99335936D01*
X182297006Y-99278261D01*
X182361365Y-99251063D01*
X182430211Y-99262978D01*
X182481687Y-99310222D01*
X182499500Y-99374255D01*
X182499500Y-132164380D01*
X182479815Y-132231419D01*
X182427011Y-132277174D01*
X182357853Y-132287118D01*
X182294297Y-132258093D01*
X182257569Y-132202698D01*
X182216947Y-132077678D01*
X182162777Y-131910959D01*
X182028811Y-131626267D01*
X181860221Y-131360611D01*
X181797593Y-131284907D01*
X181659667Y-131118183D01*
X181659665Y-131118181D01*
X181430305Y-130902797D01*
X181430295Y-130902789D01*
X181175769Y-130717865D01*
X181175762Y-130717860D01*
X181175758Y-130717858D01*
X180900040Y-130566280D01*
X180900037Y-130566278D01*
X180900032Y-130566276D01*
X180900031Y-130566275D01*
X180607502Y-130450455D01*
X180607499Y-130450454D01*
X180302750Y-130372208D01*
X180302737Y-130372206D01*
X179990603Y-130332774D01*
X179990592Y-130332774D01*
X179675956Y-130332774D01*
X179675944Y-130332774D01*
X179363810Y-130372206D01*
X179363797Y-130372208D01*
X179059048Y-130450454D01*
X179059045Y-130450455D01*
X178766516Y-130566275D01*
X178766515Y-130566276D01*
X178490790Y-130717858D01*
X178490778Y-130717865D01*
X178236252Y-130902789D01*
X178236242Y-130902797D01*
X178006882Y-131118181D01*
X178006880Y-131118183D01*
X177806328Y-131360608D01*
X177806325Y-131360612D01*
X177637738Y-131626264D01*
X177637735Y-131626270D01*
X177503773Y-131910952D01*
X177503771Y-131910957D01*
X177406544Y-132210190D01*
X177347585Y-132519262D01*
X177347584Y-132519269D01*
X177327830Y-132833268D01*
X177327830Y-132833279D01*
X177347584Y-133147278D01*
X177347585Y-133147285D01*
X177347586Y-133147289D01*
X177391782Y-133378975D01*
X177406544Y-133456357D01*
X177503771Y-133755590D01*
X177503773Y-133755595D01*
X177637735Y-134040277D01*
X177637738Y-134040283D01*
X177806325Y-134305935D01*
X177806328Y-134305939D01*
X178006880Y-134548364D01*
X178006882Y-134548366D01*
X178006884Y-134548368D01*
X178216559Y-134745266D01*
X178236242Y-134763750D01*
X178236252Y-134763758D01*
X178490778Y-134948682D01*
X178490783Y-134948684D01*
X178490790Y-134948690D01*
X178766508Y-135100268D01*
X178766513Y-135100270D01*
X178766515Y-135100271D01*
X178766516Y-135100272D01*
X179059045Y-135216092D01*
X179059048Y-135216093D01*
X179212124Y-135255396D01*
X179272162Y-135291134D01*
X179303348Y-135353658D01*
X179295780Y-135423116D01*
X179251862Y-135477457D01*
X179185536Y-135499427D01*
X179181287Y-135499500D01*
X122126787Y-135499500D01*
X122059748Y-135479815D01*
X122013993Y-135427011D01*
X122004049Y-135357853D01*
X122033074Y-135294297D01*
X122067047Y-135266839D01*
X122342484Y-135115416D01*
X122597030Y-134930478D01*
X122826390Y-134715094D01*
X123026947Y-134472663D01*
X123195537Y-134207007D01*
X123329503Y-133922315D01*
X123426731Y-133623079D01*
X123485688Y-133314015D01*
X123485689Y-133314004D01*
X123505444Y-133000005D01*
X123505444Y-132999994D01*
X123485689Y-132685995D01*
X123485688Y-132685988D01*
X123485688Y-132685985D01*
X123426731Y-132376921D01*
X123329503Y-132077685D01*
X123195537Y-131792993D01*
X123026947Y-131527337D01*
X122889019Y-131360611D01*
X122826393Y-131284909D01*
X122826391Y-131284907D01*
X122648849Y-131118183D01*
X122597030Y-131069522D01*
X122597027Y-131069520D01*
X122597021Y-131069515D01*
X122342495Y-130884591D01*
X122342488Y-130884586D01*
X122342484Y-130884584D01*
X122066766Y-130733006D01*
X122066763Y-130733004D01*
X122066758Y-130733002D01*
X122066757Y-130733001D01*
X121774228Y-130617181D01*
X121774225Y-130617180D01*
X121469476Y-130538934D01*
X121469463Y-130538932D01*
X121157329Y-130499500D01*
X121157318Y-130499500D01*
X120842682Y-130499500D01*
X120842670Y-130499500D01*
X120530536Y-130538932D01*
X120530523Y-130538934D01*
X120225774Y-130617180D01*
X120225771Y-130617181D01*
X119933242Y-130733001D01*
X119933241Y-130733002D01*
X119657516Y-130884584D01*
X119657504Y-130884591D01*
X119402978Y-131069515D01*
X119402968Y-131069523D01*
X119173608Y-131284907D01*
X119173606Y-131284909D01*
X118973054Y-131527334D01*
X118973051Y-131527338D01*
X118804464Y-131792990D01*
X118804460Y-131792996D01*
X118736698Y-131936999D01*
X118690343Y-131989277D01*
X118623083Y-132008194D01*
X118556273Y-131987745D01*
X118511124Y-131934421D01*
X118500500Y-131884202D01*
X118500500Y-125004999D01*
X124669364Y-125004999D01*
X124669364Y-125005000D01*
X125566988Y-125005000D01*
X125534075Y-125062007D01*
X125500000Y-125189174D01*
X125500000Y-125320826D01*
X125534075Y-125447993D01*
X125566988Y-125505000D01*
X124669364Y-125505000D01*
X124726567Y-125718486D01*
X124726570Y-125718492D01*
X124826399Y-125932578D01*
X124961894Y-126126082D01*
X125128917Y-126293105D01*
X125322421Y-126428600D01*
X125536507Y-126528429D01*
X125536516Y-126528433D01*
X125750000Y-126585634D01*
X125750000Y-125688012D01*
X125807007Y-125720925D01*
X125934174Y-125755000D01*
X126065826Y-125755000D01*
X126192993Y-125720925D01*
X126250000Y-125688012D01*
X126250000Y-126585633D01*
X126463483Y-126528433D01*
X126463492Y-126528429D01*
X126677578Y-126428600D01*
X126871082Y-126293105D01*
X127038105Y-126126082D01*
X127173600Y-125932578D01*
X127273429Y-125718492D01*
X127273432Y-125718486D01*
X127330636Y-125505000D01*
X126433012Y-125505000D01*
X126465925Y-125447993D01*
X126500000Y-125320826D01*
X126500000Y-125189174D01*
X126465925Y-125062007D01*
X126433012Y-125005000D01*
X127330636Y-125005000D01*
X127330635Y-125004999D01*
X127273432Y-124791513D01*
X127273429Y-124791507D01*
X127173600Y-124577422D01*
X127173599Y-124577420D01*
X127038113Y-124383926D01*
X127038108Y-124383920D01*
X126871082Y-124216894D01*
X126677578Y-124081399D01*
X126478426Y-123988533D01*
X126425987Y-123942360D01*
X126406835Y-123875167D01*
X126427051Y-123808286D01*
X126480216Y-123762951D01*
X126486005Y-123760537D01*
X126515019Y-123749298D01*
X126696302Y-123637052D01*
X126853872Y-123493407D01*
X126982366Y-123323255D01*
X127038760Y-123210000D01*
X127038760Y-123209999D01*
X172669364Y-123209999D01*
X172669364Y-123210000D01*
X173566988Y-123210000D01*
X173534075Y-123267007D01*
X173500000Y-123394174D01*
X173500000Y-123525826D01*
X173534075Y-123652993D01*
X173566988Y-123710000D01*
X172669364Y-123710000D01*
X172726567Y-123923486D01*
X172726570Y-123923492D01*
X172826399Y-124137578D01*
X172961894Y-124331082D01*
X173128917Y-124498105D01*
X173315031Y-124628425D01*
X173358656Y-124683003D01*
X173365848Y-124752501D01*
X173334326Y-124814856D01*
X173315031Y-124831575D01*
X173128922Y-124961890D01*
X173128920Y-124961891D01*
X172961891Y-125128920D01*
X172961886Y-125128926D01*
X172826400Y-125322420D01*
X172826399Y-125322422D01*
X172726570Y-125536507D01*
X172726567Y-125536513D01*
X172669364Y-125749999D01*
X172669364Y-125750000D01*
X173566988Y-125750000D01*
X173534075Y-125807007D01*
X173500000Y-125934174D01*
X173500000Y-126065826D01*
X173534075Y-126192993D01*
X173566988Y-126250000D01*
X172669364Y-126250000D01*
X172726567Y-126463486D01*
X172726570Y-126463492D01*
X172826399Y-126677578D01*
X172961894Y-126871082D01*
X173128917Y-127038105D01*
X173322421Y-127173600D01*
X173536507Y-127273429D01*
X173536516Y-127273433D01*
X173750000Y-127330634D01*
X173750000Y-126433012D01*
X173807007Y-126465925D01*
X173934174Y-126500000D01*
X174065826Y-126500000D01*
X174192993Y-126465925D01*
X174250000Y-126433012D01*
X174250000Y-127330633D01*
X174463483Y-127273433D01*
X174463492Y-127273429D01*
X174677578Y-127173600D01*
X174871082Y-127038105D01*
X175038105Y-126871082D01*
X175173600Y-126677578D01*
X175273429Y-126463492D01*
X175273432Y-126463486D01*
X175330636Y-126250000D01*
X174433012Y-126250000D01*
X174465925Y-126192993D01*
X174500000Y-126065826D01*
X174500000Y-125934174D01*
X174465925Y-125807007D01*
X174433012Y-125750000D01*
X175330636Y-125750000D01*
X175330635Y-125749999D01*
X175273432Y-125536513D01*
X175273429Y-125536507D01*
X175173600Y-125322422D01*
X175173599Y-125322420D01*
X175038113Y-125128926D01*
X175038108Y-125128920D01*
X174871082Y-124961894D01*
X174684968Y-124831575D01*
X174641344Y-124776998D01*
X174634151Y-124707499D01*
X174665673Y-124645145D01*
X174684968Y-124628425D01*
X174871082Y-124498105D01*
X175038105Y-124331082D01*
X175173600Y-124137578D01*
X175273429Y-123923492D01*
X175273432Y-123923486D01*
X175330636Y-123710000D01*
X174433012Y-123710000D01*
X174465925Y-123652993D01*
X174500000Y-123525826D01*
X174500000Y-123394174D01*
X174465925Y-123267007D01*
X174433012Y-123210000D01*
X175330636Y-123210000D01*
X175330635Y-123209999D01*
X175273432Y-122996513D01*
X175273429Y-122996507D01*
X175173600Y-122782422D01*
X175173599Y-122782420D01*
X175038113Y-122588926D01*
X175038108Y-122588920D01*
X174871082Y-122421894D01*
X174677578Y-122286399D01*
X174478426Y-122193533D01*
X174425987Y-122147360D01*
X174406835Y-122080167D01*
X174427051Y-122013286D01*
X174480216Y-121967951D01*
X174486005Y-121965537D01*
X174515019Y-121954298D01*
X174696302Y-121842052D01*
X174853872Y-121698407D01*
X174982366Y-121528255D01*
X175003954Y-121484900D01*
X175077403Y-121337394D01*
X175077403Y-121337393D01*
X175077405Y-121337389D01*
X175135756Y-121132310D01*
X175155429Y-120920000D01*
X175135756Y-120707690D01*
X175077405Y-120502611D01*
X175077403Y-120502606D01*
X175077403Y-120502605D01*
X174982367Y-120311746D01*
X174853872Y-120141593D01*
X174696302Y-119997948D01*
X174515019Y-119885702D01*
X174515017Y-119885701D01*
X174415608Y-119847190D01*
X174316198Y-119808679D01*
X174119385Y-119771888D01*
X174057106Y-119740221D01*
X174021833Y-119679908D01*
X174024767Y-119610100D01*
X174064976Y-119552960D01*
X174119384Y-119528111D01*
X174316198Y-119491321D01*
X174515019Y-119414298D01*
X174696302Y-119302052D01*
X174853872Y-119158407D01*
X174982366Y-118988255D01*
X175003954Y-118944900D01*
X175077403Y-118797394D01*
X175077403Y-118797393D01*
X175077405Y-118797389D01*
X175135756Y-118592310D01*
X175155429Y-118380000D01*
X175135756Y-118167690D01*
X175077405Y-117962611D01*
X175077403Y-117962606D01*
X175077403Y-117962605D01*
X174982367Y-117771746D01*
X174853872Y-117601593D01*
X174696302Y-117457948D01*
X174515019Y-117345702D01*
X174515017Y-117345701D01*
X174415608Y-117307190D01*
X174316198Y-117268679D01*
X174119385Y-117231888D01*
X174057106Y-117200221D01*
X174021833Y-117139908D01*
X174024767Y-117070100D01*
X174064976Y-117012960D01*
X174119384Y-116988111D01*
X174316198Y-116951321D01*
X174515019Y-116874298D01*
X174696302Y-116762052D01*
X174853872Y-116618407D01*
X174982366Y-116448255D01*
X175003954Y-116404900D01*
X175077403Y-116257394D01*
X175077403Y-116257393D01*
X175077405Y-116257389D01*
X175135756Y-116052310D01*
X175155429Y-115840000D01*
X175135756Y-115627690D01*
X175077405Y-115422611D01*
X175077403Y-115422606D01*
X175077403Y-115422605D01*
X174982367Y-115231746D01*
X174853872Y-115061593D01*
X174764686Y-114980289D01*
X174696302Y-114917948D01*
X174515019Y-114805702D01*
X174515017Y-114805701D01*
X174415608Y-114767190D01*
X174316198Y-114728679D01*
X174119385Y-114691888D01*
X174057106Y-114660221D01*
X174021833Y-114599908D01*
X174024767Y-114530100D01*
X174064976Y-114472960D01*
X174119384Y-114448111D01*
X174316198Y-114411321D01*
X174515019Y-114334298D01*
X174696302Y-114222052D01*
X174853872Y-114078407D01*
X174982366Y-113908255D01*
X175003954Y-113864900D01*
X175077403Y-113717394D01*
X175077403Y-113717393D01*
X175077405Y-113717389D01*
X175135756Y-113512310D01*
X175155429Y-113300000D01*
X175135756Y-113087690D01*
X175077405Y-112882611D01*
X175077403Y-112882606D01*
X175077403Y-112882605D01*
X174982367Y-112691746D01*
X174853872Y-112521593D01*
X174696302Y-112377948D01*
X174515019Y-112265702D01*
X174515017Y-112265701D01*
X174415608Y-112227190D01*
X174316198Y-112188679D01*
X174119385Y-112151888D01*
X174057106Y-112120221D01*
X174021833Y-112059908D01*
X174024767Y-111990100D01*
X174064976Y-111932960D01*
X174119384Y-111908111D01*
X174316198Y-111871321D01*
X174515019Y-111794298D01*
X174696302Y-111682052D01*
X174853872Y-111538407D01*
X174982366Y-111368255D01*
X175003954Y-111324900D01*
X175077403Y-111177394D01*
X175077403Y-111177393D01*
X175077405Y-111177389D01*
X175135756Y-110972310D01*
X175155429Y-110760000D01*
X175135756Y-110547690D01*
X175077405Y-110342611D01*
X175077403Y-110342606D01*
X175077403Y-110342605D01*
X174982367Y-110151746D01*
X174853872Y-109981593D01*
X174696302Y-109837948D01*
X174515019Y-109725702D01*
X174515017Y-109725701D01*
X174415608Y-109687190D01*
X174316198Y-109648679D01*
X174143456Y-109616387D01*
X174081176Y-109584719D01*
X174045903Y-109524407D01*
X174048837Y-109454599D01*
X174089046Y-109397459D01*
X174153764Y-109371128D01*
X174166233Y-109370499D01*
X174894864Y-109370499D01*
X174894879Y-109370497D01*
X174894882Y-109370497D01*
X174919987Y-109367586D01*
X174919988Y-109367585D01*
X174919991Y-109367585D01*
X175022765Y-109322206D01*
X175102206Y-109242765D01*
X175147585Y-109139991D01*
X175150500Y-109114865D01*
X175150499Y-107325136D01*
X175150497Y-107325117D01*
X175147586Y-107300012D01*
X175147585Y-107300010D01*
X175147585Y-107300009D01*
X175102206Y-107197235D01*
X175022765Y-107117794D01*
X175022763Y-107117793D01*
X174919992Y-107072415D01*
X174894865Y-107069500D01*
X173105143Y-107069500D01*
X173105117Y-107069502D01*
X173080012Y-107072413D01*
X173080008Y-107072415D01*
X172977235Y-107117793D01*
X172897794Y-107197234D01*
X172852415Y-107300006D01*
X172852415Y-107300008D01*
X172849500Y-107325131D01*
X172849500Y-109114856D01*
X172849502Y-109114882D01*
X172852413Y-109139987D01*
X172852415Y-109139991D01*
X172897793Y-109242764D01*
X172897794Y-109242765D01*
X172977235Y-109322206D01*
X173080009Y-109367585D01*
X173105135Y-109370500D01*
X173833758Y-109370499D01*
X173900795Y-109390183D01*
X173946550Y-109442987D01*
X173956494Y-109512146D01*
X173927469Y-109575702D01*
X173868691Y-109613476D01*
X173856542Y-109616388D01*
X173800116Y-109626935D01*
X173683802Y-109648679D01*
X173683800Y-109648679D01*
X173683798Y-109648680D01*
X173484982Y-109725701D01*
X173484980Y-109725702D01*
X173303699Y-109837947D01*
X173146127Y-109981593D01*
X173017632Y-110151746D01*
X172922596Y-110342605D01*
X172922596Y-110342607D01*
X172897050Y-110432392D01*
X172864244Y-110547690D01*
X172844571Y-110760000D01*
X172864244Y-110972310D01*
X172918532Y-111163111D01*
X172922596Y-111177392D01*
X172922596Y-111177394D01*
X173017632Y-111368253D01*
X173146127Y-111538406D01*
X173146128Y-111538407D01*
X173303698Y-111682052D01*
X173484981Y-111794298D01*
X173683802Y-111871321D01*
X173880613Y-111908111D01*
X173942893Y-111939779D01*
X173978166Y-112000092D01*
X173975232Y-112069900D01*
X173935023Y-112127040D01*
X173880613Y-112151888D01*
X173683802Y-112188679D01*
X173683799Y-112188679D01*
X173683799Y-112188680D01*
X173484982Y-112265701D01*
X173484980Y-112265702D01*
X173303699Y-112377947D01*
X173146127Y-112521593D01*
X173017632Y-112691746D01*
X172922596Y-112882605D01*
X172922596Y-112882607D01*
X172864244Y-113087689D01*
X172846193Y-113282500D01*
X172844571Y-113300000D01*
X172864244Y-113512310D01*
X172918532Y-113703111D01*
X172922596Y-113717392D01*
X172922596Y-113717394D01*
X173017632Y-113908253D01*
X173146127Y-114078406D01*
X173146128Y-114078407D01*
X173303698Y-114222052D01*
X173484981Y-114334298D01*
X173683802Y-114411321D01*
X173880613Y-114448111D01*
X173942893Y-114479779D01*
X173978166Y-114540092D01*
X173975232Y-114609900D01*
X173935023Y-114667040D01*
X173880613Y-114691888D01*
X173683802Y-114728679D01*
X173683799Y-114728679D01*
X173683799Y-114728680D01*
X173484982Y-114805701D01*
X173484980Y-114805702D01*
X173303699Y-114917947D01*
X173146127Y-115061593D01*
X173017632Y-115231746D01*
X172922596Y-115422605D01*
X172922596Y-115422607D01*
X172897050Y-115512392D01*
X172864244Y-115627690D01*
X172844571Y-115840000D01*
X172864244Y-116052310D01*
X172918532Y-116243111D01*
X172922596Y-116257392D01*
X172922596Y-116257394D01*
X173017632Y-116448253D01*
X173146127Y-116618406D01*
X173146128Y-116618407D01*
X173303698Y-116762052D01*
X173484981Y-116874298D01*
X173683802Y-116951321D01*
X173880613Y-116988111D01*
X173942893Y-117019779D01*
X173978166Y-117080092D01*
X173975232Y-117149900D01*
X173935023Y-117207040D01*
X173880613Y-117231888D01*
X173683802Y-117268679D01*
X173683799Y-117268679D01*
X173683799Y-117268680D01*
X173484982Y-117345701D01*
X173484980Y-117345702D01*
X173303699Y-117457947D01*
X173146127Y-117601593D01*
X173017632Y-117771746D01*
X172922596Y-117962605D01*
X172922596Y-117962607D01*
X172897050Y-118052392D01*
X172864244Y-118167690D01*
X172844571Y-118380000D01*
X172864244Y-118592310D01*
X172918532Y-118783111D01*
X172922596Y-118797392D01*
X172922596Y-118797394D01*
X173017632Y-118988253D01*
X173146127Y-119158406D01*
X173146128Y-119158407D01*
X173303698Y-119302052D01*
X173484981Y-119414298D01*
X173683802Y-119491321D01*
X173880613Y-119528111D01*
X173942893Y-119559779D01*
X173978166Y-119620092D01*
X173975232Y-119689900D01*
X173935023Y-119747040D01*
X173880613Y-119771888D01*
X173683802Y-119808679D01*
X173683799Y-119808679D01*
X173683799Y-119808680D01*
X173484982Y-119885701D01*
X173484980Y-119885702D01*
X173303699Y-119997947D01*
X173146127Y-120141593D01*
X173017632Y-120311746D01*
X172922596Y-120502605D01*
X172922596Y-120502607D01*
X172897050Y-120592392D01*
X172864244Y-120707690D01*
X172844571Y-120920000D01*
X172864244Y-121132310D01*
X172918532Y-121323111D01*
X172922596Y-121337392D01*
X172922596Y-121337394D01*
X173017632Y-121528253D01*
X173146127Y-121698406D01*
X173146128Y-121698407D01*
X173303698Y-121842052D01*
X173484981Y-121954298D01*
X173513961Y-121965525D01*
X173569362Y-122008095D01*
X173592954Y-122073861D01*
X173577244Y-122141942D01*
X173527222Y-122190722D01*
X173521573Y-122193533D01*
X173322422Y-122286399D01*
X173322420Y-122286400D01*
X173128926Y-122421886D01*
X173128920Y-122421891D01*
X172961891Y-122588920D01*
X172961886Y-122588926D01*
X172826400Y-122782420D01*
X172826399Y-122782422D01*
X172726570Y-122996507D01*
X172726567Y-122996513D01*
X172669364Y-123209999D01*
X127038760Y-123209999D01*
X127077403Y-123132394D01*
X127077403Y-123132393D01*
X127077405Y-123132389D01*
X127135756Y-122927310D01*
X127155429Y-122715000D01*
X127135756Y-122502690D01*
X127077405Y-122297611D01*
X127077403Y-122297606D01*
X127077403Y-122297605D01*
X126982367Y-122106746D01*
X126853872Y-121936593D01*
X126750166Y-121842052D01*
X126696302Y-121792948D01*
X126515019Y-121680702D01*
X126515017Y-121680701D01*
X126415608Y-121642190D01*
X126316198Y-121603679D01*
X126119385Y-121566888D01*
X126057106Y-121535221D01*
X126021833Y-121474908D01*
X126024767Y-121405100D01*
X126064976Y-121347960D01*
X126119384Y-121323111D01*
X126316198Y-121286321D01*
X126515019Y-121209298D01*
X126696302Y-121097052D01*
X126853872Y-120953407D01*
X126982366Y-120783255D01*
X127077405Y-120592389D01*
X127135756Y-120387310D01*
X127155429Y-120175000D01*
X127135756Y-119962690D01*
X127077405Y-119757611D01*
X127077403Y-119757606D01*
X127077403Y-119757605D01*
X126982367Y-119566746D01*
X126853872Y-119396593D01*
X126750166Y-119302052D01*
X126696302Y-119252948D01*
X126515019Y-119140702D01*
X126515017Y-119140701D01*
X126415608Y-119102190D01*
X126316198Y-119063679D01*
X126119385Y-119026888D01*
X126057106Y-118995221D01*
X126021833Y-118934908D01*
X126024767Y-118865100D01*
X126064976Y-118807960D01*
X126119384Y-118783111D01*
X126316198Y-118746321D01*
X126515019Y-118669298D01*
X126696302Y-118557052D01*
X126853872Y-118413407D01*
X126982366Y-118243255D01*
X127077405Y-118052389D01*
X127135756Y-117847310D01*
X127155429Y-117635000D01*
X127135756Y-117422690D01*
X127077405Y-117217611D01*
X127077403Y-117217606D01*
X127077403Y-117217605D01*
X126982367Y-117026746D01*
X126853872Y-116856593D01*
X126750166Y-116762052D01*
X126696302Y-116712948D01*
X126515019Y-116600702D01*
X126515017Y-116600701D01*
X126415608Y-116562190D01*
X126316198Y-116523679D01*
X126119385Y-116486888D01*
X126057106Y-116455221D01*
X126021833Y-116394908D01*
X126024767Y-116325100D01*
X126064976Y-116267960D01*
X126119384Y-116243111D01*
X126316198Y-116206321D01*
X126515019Y-116129298D01*
X126696302Y-116017052D01*
X126853872Y-115873407D01*
X126922522Y-115782500D01*
X156821660Y-115782500D01*
X156821660Y-116160060D01*
X158200688Y-116160060D01*
X158267727Y-116179745D01*
X158313482Y-116232549D01*
X158324688Y-116284060D01*
X158324688Y-116655120D01*
X159081000Y-116655120D01*
X159081000Y-116284060D01*
X159100685Y-116217021D01*
X159153489Y-116171266D01*
X159205000Y-116160060D01*
X160575000Y-116160060D01*
X160575000Y-115782500D01*
X159205000Y-115782500D01*
X159137961Y-115762815D01*
X159092206Y-115710011D01*
X159081000Y-115658500D01*
X159081000Y-115031800D01*
X159100685Y-114964761D01*
X159153489Y-114919006D01*
X159205000Y-114907800D01*
X160575000Y-114907800D01*
X160575000Y-114532500D01*
X159205000Y-114532500D01*
X159137961Y-114512815D01*
X159092206Y-114460011D01*
X159081000Y-114408500D01*
X159081000Y-113779820D01*
X159100685Y-113712781D01*
X159153489Y-113667026D01*
X159205000Y-113655820D01*
X160575000Y-113655820D01*
X160575000Y-113282500D01*
X159205000Y-113282500D01*
X159137961Y-113262815D01*
X159092206Y-113210011D01*
X159081000Y-113158500D01*
X159081000Y-112815000D01*
X158324688Y-112815000D01*
X158324688Y-113158500D01*
X158305003Y-113225539D01*
X158252199Y-113271294D01*
X158200688Y-113282500D01*
X156822040Y-113282500D01*
X156822040Y-113655820D01*
X158200688Y-113655820D01*
X158267727Y-113675505D01*
X158313482Y-113728309D01*
X158324688Y-113779820D01*
X158324688Y-114408500D01*
X158305003Y-114475539D01*
X158252199Y-114521294D01*
X158200688Y-114532500D01*
X156821990Y-114532500D01*
X156821990Y-114907800D01*
X158200688Y-114907800D01*
X158267727Y-114927485D01*
X158313482Y-114980289D01*
X158324688Y-115031800D01*
X158324688Y-115658500D01*
X158305003Y-115725539D01*
X158252199Y-115771294D01*
X158200688Y-115782500D01*
X156821660Y-115782500D01*
X126922522Y-115782500D01*
X126982366Y-115703255D01*
X127077405Y-115512389D01*
X127135756Y-115307310D01*
X127155429Y-115095000D01*
X127135756Y-114882690D01*
X127077405Y-114677611D01*
X127077403Y-114677606D01*
X127077403Y-114677605D01*
X126982367Y-114486746D01*
X126853872Y-114316593D01*
X126750166Y-114222052D01*
X126696302Y-114172948D01*
X126515019Y-114060702D01*
X126515017Y-114060701D01*
X126415608Y-114022190D01*
X126316198Y-113983679D01*
X126119385Y-113946888D01*
X126057106Y-113915221D01*
X126021833Y-113854908D01*
X126024767Y-113785100D01*
X126064976Y-113727960D01*
X126119384Y-113703111D01*
X126316198Y-113666321D01*
X126515019Y-113589298D01*
X126696302Y-113477052D01*
X126853872Y-113333407D01*
X126982366Y-113163255D01*
X127077405Y-112972389D01*
X127135756Y-112767310D01*
X127155429Y-112555000D01*
X127135756Y-112342690D01*
X127077405Y-112137611D01*
X127077403Y-112137606D01*
X127077403Y-112137605D01*
X126982367Y-111946746D01*
X126853872Y-111776593D01*
X126750166Y-111682052D01*
X126696302Y-111632948D01*
X126515019Y-111520702D01*
X126515017Y-111520701D01*
X126415608Y-111482190D01*
X126316198Y-111443679D01*
X126119385Y-111406888D01*
X126057106Y-111375221D01*
X126021833Y-111314908D01*
X126024767Y-111245100D01*
X126064976Y-111187960D01*
X126119384Y-111163111D01*
X126316198Y-111126321D01*
X126515019Y-111049298D01*
X126696302Y-110937052D01*
X126853872Y-110793407D01*
X126982366Y-110623255D01*
X127077405Y-110432389D01*
X127135756Y-110227310D01*
X127155429Y-110015000D01*
X127135756Y-109802690D01*
X127077405Y-109597611D01*
X127077403Y-109597606D01*
X127077403Y-109597605D01*
X126982367Y-109406746D01*
X126853872Y-109236593D01*
X126696302Y-109092948D01*
X126515019Y-108980702D01*
X126515017Y-108980701D01*
X126415608Y-108942190D01*
X126316198Y-108903679D01*
X126143456Y-108871387D01*
X126081176Y-108839719D01*
X126045903Y-108779407D01*
X126048837Y-108709599D01*
X126089046Y-108652459D01*
X126153764Y-108626128D01*
X126166233Y-108625499D01*
X126894864Y-108625499D01*
X126894879Y-108625497D01*
X126894882Y-108625497D01*
X126919987Y-108622586D01*
X126919988Y-108622585D01*
X126919991Y-108622585D01*
X127022765Y-108577206D01*
X127102206Y-108497765D01*
X127147585Y-108394991D01*
X127150500Y-108369865D01*
X127150499Y-106580136D01*
X127150497Y-106580117D01*
X127147586Y-106555012D01*
X127147585Y-106555010D01*
X127147585Y-106555009D01*
X127102206Y-106452235D01*
X127022765Y-106372794D01*
X127022763Y-106372793D01*
X126919992Y-106327415D01*
X126894865Y-106324500D01*
X125105143Y-106324500D01*
X125105117Y-106324502D01*
X125080012Y-106327413D01*
X125080008Y-106327415D01*
X124977235Y-106372793D01*
X124897794Y-106452234D01*
X124852415Y-106555006D01*
X124852415Y-106555008D01*
X124849500Y-106580131D01*
X124849500Y-108369856D01*
X124849502Y-108369882D01*
X124852413Y-108394987D01*
X124852415Y-108394991D01*
X124897793Y-108497764D01*
X124897794Y-108497765D01*
X124977235Y-108577206D01*
X125080009Y-108622585D01*
X125105135Y-108625500D01*
X125833758Y-108625499D01*
X125900795Y-108645183D01*
X125946550Y-108697987D01*
X125956494Y-108767146D01*
X125927469Y-108830702D01*
X125868691Y-108868476D01*
X125856542Y-108871388D01*
X125800116Y-108881935D01*
X125683802Y-108903679D01*
X125683800Y-108903679D01*
X125683798Y-108903680D01*
X125484982Y-108980701D01*
X125484980Y-108980702D01*
X125303699Y-109092947D01*
X125146127Y-109236593D01*
X125017632Y-109406746D01*
X124922596Y-109597605D01*
X124922596Y-109597607D01*
X124864244Y-109802689D01*
X124844571Y-110014999D01*
X124844571Y-110015000D01*
X124864244Y-110227310D01*
X124922596Y-110432392D01*
X124922596Y-110432394D01*
X125017632Y-110623253D01*
X125017634Y-110623255D01*
X125146128Y-110793407D01*
X125303698Y-110937052D01*
X125484981Y-111049298D01*
X125683802Y-111126321D01*
X125880613Y-111163111D01*
X125942893Y-111194779D01*
X125978166Y-111255092D01*
X125975232Y-111324900D01*
X125935023Y-111382040D01*
X125880613Y-111406888D01*
X125683802Y-111443679D01*
X125683799Y-111443679D01*
X125683799Y-111443680D01*
X125484982Y-111520701D01*
X125484980Y-111520702D01*
X125303699Y-111632947D01*
X125146127Y-111776593D01*
X125017632Y-111946746D01*
X124922596Y-112137605D01*
X124922596Y-112137607D01*
X124864244Y-112342689D01*
X124844571Y-112554999D01*
X124844571Y-112555000D01*
X124864244Y-112767310D01*
X124922596Y-112972392D01*
X124922596Y-112972394D01*
X125017632Y-113163253D01*
X125064669Y-113225539D01*
X125146128Y-113333407D01*
X125303698Y-113477052D01*
X125484981Y-113589298D01*
X125683802Y-113666321D01*
X125880613Y-113703111D01*
X125942893Y-113734779D01*
X125978166Y-113795092D01*
X125975232Y-113864900D01*
X125935023Y-113922040D01*
X125880613Y-113946888D01*
X125683802Y-113983679D01*
X125683799Y-113983679D01*
X125683799Y-113983680D01*
X125484982Y-114060701D01*
X125484980Y-114060702D01*
X125303699Y-114172947D01*
X125146127Y-114316593D01*
X125017632Y-114486746D01*
X124922596Y-114677605D01*
X124922596Y-114677607D01*
X124864244Y-114882689D01*
X124844571Y-115094999D01*
X124844571Y-115095000D01*
X124864244Y-115307310D01*
X124922596Y-115512392D01*
X124922596Y-115512394D01*
X125017632Y-115703253D01*
X125120899Y-115839999D01*
X125146128Y-115873407D01*
X125303698Y-116017052D01*
X125484981Y-116129298D01*
X125683802Y-116206321D01*
X125880613Y-116243111D01*
X125942893Y-116274779D01*
X125978166Y-116335092D01*
X125975232Y-116404900D01*
X125935023Y-116462040D01*
X125880613Y-116486888D01*
X125683802Y-116523679D01*
X125683799Y-116523679D01*
X125683799Y-116523680D01*
X125484982Y-116600701D01*
X125484980Y-116600702D01*
X125303699Y-116712947D01*
X125146127Y-116856593D01*
X125017632Y-117026746D01*
X124922596Y-117217605D01*
X124922596Y-117217607D01*
X124864244Y-117422689D01*
X124844571Y-117634999D01*
X124844571Y-117635000D01*
X124864244Y-117847310D01*
X124922596Y-118052392D01*
X124922596Y-118052394D01*
X125017632Y-118243253D01*
X125017634Y-118243255D01*
X125146128Y-118413407D01*
X125303698Y-118557052D01*
X125484981Y-118669298D01*
X125683802Y-118746321D01*
X125880613Y-118783111D01*
X125942893Y-118814779D01*
X125978166Y-118875092D01*
X125975232Y-118944900D01*
X125935023Y-119002040D01*
X125880613Y-119026888D01*
X125683802Y-119063679D01*
X125683799Y-119063679D01*
X125683799Y-119063680D01*
X125484982Y-119140701D01*
X125484980Y-119140702D01*
X125303699Y-119252947D01*
X125146127Y-119396593D01*
X125017632Y-119566746D01*
X124922596Y-119757605D01*
X124922596Y-119757607D01*
X124864244Y-119962689D01*
X124844571Y-120174999D01*
X124844571Y-120175000D01*
X124864244Y-120387310D01*
X124922596Y-120592392D01*
X124922596Y-120592394D01*
X125017632Y-120783253D01*
X125017634Y-120783255D01*
X125146128Y-120953407D01*
X125303698Y-121097052D01*
X125484981Y-121209298D01*
X125683802Y-121286321D01*
X125880613Y-121323111D01*
X125942893Y-121354779D01*
X125978166Y-121415092D01*
X125975232Y-121484900D01*
X125935023Y-121542040D01*
X125880613Y-121566888D01*
X125683802Y-121603679D01*
X125683799Y-121603679D01*
X125683799Y-121603680D01*
X125484982Y-121680701D01*
X125484980Y-121680702D01*
X125303699Y-121792947D01*
X125146127Y-121936593D01*
X125017632Y-122106746D01*
X124922596Y-122297605D01*
X124922596Y-122297607D01*
X124864244Y-122502689D01*
X124844571Y-122714999D01*
X124844571Y-122715000D01*
X124864244Y-122927310D01*
X124922596Y-123132392D01*
X124922596Y-123132394D01*
X125017632Y-123323253D01*
X125017634Y-123323255D01*
X125146128Y-123493407D01*
X125303698Y-123637052D01*
X125484981Y-123749298D01*
X125513961Y-123760525D01*
X125569362Y-123803095D01*
X125592954Y-123868861D01*
X125577244Y-123936942D01*
X125527222Y-123985722D01*
X125521573Y-123988533D01*
X125322422Y-124081399D01*
X125322420Y-124081400D01*
X125128926Y-124216886D01*
X125128920Y-124216891D01*
X124961891Y-124383920D01*
X124961886Y-124383926D01*
X124826400Y-124577420D01*
X124826399Y-124577422D01*
X124726570Y-124791507D01*
X124726567Y-124791513D01*
X124669364Y-125004999D01*
X118500500Y-125004999D01*
X118500500Y-99912423D01*
X118520185Y-99845384D01*
X118572989Y-99799629D01*
X118642147Y-99789685D01*
X118705703Y-99818710D01*
X118729197Y-99845981D01*
X118873051Y-100072661D01*
X118873054Y-100072665D01*
X119073606Y-100315090D01*
X119073608Y-100315092D01*
X119302968Y-100530476D01*
X119302978Y-100530484D01*
X119557504Y-100715408D01*
X119557509Y-100715410D01*
X119557516Y-100715416D01*
X119833234Y-100866994D01*
X119833239Y-100866996D01*
X119833241Y-100866997D01*
X119833242Y-100866998D01*
X120125771Y-100982818D01*
X120125774Y-100982819D01*
X120430523Y-101061065D01*
X120430527Y-101061066D01*
X120496010Y-101069338D01*
X120742670Y-101100499D01*
X120742679Y-101100499D01*
X120742682Y-101100500D01*
X120742684Y-101100500D01*
X121057316Y-101100500D01*
X121057318Y-101100500D01*
X121057321Y-101100499D01*
X121057329Y-101100499D01*
X121243593Y-101076968D01*
X121369473Y-101061066D01*
X121674225Y-100982819D01*
X121674228Y-100982818D01*
X121966757Y-100866998D01*
X121966758Y-100866997D01*
X121966756Y-100866997D01*
X121966766Y-100866994D01*
X122242484Y-100715416D01*
X122497030Y-100530478D01*
X122726390Y-100315094D01*
X122926947Y-100072663D01*
X123095537Y-99807007D01*
X123229503Y-99522315D01*
X123326731Y-99223079D01*
X123385688Y-98914015D01*
X123385689Y-98914004D01*
X123405444Y-98600005D01*
X123405444Y-98599994D01*
X123385689Y-98285995D01*
X123385688Y-98285988D01*
X123385688Y-98285985D01*
X123326731Y-97976921D01*
X123229503Y-97677685D01*
X123223092Y-97664062D01*
X123095538Y-97392996D01*
X123095537Y-97392993D01*
X123032073Y-97292990D01*
X122926948Y-97127338D01*
X122926945Y-97127334D01*
X122726393Y-96884909D01*
X122726391Y-96884907D01*
X122718062Y-96877085D01*
X122497030Y-96669522D01*
X122497027Y-96669520D01*
X122497021Y-96669515D01*
X122242495Y-96484591D01*
X122242488Y-96484586D01*
X122242484Y-96484584D01*
X121966766Y-96333006D01*
X121966763Y-96333004D01*
X121966758Y-96333002D01*
X121966757Y-96333001D01*
X121731336Y-96239792D01*
X121676250Y-96196811D01*
X121653147Y-96130872D01*
X121669360Y-96062909D01*
X121719744Y-96014502D01*
X121776983Y-96000500D01*
X178773213Y-96000500D01*
X178840252Y-96020185D01*
G37*
%TD.AperFunction*%
%TD*%
M02*
