%TF.GenerationSoftware,KiCad,Pcbnew,8.0.9-8.0.9-0~ubuntu24.04.1*%
%TF.CreationDate,2026-08-08T03:17:24+02:00*%
%TF.ProjectId,breakout_board_imu,62726561-6b6f-4757-945f-626f6172645f,rev?*%
%TF.SameCoordinates,Original*%
%TF.FileFunction,Soldermask,Bot*%
%TF.FilePolarity,Negative*%
%FSLAX46Y46*%
G04 Gerber Fmt 4.6, Leading zero omitted, Abs format (unit mm)*
G04 Created by KiCad (PCBNEW 8.0.9-8.0.9-0~ubuntu24.04.1) date 2026-08-08 03:17:24*
%MOMM*%
%LPD*%
G01*
G04 APERTURE LIST*
%ADD10R,1.700000X1.700000*%
%ADD11O,1.700000X1.700000*%
%ADD12C,0.700000*%
%ADD13C,4.400000*%
G04 APERTURE END LIST*
D10*
%TO.C,J3*%
X174000000Y-108220000D03*
D11*
X174000000Y-110760000D03*
X174000000Y-113300000D03*
X174000000Y-115840000D03*
X174000000Y-118380000D03*
X174000000Y-120920000D03*
X174000000Y-123460000D03*
X174000000Y-126000000D03*
%TD*%
D10*
%TO.C,J2*%
X126000000Y-107475000D03*
D11*
X126000000Y-110015000D03*
X126000000Y-112555000D03*
X126000000Y-115095000D03*
X126000000Y-117635000D03*
X126000000Y-120175000D03*
X126000000Y-122715000D03*
X126000000Y-125255000D03*
%TD*%
D12*
%TO.C,H4*%
X119250000Y-98600000D03*
X119733274Y-97433274D03*
X119733274Y-99766726D03*
X120900000Y-96950000D03*
D13*
X120900000Y-98600000D03*
D12*
X120900000Y-100250000D03*
X122066726Y-97433274D03*
X122066726Y-99766726D03*
X122550000Y-98600000D03*
%TD*%
%TO.C,H3*%
X181550000Y-98500000D03*
X181066726Y-99666726D03*
X181066726Y-97333274D03*
X179900000Y-100150000D03*
D13*
X179900000Y-98500000D03*
D12*
X179900000Y-96850000D03*
X178733274Y-99666726D03*
X178733274Y-97333274D03*
X178250000Y-98500000D03*
%TD*%
%TO.C,H2*%
X119350000Y-133000000D03*
X119833274Y-131833274D03*
X119833274Y-134166726D03*
X121000000Y-131350000D03*
D13*
X121000000Y-133000000D03*
D12*
X121000000Y-134650000D03*
X122166726Y-131833274D03*
X122166726Y-134166726D03*
X122650000Y-133000000D03*
%TD*%
%TO.C,H1*%
X178183274Y-132833274D03*
X178666548Y-131666548D03*
X178666548Y-134000000D03*
X179833274Y-131183274D03*
D13*
X179833274Y-132833274D03*
D12*
X179833274Y-134483274D03*
X181000000Y-131666548D03*
X181000000Y-134000000D03*
X181483274Y-132833274D03*
%TD*%
M02*
