M48
; DRILL file {KiCad 8.0.9-8.0.9-0~ubuntu24.04.1} date 2026-08-08T03:17:15+0200
; FORMAT={-:-/ absolute / inch / decimal}
; #@! TF.CreationDate,2026-08-08T03:17:15+02:00
; #@! TF.GenerationSoftware,Kicad,Pcbnew,8.0.9-8.0.9-0~ubuntu24.04.1
; #@! TF.FileFunction,Plated,1,2,PTH
FMAT,2
INCH
; #@! TA.AperFunction,Plated,PTH,ViaDrill
T1C0.0118
; #@! TA.AperFunction,Plated,PTH,ComponentDrill
T2C0.0157
; #@! TA.AperFunction,Plated,PTH,ComponentDrill
T3C0.0394
; #@! TA.AperFunction,Plated,PTH,ComponentDrill
T4C0.0866
%
G90
G05
T1
X5.0945Y-4.9331
X5.2402Y-4.2362
X5.3071Y-4.4496
X5.315Y-4.8976
X5.3622Y-4.748
X5.4528Y-4.6102
X5.4843Y-4.378
X5.5315Y-4.3976
X5.6339Y-4.622
X6.0118Y-4.315
X6.0591Y-4.4567
X6.1102Y-4.6457
X6.2677Y-4.7638
X6.3583Y-4.189
X6.5984Y-4.252
X6.748Y-4.8622
T2
X4.6949Y-3.8819
X4.6988Y-5.2362
X4.7139Y-3.836
X4.7139Y-3.9278
X4.7178Y-5.1903
X4.7178Y-5.2822
X4.7598Y-3.8169
X4.7598Y-3.9469
X4.7638Y-5.1713
X4.7638Y-5.3012
X4.8058Y-3.836
X4.8058Y-3.9278
X4.8097Y-5.1903
X4.8097Y-5.2822
X4.8248Y-3.8819
X4.8287Y-5.2362
X7.0151Y-5.2297
X7.0177Y-3.878
X7.0341Y-5.1837
X7.0341Y-5.2756
X7.0367Y-3.832
X7.0367Y-3.9239
X7.0801Y-5.1647
X7.0801Y-5.2946
X7.0827Y-3.813
X7.0827Y-3.9429
X7.126Y-5.1837
X7.126Y-5.2756
X7.1286Y-3.832
X7.1286Y-3.9239
X7.145Y-5.2297
X7.1476Y-3.878
T3
X4.9606Y-4.2313
X4.9606Y-4.3313
X4.9606Y-4.4313
X4.9606Y-4.5313
X4.9606Y-4.6313
X4.9606Y-4.7313
X4.9606Y-4.8313
X4.9606Y-4.9313
X6.8504Y-4.2606
X6.8504Y-4.3606
X6.8504Y-4.4606
X6.8504Y-4.5606
X6.8504Y-4.6606
X6.8504Y-4.7606
X6.8504Y-4.8606
X6.8504Y-4.9606
T4
X4.7598Y-3.8819
X4.7638Y-5.2362
X7.0801Y-5.2297
X7.0827Y-3.878
M30
