%TF.GenerationSoftware,KiCad,Pcbnew,8.0.9-8.0.9-0~ubuntu24.04.1*%
%TF.CreationDate,2026-08-08T03:17:17+02:00*%
%TF.ProjectId,breakout_board_imu,62726561-6b6f-4757-945f-626f6172645f,rev?*%
%TF.SameCoordinates,Original*%
%TF.FileFunction,Drillmap*%
%TF.FilePolarity,Positive*%
%FSLAX45Y45*%
G04 Gerber Fmt 4.5, Leading zero omitted, Abs format (unit mm)*
G04 Created by KiCad (PCBNEW 8.0.9-8.0.9-0~ubuntu24.04.1) date 2026-08-08 03:17:17*
%MOMM*%
%LPD*%
G01*
G04 APERTURE LIST*
%ADD10C,0.050000*%
%ADD11C,0.200000*%
G04 APERTURE END LIST*
D10*
X18100000Y-9550000D02*
G75*
G02*
X18300000Y-9750000I0J-200000D01*
G01*
X12000000Y-9550000D02*
X18100000Y-9550000D01*
X11800000Y-9750000D02*
G75*
G02*
X12000000Y-9550000I200000J0D01*
G01*
X11800000Y-13400000D02*
X11800000Y-9750000D01*
X12000000Y-13600000D02*
G75*
G02*
X11800000Y-13400000I0J200000D01*
G01*
X18300000Y-13400000D02*
G75*
G02*
X18100000Y-13600000I-200000J0D01*
G01*
X18100000Y-13600000D02*
X12000000Y-13600000D01*
X18300000Y-9750000D02*
X18300000Y-13400000D01*
D11*
X12058277Y-13913984D02*
X12058277Y-13713984D01*
X12058277Y-13713984D02*
X12105896Y-13713984D01*
X12105896Y-13713984D02*
X12134467Y-13723508D01*
X12134467Y-13723508D02*
X12153515Y-13742555D01*
X12153515Y-13742555D02*
X12163039Y-13761603D01*
X12163039Y-13761603D02*
X12172562Y-13799698D01*
X12172562Y-13799698D02*
X12172562Y-13828269D01*
X12172562Y-13828269D02*
X12163039Y-13866365D01*
X12163039Y-13866365D02*
X12153515Y-13885412D01*
X12153515Y-13885412D02*
X12134467Y-13904460D01*
X12134467Y-13904460D02*
X12105896Y-13913984D01*
X12105896Y-13913984D02*
X12058277Y-13913984D01*
X12258277Y-13913984D02*
X12258277Y-13780650D01*
X12258277Y-13818746D02*
X12267801Y-13799698D01*
X12267801Y-13799698D02*
X12277324Y-13790174D01*
X12277324Y-13790174D02*
X12296372Y-13780650D01*
X12296372Y-13780650D02*
X12315420Y-13780650D01*
X12382086Y-13913984D02*
X12382086Y-13780650D01*
X12382086Y-13713984D02*
X12372562Y-13723508D01*
X12372562Y-13723508D02*
X12382086Y-13733031D01*
X12382086Y-13733031D02*
X12391610Y-13723508D01*
X12391610Y-13723508D02*
X12382086Y-13713984D01*
X12382086Y-13713984D02*
X12382086Y-13733031D01*
X12505896Y-13913984D02*
X12486848Y-13904460D01*
X12486848Y-13904460D02*
X12477324Y-13885412D01*
X12477324Y-13885412D02*
X12477324Y-13713984D01*
X12610658Y-13913984D02*
X12591610Y-13904460D01*
X12591610Y-13904460D02*
X12582086Y-13885412D01*
X12582086Y-13885412D02*
X12582086Y-13713984D01*
X12839229Y-13913984D02*
X12839229Y-13713984D01*
X12839229Y-13713984D02*
X12905896Y-13856841D01*
X12905896Y-13856841D02*
X12972562Y-13713984D01*
X12972562Y-13713984D02*
X12972562Y-13913984D01*
X13153515Y-13913984D02*
X13153515Y-13809222D01*
X13153515Y-13809222D02*
X13143991Y-13790174D01*
X13143991Y-13790174D02*
X13124943Y-13780650D01*
X13124943Y-13780650D02*
X13086848Y-13780650D01*
X13086848Y-13780650D02*
X13067801Y-13790174D01*
X13153515Y-13904460D02*
X13134467Y-13913984D01*
X13134467Y-13913984D02*
X13086848Y-13913984D01*
X13086848Y-13913984D02*
X13067801Y-13904460D01*
X13067801Y-13904460D02*
X13058277Y-13885412D01*
X13058277Y-13885412D02*
X13058277Y-13866365D01*
X13058277Y-13866365D02*
X13067801Y-13847317D01*
X13067801Y-13847317D02*
X13086848Y-13837793D01*
X13086848Y-13837793D02*
X13134467Y-13837793D01*
X13134467Y-13837793D02*
X13153515Y-13828269D01*
X13248753Y-13780650D02*
X13248753Y-13980650D01*
X13248753Y-13790174D02*
X13267801Y-13780650D01*
X13267801Y-13780650D02*
X13305896Y-13780650D01*
X13305896Y-13780650D02*
X13324943Y-13790174D01*
X13324943Y-13790174D02*
X13334467Y-13799698D01*
X13334467Y-13799698D02*
X13343991Y-13818746D01*
X13343991Y-13818746D02*
X13343991Y-13875888D01*
X13343991Y-13875888D02*
X13334467Y-13894936D01*
X13334467Y-13894936D02*
X13324943Y-13904460D01*
X13324943Y-13904460D02*
X13305896Y-13913984D01*
X13305896Y-13913984D02*
X13267801Y-13913984D01*
X13267801Y-13913984D02*
X13248753Y-13904460D01*
X13429705Y-13894936D02*
X13439229Y-13904460D01*
X13439229Y-13904460D02*
X13429705Y-13913984D01*
X13429705Y-13913984D02*
X13420182Y-13904460D01*
X13420182Y-13904460D02*
X13429705Y-13894936D01*
X13429705Y-13894936D02*
X13429705Y-13913984D01*
X13429705Y-13790174D02*
X13439229Y-13799698D01*
X13439229Y-13799698D02*
X13429705Y-13809222D01*
X13429705Y-13809222D02*
X13420182Y-13799698D01*
X13420182Y-13799698D02*
X13429705Y-13790174D01*
X13429705Y-13790174D02*
X13429705Y-13809222D01*
M02*
