%TF.GenerationSoftware,KiCad,Pcbnew,8.0.9-8.0.9-0~ubuntu24.04.1*%
%TF.CreationDate,2026-08-08T03:17:24+02:00*%
%TF.ProjectId,breakout_board_imu,62726561-6b6f-4757-945f-626f6172645f,rev?*%
%TF.SameCoordinates,Original*%
%TF.FileFunction,Copper,L1,Top*%
%TF.FilePolarity,Positive*%
%FSLAX46Y46*%
G04 Gerber Fmt 4.6, Leading zero omitted, Abs format (unit mm)*
G04 Created by KiCad (PCBNEW 8.0.9-8.0.9-0~ubuntu24.04.1) date 2026-08-08 03:17:24*
%MOMM*%
%LPD*%
G01*
G04 APERTURE LIST*
G04 Aperture macros list*
%AMRoundRect*
0 Rectangle with rounded corners*
0 $1 Rounding radius*
0 $2 $3 $4 $5 $6 $7 $8 $9 X,Y pos of 4 corners*
0 Add a 4 corners polygon primitive as box body*
4,1,4,$2,$3,$4,$5,$6,$7,$8,$9,$2,$3,0*
0 Add four circle primitives for the rounded corners*
1,1,$1+$1,$2,$3*
1,1,$1+$1,$4,$5*
1,1,$1+$1,$6,$7*
1,1,$1+$1,$8,$9*
0 Add four rect primitives between the rounded corners*
20,1,$1+$1,$2,$3,$4,$5,0*
20,1,$1+$1,$4,$5,$6,$7,0*
20,1,$1+$1,$6,$7,$8,$9,0*
20,1,$1+$1,$8,$9,$2,$3,0*%
G04 Aperture macros list end*
%TA.AperFunction,SMDPad,CuDef*%
%ADD10RoundRect,0.132500X-0.522500X-0.132500X0.522500X-0.132500X0.522500X0.132500X-0.522500X0.132500X0*%
%TD*%
%TA.AperFunction,SMDPad,CuDef*%
%ADD11RoundRect,0.087500X-0.087500X-0.207500X0.087500X-0.207500X0.087500X0.207500X-0.087500X0.207500X0*%
%TD*%
%TA.AperFunction,SMDPad,CuDef*%
%ADD12RoundRect,0.087500X-0.207500X-0.087500X0.207500X-0.087500X0.207500X0.087500X-0.207500X0.087500X0*%
%TD*%
%TA.AperFunction,SMDPad,CuDef*%
%ADD13RoundRect,0.135000X-0.135000X-0.185000X0.135000X-0.185000X0.135000X0.185000X-0.135000X0.185000X0*%
%TD*%
%TA.AperFunction,SMDPad,CuDef*%
%ADD14RoundRect,0.135000X-0.185000X0.135000X-0.185000X-0.135000X0.185000X-0.135000X0.185000X0.135000X0*%
%TD*%
%TA.AperFunction,SMDPad,CuDef*%
%ADD15RoundRect,0.135000X0.135000X0.185000X-0.135000X0.185000X-0.135000X-0.185000X0.135000X-0.185000X0*%
%TD*%
%TA.AperFunction,ComponentPad*%
%ADD16R,1.700000X1.700000*%
%TD*%
%TA.AperFunction,ComponentPad*%
%ADD17O,1.700000X1.700000*%
%TD*%
%TA.AperFunction,ComponentPad*%
%ADD18C,0.700000*%
%TD*%
%TA.AperFunction,ComponentPad*%
%ADD19C,4.400000*%
%TD*%
%TA.AperFunction,SMDPad,CuDef*%
%ADD20RoundRect,0.218750X-0.256250X0.218750X-0.256250X-0.218750X0.256250X-0.218750X0.256250X0.218750X0*%
%TD*%
%TA.AperFunction,SMDPad,CuDef*%
%ADD21RoundRect,0.218750X0.256250X-0.218750X0.256250X0.218750X-0.256250X0.218750X-0.256250X-0.218750X0*%
%TD*%
%TA.AperFunction,SMDPad,CuDef*%
%ADD22RoundRect,0.218750X-0.218750X-0.256250X0.218750X-0.256250X0.218750X0.256250X-0.218750X0.256250X0*%
%TD*%
%TA.AperFunction,SMDPad,CuDef*%
%ADD23RoundRect,0.150000X-0.150000X-0.200000X0.150000X-0.200000X0.150000X0.200000X-0.150000X0.200000X0*%
%TD*%
%TA.AperFunction,SMDPad,CuDef*%
%ADD24RoundRect,0.150000X0.150000X0.200000X-0.150000X0.200000X-0.150000X-0.200000X0.150000X-0.200000X0*%
%TD*%
%TA.AperFunction,SMDPad,CuDef*%
%ADD25RoundRect,0.218750X0.218750X0.256250X-0.218750X0.256250X-0.218750X-0.256250X0.218750X-0.256250X0*%
%TD*%
%TA.AperFunction,SMDPad,CuDef*%
%ADD26RoundRect,0.250000X0.250000X0.475000X-0.250000X0.475000X-0.250000X-0.475000X0.250000X-0.475000X0*%
%TD*%
%TA.AperFunction,SMDPad,CuDef*%
%ADD27RoundRect,0.140000X-0.170000X0.140000X-0.170000X-0.140000X0.170000X-0.140000X0.170000X0.140000X0*%
%TD*%
%TA.AperFunction,SMDPad,CuDef*%
%ADD28RoundRect,0.140000X0.170000X-0.140000X0.170000X0.140000X-0.170000X0.140000X-0.170000X-0.140000X0*%
%TD*%
%TA.AperFunction,SMDPad,CuDef*%
%ADD29RoundRect,0.250000X-0.475000X0.250000X-0.475000X-0.250000X0.475000X-0.250000X0.475000X0.250000X0*%
%TD*%
%TA.AperFunction,SMDPad,CuDef*%
%ADD30RoundRect,0.140000X-0.140000X-0.170000X0.140000X-0.170000X0.140000X0.170000X-0.140000X0.170000X0*%
%TD*%
%TA.AperFunction,ViaPad*%
%ADD31C,0.700000*%
%TD*%
%TA.AperFunction,Conductor*%
%ADD32C,0.250000*%
%TD*%
%TA.AperFunction,Conductor*%
%ADD33C,0.300000*%
%TD*%
%TA.AperFunction,Conductor*%
%ADD34C,0.500000*%
%TD*%
G04 APERTURE END LIST*
D10*
%TO.P,U2,1,VDD*%
%TO.N,+3.3V*%
X157500000Y-112845000D03*
%TO.P,U2,8,SCLK*%
%TO.N,BARO_SCLK*%
X159900000Y-112845000D03*
%TO.P,U2,2,PS*%
%TO.N,BARO_PS*%
X157500000Y-114095000D03*
%TO.P,U2,3,GND*%
%TO.N,GND*%
X157500000Y-115345000D03*
%TO.P,U2,4,CSB*%
%TO.N,BARO_CS_N*%
X157500000Y-116595000D03*
%TO.P,U2,5,CSB*%
X159900000Y-116595000D03*
%TO.P,U2,6,SDO*%
%TO.N,BARO_MISO*%
X159900000Y-115345000D03*
%TO.P,U2,7,SDI/SDA*%
%TO.N,BARO_MOSI*%
X159900000Y-114095000D03*
%TD*%
D11*
%TO.P,U1,5,VDDIO*%
%TO.N,+3.3V*%
X137000000Y-114010000D03*
%TO.P,U1,6,GND*%
%TO.N,GND*%
X137500000Y-114010000D03*
%TO.P,U1,7,RESV_7*%
X138000000Y-114010000D03*
D12*
%TO.P,U1,8,VDD*%
%TO.N,+3.3V*%
X138665000Y-113845000D03*
%TO.P,U1,9,INT2/FSYNC/CLKIN*%
%TO.N,unconnected-(U1-INT2{slash}FSYNC{slash}CLKIN-Pad9)*%
X138665000Y-113345000D03*
%TO.P,U1,10,RESV_10*%
%TO.N,GND*%
X138665000Y-112845000D03*
%TO.P,U1,11,RESV_11*%
X138665000Y-112345000D03*
D11*
%TO.P,U1,12,AP_CS*%
%TO.N,IMU_CS_N*%
X138000000Y-112180000D03*
%TO.P,U1,13,AP_SCL/AP_SCLK*%
%TO.N,IMU_SCLK*%
X137500000Y-112180000D03*
%TO.P,U1,14,AP_SDA/AP_SDIO/AP_SDI*%
%TO.N,IMU_MOSI*%
X137000000Y-112180000D03*
D12*
%TO.P,U1,1,AP_SDO/AP_AD0*%
%TO.N,IMU_MISO*%
X136335000Y-112345000D03*
%TO.P,U1,2,RESV_2*%
%TO.N,GND*%
X136335000Y-112845000D03*
%TO.P,U1,3,RESV_3*%
X136335000Y-113345000D03*
%TO.P,U1,4,INT1/INT*%
%TO.N,IMU_INT*%
X136335000Y-113845000D03*
%TD*%
D13*
%TO.P,R5,1*%
%TO.N,Net-(D6-K)*%
X160490000Y-107595000D03*
%TO.P,R5,2*%
%TO.N,GND*%
X161510000Y-107595000D03*
%TD*%
D14*
%TO.P,R4,1*%
%TO.N,Net-(D5-K)*%
X135000000Y-119585000D03*
%TO.P,R4,2*%
%TO.N,GND*%
X135000000Y-120605000D03*
%TD*%
D15*
%TO.P,R3,1*%
%TO.N,Net-(D4-K)*%
X161510000Y-121095000D03*
%TO.P,R3,2*%
%TO.N,GND*%
X160490000Y-121095000D03*
%TD*%
D13*
%TO.P,R2,1*%
%TO.N,Net-(D1-K)*%
X133990000Y-123095000D03*
%TO.P,R2,2*%
%TO.N,GND*%
X135010000Y-123095000D03*
%TD*%
D14*
%TO.P,R1,1*%
%TO.N,BARO_PS*%
X153500000Y-116085000D03*
%TO.P,R1,2*%
%TO.N,GND*%
X153500000Y-117105000D03*
%TD*%
D16*
%TO.P,J3,1,Pin_1*%
%TO.N,+3.3V*%
X174000000Y-108220000D03*
D17*
%TO.P,J3,2,Pin_2*%
%TO.N,BARO_SCLK*%
X174000000Y-110760000D03*
%TO.P,J3,3,Pin_3*%
%TO.N,BARO_MOSI*%
X174000000Y-113300000D03*
%TO.P,J3,4,Pin_4*%
%TO.N,BARO_MISO*%
X174000000Y-115840000D03*
%TO.P,J3,5,Pin_5*%
%TO.N,BARO_CS_N*%
X174000000Y-118380000D03*
%TO.P,J3,6,Pin_6*%
%TO.N,LED_DEBUG_2*%
X174000000Y-120920000D03*
%TO.P,J3,7,Pin_7*%
%TO.N,GND*%
X174000000Y-123460000D03*
%TO.P,J3,8,Pin_8*%
X174000000Y-126000000D03*
%TD*%
D16*
%TO.P,J2,1,Pin_1*%
%TO.N,+3.3V*%
X126000000Y-107475000D03*
D17*
%TO.P,J2,2,Pin_2*%
%TO.N,IMU_CS_N*%
X126000000Y-110015000D03*
%TO.P,J2,3,Pin_3*%
%TO.N,IMU_SCLK*%
X126000000Y-112555000D03*
%TO.P,J2,4,Pin_4*%
%TO.N,IMU_MOSI*%
X126000000Y-115095000D03*
%TO.P,J2,5,Pin_5*%
%TO.N,IMU_MISO*%
X126000000Y-117635000D03*
%TO.P,J2,6,Pin_6*%
%TO.N,IMU_INT*%
X126000000Y-120175000D03*
%TO.P,J2,7,Pin_7*%
%TO.N,LED_DEBUG_1*%
X126000000Y-122715000D03*
%TO.P,J2,8,Pin_8*%
%TO.N,GND*%
X126000000Y-125255000D03*
%TD*%
D18*
%TO.P,H4,1*%
%TO.N,N/C*%
X119250000Y-98600000D03*
X119733274Y-97433274D03*
X119733274Y-99766726D03*
X120900000Y-96950000D03*
D19*
X120900000Y-98600000D03*
D18*
X120900000Y-100250000D03*
X122066726Y-97433274D03*
X122066726Y-99766726D03*
X122550000Y-98600000D03*
%TD*%
%TO.P,H3,1*%
%TO.N,N/C*%
X181550000Y-98500000D03*
X181066726Y-99666726D03*
X181066726Y-97333274D03*
X179900000Y-100150000D03*
D19*
X179900000Y-98500000D03*
D18*
X179900000Y-96850000D03*
X178733274Y-99666726D03*
X178733274Y-97333274D03*
X178250000Y-98500000D03*
%TD*%
%TO.P,H2,1*%
%TO.N,N/C*%
X119350000Y-133000000D03*
X119833274Y-131833274D03*
X119833274Y-134166726D03*
X121000000Y-131350000D03*
D19*
X121000000Y-133000000D03*
D18*
X121000000Y-134650000D03*
X122166726Y-131833274D03*
X122166726Y-134166726D03*
X122650000Y-133000000D03*
%TD*%
%TO.P,H1,1*%
%TO.N,N/C*%
X178183274Y-132833274D03*
X178666548Y-131666548D03*
X178666548Y-134000000D03*
X179833274Y-131183274D03*
D19*
X179833274Y-132833274D03*
D18*
X179833274Y-134483274D03*
X181000000Y-131666548D03*
X181000000Y-134000000D03*
X181483274Y-132833274D03*
%TD*%
D20*
%TO.P,D6,1,K*%
%TO.N,Net-(D6-K)*%
X158500000Y-107807500D03*
%TO.P,D6,2,A*%
%TO.N,+3.3V*%
X158500000Y-109382500D03*
%TD*%
D21*
%TO.P,D5,1,K*%
%TO.N,Net-(D5-K)*%
X135000000Y-117670000D03*
%TO.P,D5,2,A*%
%TO.N,+3.3V*%
X135000000Y-116095000D03*
%TD*%
D22*
%TO.P,D4,1,K*%
%TO.N,Net-(D4-K)*%
X164832500Y-121095000D03*
%TO.P,D4,2,A*%
%TO.N,LED_DEBUG_2*%
X166407500Y-121095000D03*
%TD*%
D23*
%TO.P,D3,1,K*%
%TO.N,+3.3V*%
X170000000Y-108095000D03*
%TO.P,D3,2,A*%
%TO.N,GND*%
X168600000Y-108095000D03*
%TD*%
D24*
%TO.P,D2,2,A*%
%TO.N,GND*%
X131400000Y-107595000D03*
%TO.P,D2,1,K*%
%TO.N,+3.3V*%
X130000000Y-107595000D03*
%TD*%
D25*
%TO.P,D1,1,K*%
%TO.N,Net-(D1-K)*%
X131787500Y-123095000D03*
%TO.P,D1,2,A*%
%TO.N,LED_DEBUG_1*%
X130212500Y-123095000D03*
%TD*%
D26*
%TO.P,C5,1*%
%TO.N,+3.3V*%
X155950000Y-109595000D03*
%TO.P,C5,2*%
%TO.N,GND*%
X154050000Y-109595000D03*
%TD*%
D27*
%TO.P,C4,1*%
%TO.N,+3.3V*%
X155400000Y-112220000D03*
%TO.P,C4,2*%
%TO.N,GND*%
X155400000Y-113180000D03*
%TD*%
D28*
%TO.P,C3,1*%
%TO.N,+3.3V*%
X140500000Y-113575000D03*
%TO.P,C3,2*%
%TO.N,GND*%
X140500000Y-112615000D03*
%TD*%
D29*
%TO.P,C2,2*%
%TO.N,GND*%
X141500000Y-117495000D03*
%TO.P,C2,1*%
%TO.N,+3.3V*%
X141500000Y-115595000D03*
%TD*%
D30*
%TO.P,C1,1*%
%TO.N,+3.3V*%
X137520000Y-115595000D03*
%TO.P,C1,2*%
%TO.N,GND*%
X138480000Y-115595000D03*
%TD*%
D31*
%TO.N,GND*%
X153900000Y-113200000D03*
X155200000Y-118000000D03*
X159200000Y-121000000D03*
X171400000Y-123500000D03*
X167600000Y-108000000D03*
X161500000Y-106400000D03*
X152700000Y-109600000D03*
X133100000Y-107600000D03*
X134800000Y-113020000D03*
X139300000Y-111200000D03*
X140500000Y-111700000D03*
X143100000Y-117400000D03*
X138500000Y-117100000D03*
X136200000Y-120600000D03*
X135000000Y-124400000D03*
X129400000Y-125300000D03*
%TD*%
D32*
%TO.N,+3.3V*%
X133700000Y-121500000D02*
X138600000Y-121500000D01*
X137000000Y-114010000D02*
X137000000Y-114900000D01*
X137000000Y-114900000D02*
X134200000Y-114900000D01*
X134200000Y-114900000D02*
X133100000Y-116000000D01*
X133100000Y-116000000D02*
X133100000Y-120900000D01*
X133100000Y-120900000D02*
X133700000Y-121500000D01*
X138600000Y-121500000D02*
X140000000Y-120100000D01*
%TO.N,GND*%
X138000000Y-114010000D02*
X138000000Y-114304999D01*
X138000000Y-114304999D02*
X138480000Y-114784999D01*
X138480000Y-114784999D02*
X138480000Y-115595000D01*
X137500000Y-114010000D02*
X137500000Y-114603510D01*
X137500000Y-114603510D02*
X138480000Y-115583510D01*
X138480000Y-115583510D02*
X138480000Y-115595000D01*
D33*
%TO.N,BARO_CS_N*%
X157500000Y-116595000D02*
X159285000Y-118380000D01*
X159285000Y-118380000D02*
X161685000Y-118380000D01*
D34*
%TO.N,GND*%
X153920000Y-113180000D02*
X153900000Y-113200000D01*
X155400000Y-113180000D02*
X153920000Y-113180000D01*
%TO.N,+3.3V*%
X145200000Y-111500000D02*
X145200000Y-112300000D01*
X145200000Y-112300000D02*
X145200000Y-118700000D01*
X155400000Y-112220000D02*
X145280000Y-112220000D01*
X145280000Y-112220000D02*
X145200000Y-112300000D01*
X157500000Y-112845000D02*
X156875000Y-112220000D01*
X156875000Y-112220000D02*
X155400000Y-112220000D01*
%TO.N,GND*%
X155145976Y-117945976D02*
X155200000Y-118000000D01*
X155145976Y-117105000D02*
X155145976Y-117945976D01*
X153500000Y-117105000D02*
X155145976Y-117105000D01*
X155145976Y-117105000D02*
X156905976Y-115345000D01*
X156905976Y-115345000D02*
X157500000Y-115345000D01*
X159295000Y-121095000D02*
X159200000Y-121000000D01*
X160490000Y-121095000D02*
X159295000Y-121095000D01*
X174000000Y-126000000D02*
X173900000Y-126000000D01*
X173900000Y-126000000D02*
X171400000Y-123500000D01*
X171440000Y-123460000D02*
X171400000Y-123500000D01*
X174000000Y-123460000D02*
X171440000Y-123460000D01*
X167695000Y-108095000D02*
X167600000Y-108000000D01*
X168600000Y-108095000D02*
X167695000Y-108095000D01*
X161510000Y-106410000D02*
X161500000Y-106400000D01*
X161510000Y-107595000D02*
X161510000Y-106410000D01*
X152705000Y-109595000D02*
X152700000Y-109600000D01*
X154050000Y-109595000D02*
X152705000Y-109595000D01*
X133095000Y-107595000D02*
X133100000Y-107600000D01*
X131400000Y-107595000D02*
X133095000Y-107595000D01*
D32*
X136335000Y-113345000D02*
X135125000Y-113345000D01*
X135125000Y-113345000D02*
X134800000Y-113020000D01*
X134975000Y-112845000D02*
X134800000Y-113020000D01*
X136335000Y-112845000D02*
X134975000Y-112845000D01*
D34*
X138665000Y-111835000D02*
X139300000Y-111200000D01*
X138665000Y-112345000D02*
X138665000Y-111835000D01*
D33*
X140500000Y-112615000D02*
X140500000Y-111700000D01*
D34*
X143005000Y-117495000D02*
X143100000Y-117400000D01*
X141500000Y-117495000D02*
X143005000Y-117495000D01*
X138480000Y-117080000D02*
X138500000Y-117100000D01*
X138480000Y-115595000D02*
X138480000Y-117080000D01*
X136195000Y-120605000D02*
X136200000Y-120600000D01*
X135000000Y-120605000D02*
X136195000Y-120605000D01*
X135010000Y-124390000D02*
X135000000Y-124400000D01*
X135010000Y-123095000D02*
X135010000Y-124390000D01*
X129355000Y-125255000D02*
X129400000Y-125300000D01*
X126000000Y-125255000D02*
X129355000Y-125255000D01*
%TO.N,+3.3V*%
X128700000Y-107595000D02*
X128400000Y-107595000D01*
X145200000Y-118700000D02*
X143800000Y-120100000D01*
X128400000Y-107595000D02*
X126120000Y-107595000D01*
X143800000Y-120100000D02*
X140000000Y-120100000D01*
X128400000Y-107595000D02*
X128400000Y-106000000D01*
X128400000Y-106000000D02*
X130300000Y-104100000D01*
X130300000Y-104100000D02*
X137800000Y-104100000D01*
X137800000Y-104100000D02*
X145200000Y-111500000D01*
X140000000Y-120100000D02*
X139600000Y-119700000D01*
X139600000Y-119700000D02*
X139600000Y-113970000D01*
X139600000Y-113970000D02*
X139500000Y-113870000D01*
D33*
X139500000Y-113870000D02*
X138665000Y-113870000D01*
X140205000Y-113870000D02*
X139500000Y-113870000D01*
D34*
X130000000Y-107595000D02*
X128700000Y-107595000D01*
X171700000Y-108220000D02*
X170125000Y-108220000D01*
X174000000Y-108220000D02*
X171700000Y-108220000D01*
X171700000Y-108220000D02*
X171700000Y-106300000D01*
X164700000Y-105400000D02*
X163700000Y-106400000D01*
X171700000Y-106300000D02*
X170800000Y-105400000D01*
X163700000Y-108300000D02*
X162500000Y-109500000D01*
X160845000Y-109500000D02*
X157500000Y-112845000D01*
X170800000Y-105400000D02*
X164700000Y-105400000D01*
X163700000Y-106400000D02*
X163700000Y-108300000D01*
X162500000Y-109500000D02*
X160845000Y-109500000D01*
D32*
%TO.N,IMU_CS_N*%
X126000000Y-110015000D02*
X128785000Y-110015000D01*
X128785000Y-110015000D02*
X129900000Y-108900000D01*
X138000000Y-111600000D02*
X138000000Y-112180000D01*
X129900000Y-108900000D02*
X137400000Y-108900000D01*
X137400000Y-108900000D02*
X138200000Y-109700000D01*
X138200000Y-109700000D02*
X138200000Y-111400000D01*
X138200000Y-111400000D02*
X138000000Y-111600000D01*
%TO.N,IMU_SCLK*%
X126000000Y-112555000D02*
X128145000Y-112555000D01*
X130600000Y-110100000D02*
X136700000Y-110100000D01*
X128145000Y-112555000D02*
X130600000Y-110100000D01*
X136700000Y-110100000D02*
X137500000Y-110900000D01*
X137500000Y-110900000D02*
X137500000Y-112180000D01*
D33*
%TO.N,IMU_MOSI*%
X126000000Y-115095000D02*
X128005000Y-115095000D01*
X128005000Y-115095000D02*
X132000000Y-111100000D01*
X132000000Y-111100000D02*
X136006144Y-111100000D01*
X136006144Y-111100000D02*
X136975000Y-112068856D01*
%TO.N,IMU_MISO*%
X126000000Y-117635000D02*
X127965000Y-117635000D01*
X127965000Y-117635000D02*
X133280000Y-112320000D01*
X133280000Y-112320000D02*
X136335000Y-112320000D01*
%TO.N,IMU_INT*%
X126000000Y-120175000D02*
X127825000Y-120175000D01*
X127825000Y-120175000D02*
X134130000Y-113870000D01*
X134130000Y-113870000D02*
X136335000Y-113870000D01*
%TO.N,LED_DEBUG_1*%
X130212500Y-123095000D02*
X126380000Y-123095000D01*
X126380000Y-123095000D02*
X126000000Y-122715000D01*
%TO.N,Net-(D1-K)*%
X131787500Y-123095000D02*
X133990000Y-123095000D01*
%TO.N,Net-(D5-K)*%
X135000000Y-117670000D02*
X135000000Y-119585000D01*
%TO.N,BARO_SCLK*%
X174000000Y-110760000D02*
X161985000Y-110760000D01*
X161985000Y-110760000D02*
X159900000Y-112845000D01*
%TO.N,BARO_MOSI*%
X174000000Y-113300000D02*
X173205000Y-114095000D01*
X173205000Y-114095000D02*
X159900000Y-114095000D01*
%TO.N,BARO_MISO*%
X174000000Y-115840000D02*
X173505000Y-115345000D01*
X173505000Y-115345000D02*
X159900000Y-115345000D01*
%TO.N,BARO_CS_N*%
X174000000Y-118380000D02*
X161685000Y-118380000D01*
X161685000Y-118380000D02*
X159900000Y-116595000D01*
%TO.N,LED_DEBUG_2*%
X174000000Y-120920000D02*
X166582500Y-120920000D01*
X166582500Y-120920000D02*
X166407500Y-121095000D01*
%TO.N,Net-(D4-K)*%
X161510000Y-121095000D02*
X164832500Y-121095000D01*
%TO.N,BARO_PS*%
X153500000Y-116085000D02*
X155490000Y-114095000D01*
X155490000Y-114095000D02*
X157500000Y-114095000D01*
%TO.N,Net-(D6-K)*%
X160490000Y-107595000D02*
X158712500Y-107595000D01*
X158712500Y-107595000D02*
X158500000Y-107807500D01*
D34*
%TO.N,+3.3V*%
X158500000Y-109382500D02*
X158500000Y-110145000D01*
X158500000Y-110145000D02*
X157500000Y-111145000D01*
X157500000Y-112845000D02*
X157500000Y-111145000D01*
X157500000Y-111145000D02*
X155950000Y-109595000D01*
D33*
X140500000Y-113575000D02*
X140500000Y-114595000D01*
X140500000Y-114595000D02*
X141500000Y-115595000D01*
D34*
X135000000Y-116095000D02*
X137020000Y-116095000D01*
X137020000Y-116095000D02*
X137520000Y-115595000D01*
X170125000Y-108220000D02*
X170000000Y-108095000D01*
X126120000Y-107595000D02*
X126000000Y-107475000D01*
D33*
X140500000Y-113575000D02*
X140205000Y-113870000D01*
%TO.N,GND*%
X138870000Y-112615000D02*
X138665000Y-112820000D01*
X140500000Y-112615000D02*
X138870000Y-112615000D01*
D32*
%TO.N,+3.3V*%
X137000000Y-115075000D02*
X137520000Y-115595000D01*
X137000000Y-114900000D02*
X137000000Y-115075000D01*
%TD*%
M02*
