%TF.GenerationSoftware,KiCad,Pcbnew,8.0.9-8.0.9-0~ubuntu24.04.1*%
%TF.CreationDate,2026-08-08T03:17:17+02:00*%
%TF.ProjectId,breakout_board_imu,62726561-6b6f-4757-945f-626f6172645f,rev?*%
%TF.SameCoordinates,Original*%
%TF.FileFunction,Drillmap*%
%TF.FilePolarity,Positive*%
%FSLAX45Y45*%
G04 Gerber Fmt 4.5, Leading zero omitted, Abs format (unit mm)*
G04 Created by KiCad (PCBNEW 8.0.9-8.0.9-0~ubuntu24.04.1) date 2026-08-08 03:17:17*
%MOMM*%
%LPD*%
G01*
G04 APERTURE LIST*
%ADD10C,0.050000*%
%ADD11C,0.200000*%
%ADD12C,0.100000*%
%ADD13C,0.220000*%
G04 APERTURE END LIST*
D10*
X18100000Y-9550000D02*
G75*
G02*
X18300000Y-9750000I0J-200000D01*
G01*
X12000000Y-9550000D02*
X18100000Y-9550000D01*
X11800000Y-9750000D02*
G75*
G02*
X12000000Y-9550000I200000J0D01*
G01*
X11800000Y-13400000D02*
X11800000Y-9750000D01*
X12000000Y-13600000D02*
G75*
G02*
X11800000Y-13400000I0J200000D01*
G01*
X18300000Y-13400000D02*
G75*
G02*
X18100000Y-13600000I-200000J0D01*
G01*
X18100000Y-13600000D02*
X12000000Y-13600000D01*
X18300000Y-9750000D02*
X18300000Y-13400000D01*
D11*
D12*
X12925000Y-12515000D02*
X12955000Y-12545000D01*
X12955000Y-12515000D02*
X12925000Y-12545000D01*
X13295000Y-10745000D02*
X13325000Y-10775000D01*
X13325000Y-10745000D02*
X13295000Y-10775000D01*
X13465000Y-11287000D02*
X13495000Y-11317000D01*
X13495000Y-11287000D02*
X13465000Y-11317000D01*
X13485000Y-12425000D02*
X13515000Y-12455000D01*
X13515000Y-12425000D02*
X13485000Y-12455000D01*
X13605000Y-12045000D02*
X13635000Y-12075000D01*
X13635000Y-12045000D02*
X13605000Y-12075000D01*
X13835000Y-11695000D02*
X13865000Y-11725000D01*
X13865000Y-11695000D02*
X13835000Y-11725000D01*
X13915000Y-11105000D02*
X13945000Y-11135000D01*
X13945000Y-11105000D02*
X13915000Y-11135000D01*
X14035000Y-11155000D02*
X14065000Y-11185000D01*
X14065000Y-11155000D02*
X14035000Y-11185000D01*
X14295000Y-11725000D02*
X14325000Y-11755000D01*
X14325000Y-11725000D02*
X14295000Y-11755000D01*
X15255000Y-10945000D02*
X15285000Y-10975000D01*
X15285000Y-10945000D02*
X15255000Y-10975000D01*
X15375000Y-11305000D02*
X15405000Y-11335000D01*
X15405000Y-11305000D02*
X15375000Y-11335000D01*
X15505000Y-11785000D02*
X15535000Y-11815000D01*
X15535000Y-11785000D02*
X15505000Y-11815000D01*
X15905000Y-12085000D02*
X15935000Y-12115000D01*
X15935000Y-12085000D02*
X15905000Y-12115000D01*
X16135000Y-10625000D02*
X16165000Y-10655000D01*
X16165000Y-10625000D02*
X16135000Y-10655000D01*
X16745000Y-10785000D02*
X16775000Y-10815000D01*
X16775000Y-10785000D02*
X16745000Y-10815000D01*
X17125000Y-12335000D02*
X17155000Y-12365000D01*
X17155000Y-12335000D02*
X17125000Y-12365000D01*
X11945000Y-9860000D02*
G75*
G02*
X11905000Y-9860000I-20000J0D01*
G01*
X11905000Y-9860000D02*
G75*
G02*
X11945000Y-9860000I20000J0D01*
G01*
X11955000Y-13300000D02*
G75*
G02*
X11915000Y-13300000I-20000J0D01*
G01*
X11915000Y-13300000D02*
G75*
G02*
X11955000Y-13300000I20000J0D01*
G01*
X11993327Y-9743327D02*
G75*
G02*
X11953327Y-9743327I-20000J0D01*
G01*
X11953327Y-9743327D02*
G75*
G02*
X11993327Y-9743327I20000J0D01*
G01*
X11993327Y-9976673D02*
G75*
G02*
X11953327Y-9976673I-20000J0D01*
G01*
X11953327Y-9976673D02*
G75*
G02*
X11993327Y-9976673I20000J0D01*
G01*
X12003327Y-13183327D02*
G75*
G02*
X11963327Y-13183327I-20000J0D01*
G01*
X11963327Y-13183327D02*
G75*
G02*
X12003327Y-13183327I20000J0D01*
G01*
X12003327Y-13416673D02*
G75*
G02*
X11963327Y-13416673I-20000J0D01*
G01*
X11963327Y-13416673D02*
G75*
G02*
X12003327Y-13416673I20000J0D01*
G01*
X12110000Y-9695000D02*
G75*
G02*
X12070000Y-9695000I-20000J0D01*
G01*
X12070000Y-9695000D02*
G75*
G02*
X12110000Y-9695000I20000J0D01*
G01*
X12110000Y-10025000D02*
G75*
G02*
X12070000Y-10025000I-20000J0D01*
G01*
X12070000Y-10025000D02*
G75*
G02*
X12110000Y-10025000I20000J0D01*
G01*
X12120000Y-13135000D02*
G75*
G02*
X12080000Y-13135000I-20000J0D01*
G01*
X12080000Y-13135000D02*
G75*
G02*
X12120000Y-13135000I20000J0D01*
G01*
X12120000Y-13465000D02*
G75*
G02*
X12080000Y-13465000I-20000J0D01*
G01*
X12080000Y-13465000D02*
G75*
G02*
X12120000Y-13465000I20000J0D01*
G01*
X12226673Y-9743327D02*
G75*
G02*
X12186673Y-9743327I-20000J0D01*
G01*
X12186673Y-9743327D02*
G75*
G02*
X12226673Y-9743327I20000J0D01*
G01*
X12226673Y-9976673D02*
G75*
G02*
X12186673Y-9976673I-20000J0D01*
G01*
X12186673Y-9976673D02*
G75*
G02*
X12226673Y-9976673I20000J0D01*
G01*
X12236673Y-13183327D02*
G75*
G02*
X12196673Y-13183327I-20000J0D01*
G01*
X12196673Y-13183327D02*
G75*
G02*
X12236673Y-13183327I20000J0D01*
G01*
X12236673Y-13416673D02*
G75*
G02*
X12196673Y-13416673I-20000J0D01*
G01*
X12196673Y-13416673D02*
G75*
G02*
X12236673Y-13416673I20000J0D01*
G01*
X12275000Y-9860000D02*
G75*
G02*
X12235000Y-9860000I-20000J0D01*
G01*
X12235000Y-9860000D02*
G75*
G02*
X12275000Y-9860000I20000J0D01*
G01*
X12285000Y-13300000D02*
G75*
G02*
X12245000Y-13300000I-20000J0D01*
G01*
X12245000Y-13300000D02*
G75*
G02*
X12285000Y-13300000I20000J0D01*
G01*
X17838327Y-13283327D02*
G75*
G02*
X17798327Y-13283327I-20000J0D01*
G01*
X17798327Y-13283327D02*
G75*
G02*
X17838327Y-13283327I20000J0D01*
G01*
X17845000Y-9850000D02*
G75*
G02*
X17805000Y-9850000I-20000J0D01*
G01*
X17805000Y-9850000D02*
G75*
G02*
X17845000Y-9850000I20000J0D01*
G01*
X17886655Y-13166655D02*
G75*
G02*
X17846655Y-13166655I-20000J0D01*
G01*
X17846655Y-13166655D02*
G75*
G02*
X17886655Y-13166655I20000J0D01*
G01*
X17886655Y-13400000D02*
G75*
G02*
X17846655Y-13400000I-20000J0D01*
G01*
X17846655Y-13400000D02*
G75*
G02*
X17886655Y-13400000I20000J0D01*
G01*
X17893327Y-9733327D02*
G75*
G02*
X17853327Y-9733327I-20000J0D01*
G01*
X17853327Y-9733327D02*
G75*
G02*
X17893327Y-9733327I20000J0D01*
G01*
X17893327Y-9966673D02*
G75*
G02*
X17853327Y-9966673I-20000J0D01*
G01*
X17853327Y-9966673D02*
G75*
G02*
X17893327Y-9966673I20000J0D01*
G01*
X18003327Y-13118327D02*
G75*
G02*
X17963327Y-13118327I-20000J0D01*
G01*
X17963327Y-13118327D02*
G75*
G02*
X18003327Y-13118327I20000J0D01*
G01*
X18003327Y-13448327D02*
G75*
G02*
X17963327Y-13448327I-20000J0D01*
G01*
X17963327Y-13448327D02*
G75*
G02*
X18003327Y-13448327I20000J0D01*
G01*
X18010000Y-9685000D02*
G75*
G02*
X17970000Y-9685000I-20000J0D01*
G01*
X17970000Y-9685000D02*
G75*
G02*
X18010000Y-9685000I20000J0D01*
G01*
X18010000Y-10015000D02*
G75*
G02*
X17970000Y-10015000I-20000J0D01*
G01*
X17970000Y-10015000D02*
G75*
G02*
X18010000Y-10015000I20000J0D01*
G01*
X18120000Y-13166655D02*
G75*
G02*
X18080000Y-13166655I-20000J0D01*
G01*
X18080000Y-13166655D02*
G75*
G02*
X18120000Y-13166655I20000J0D01*
G01*
X18120000Y-13400000D02*
G75*
G02*
X18080000Y-13400000I-20000J0D01*
G01*
X18080000Y-13400000D02*
G75*
G02*
X18120000Y-13400000I20000J0D01*
G01*
X18126673Y-9733327D02*
G75*
G02*
X18086673Y-9733327I-20000J0D01*
G01*
X18086673Y-9733327D02*
G75*
G02*
X18126673Y-9733327I20000J0D01*
G01*
X18126673Y-9966673D02*
G75*
G02*
X18086673Y-9966673I-20000J0D01*
G01*
X18086673Y-9966673D02*
G75*
G02*
X18126673Y-9966673I20000J0D01*
G01*
X18168327Y-13283327D02*
G75*
G02*
X18128327Y-13283327I-20000J0D01*
G01*
X18128327Y-13283327D02*
G75*
G02*
X18168327Y-13283327I20000J0D01*
G01*
X18175000Y-9850000D02*
G75*
G02*
X18135000Y-9850000I-20000J0D01*
G01*
X18135000Y-9850000D02*
G75*
G02*
X18175000Y-9850000I20000J0D01*
G01*
X12600000Y-10697500D02*
X12600000Y-10797500D01*
X12550000Y-10747500D02*
X12650000Y-10747500D01*
X12600000Y-10951500D02*
X12600000Y-11051500D01*
X12550000Y-11001500D02*
X12650000Y-11001500D01*
X12600000Y-11205500D02*
X12600000Y-11305500D01*
X12550000Y-11255500D02*
X12650000Y-11255500D01*
X12600000Y-11459500D02*
X12600000Y-11559500D01*
X12550000Y-11509500D02*
X12650000Y-11509500D01*
X12600000Y-11713500D02*
X12600000Y-11813500D01*
X12550000Y-11763500D02*
X12650000Y-11763500D01*
X12600000Y-11967500D02*
X12600000Y-12067500D01*
X12550000Y-12017500D02*
X12650000Y-12017500D01*
X12600000Y-12221500D02*
X12600000Y-12321500D01*
X12550000Y-12271500D02*
X12650000Y-12271500D01*
X12600000Y-12475500D02*
X12600000Y-12575500D01*
X12550000Y-12525500D02*
X12650000Y-12525500D01*
X17400000Y-10772000D02*
X17400000Y-10872000D01*
X17350000Y-10822000D02*
X17450000Y-10822000D01*
X17400000Y-11026000D02*
X17400000Y-11126000D01*
X17350000Y-11076000D02*
X17450000Y-11076000D01*
X17400000Y-11280000D02*
X17400000Y-11380000D01*
X17350000Y-11330000D02*
X17450000Y-11330000D01*
X17400000Y-11534000D02*
X17400000Y-11634000D01*
X17350000Y-11584000D02*
X17450000Y-11584000D01*
X17400000Y-11788000D02*
X17400000Y-11888000D01*
X17350000Y-11838000D02*
X17450000Y-11838000D01*
X17400000Y-12042000D02*
X17400000Y-12142000D01*
X17350000Y-12092000D02*
X17450000Y-12092000D01*
X17400000Y-12296000D02*
X17400000Y-12396000D01*
X17350000Y-12346000D02*
X17450000Y-12346000D01*
X17400000Y-12550000D02*
X17400000Y-12650000D01*
X17350000Y-12600000D02*
X17450000Y-12600000D01*
D13*
X12167782Y-9937783D02*
X12167782Y-9782218D01*
X12012217Y-9782218D01*
X12012217Y-9937783D01*
X12167782Y-9937783D01*
X12177782Y-13377782D02*
X12177782Y-13222217D01*
X12022217Y-13222217D01*
X12022217Y-13377782D01*
X12177782Y-13377782D01*
X18061110Y-13361110D02*
X18061110Y-13205545D01*
X17905545Y-13205545D01*
X17905545Y-13361110D01*
X18061110Y-13361110D01*
X18067783Y-9927783D02*
X18067783Y-9772218D01*
X17912218Y-9772218D01*
X17912218Y-9927783D01*
X18067783Y-9927783D01*
D11*
X12058277Y-13913984D02*
X12058277Y-13713984D01*
X12058277Y-13713984D02*
X12105896Y-13713984D01*
X12105896Y-13713984D02*
X12134467Y-13723508D01*
X12134467Y-13723508D02*
X12153515Y-13742555D01*
X12153515Y-13742555D02*
X12163039Y-13761603D01*
X12163039Y-13761603D02*
X12172562Y-13799698D01*
X12172562Y-13799698D02*
X12172562Y-13828269D01*
X12172562Y-13828269D02*
X12163039Y-13866365D01*
X12163039Y-13866365D02*
X12153515Y-13885412D01*
X12153515Y-13885412D02*
X12134467Y-13904460D01*
X12134467Y-13904460D02*
X12105896Y-13913984D01*
X12105896Y-13913984D02*
X12058277Y-13913984D01*
X12258277Y-13913984D02*
X12258277Y-13780650D01*
X12258277Y-13818746D02*
X12267801Y-13799698D01*
X12267801Y-13799698D02*
X12277324Y-13790174D01*
X12277324Y-13790174D02*
X12296372Y-13780650D01*
X12296372Y-13780650D02*
X12315420Y-13780650D01*
X12382086Y-13913984D02*
X12382086Y-13780650D01*
X12382086Y-13713984D02*
X12372562Y-13723508D01*
X12372562Y-13723508D02*
X12382086Y-13733031D01*
X12382086Y-13733031D02*
X12391610Y-13723508D01*
X12391610Y-13723508D02*
X12382086Y-13713984D01*
X12382086Y-13713984D02*
X12382086Y-13733031D01*
X12505896Y-13913984D02*
X12486848Y-13904460D01*
X12486848Y-13904460D02*
X12477324Y-13885412D01*
X12477324Y-13885412D02*
X12477324Y-13713984D01*
X12610658Y-13913984D02*
X12591610Y-13904460D01*
X12591610Y-13904460D02*
X12582086Y-13885412D01*
X12582086Y-13885412D02*
X12582086Y-13713984D01*
X12839229Y-13913984D02*
X12839229Y-13713984D01*
X12839229Y-13713984D02*
X12905896Y-13856841D01*
X12905896Y-13856841D02*
X12972562Y-13713984D01*
X12972562Y-13713984D02*
X12972562Y-13913984D01*
X13153515Y-13913984D02*
X13153515Y-13809222D01*
X13153515Y-13809222D02*
X13143991Y-13790174D01*
X13143991Y-13790174D02*
X13124943Y-13780650D01*
X13124943Y-13780650D02*
X13086848Y-13780650D01*
X13086848Y-13780650D02*
X13067801Y-13790174D01*
X13153515Y-13904460D02*
X13134467Y-13913984D01*
X13134467Y-13913984D02*
X13086848Y-13913984D01*
X13086848Y-13913984D02*
X13067801Y-13904460D01*
X13067801Y-13904460D02*
X13058277Y-13885412D01*
X13058277Y-13885412D02*
X13058277Y-13866365D01*
X13058277Y-13866365D02*
X13067801Y-13847317D01*
X13067801Y-13847317D02*
X13086848Y-13837793D01*
X13086848Y-13837793D02*
X13134467Y-13837793D01*
X13134467Y-13837793D02*
X13153515Y-13828269D01*
X13248753Y-13780650D02*
X13248753Y-13980650D01*
X13248753Y-13790174D02*
X13267801Y-13780650D01*
X13267801Y-13780650D02*
X13305896Y-13780650D01*
X13305896Y-13780650D02*
X13324943Y-13790174D01*
X13324943Y-13790174D02*
X13334467Y-13799698D01*
X13334467Y-13799698D02*
X13343991Y-13818746D01*
X13343991Y-13818746D02*
X13343991Y-13875888D01*
X13343991Y-13875888D02*
X13334467Y-13894936D01*
X13334467Y-13894936D02*
X13324943Y-13904460D01*
X13324943Y-13904460D02*
X13305896Y-13913984D01*
X13305896Y-13913984D02*
X13267801Y-13913984D01*
X13267801Y-13913984D02*
X13248753Y-13904460D01*
X13429705Y-13894936D02*
X13439229Y-13904460D01*
X13439229Y-13904460D02*
X13429705Y-13913984D01*
X13429705Y-13913984D02*
X13420182Y-13904460D01*
X13420182Y-13904460D02*
X13429705Y-13894936D01*
X13429705Y-13894936D02*
X13429705Y-13913984D01*
X13429705Y-13790174D02*
X13439229Y-13799698D01*
X13439229Y-13799698D02*
X13429705Y-13809222D01*
X13429705Y-13809222D02*
X13420182Y-13799698D01*
X13420182Y-13799698D02*
X13429705Y-13790174D01*
X13429705Y-13790174D02*
X13429705Y-13809222D01*
D12*
X11767500Y-14227500D02*
X11797500Y-14257500D01*
X11797500Y-14227500D02*
X11767500Y-14257500D01*
D11*
X12096372Y-14133984D02*
X12115420Y-14133984D01*
X12115420Y-14133984D02*
X12134467Y-14143508D01*
X12134467Y-14143508D02*
X12143991Y-14153031D01*
X12143991Y-14153031D02*
X12153515Y-14172079D01*
X12153515Y-14172079D02*
X12163039Y-14210174D01*
X12163039Y-14210174D02*
X12163039Y-14257793D01*
X12163039Y-14257793D02*
X12153515Y-14295888D01*
X12153515Y-14295888D02*
X12143991Y-14314936D01*
X12143991Y-14314936D02*
X12134467Y-14324460D01*
X12134467Y-14324460D02*
X12115420Y-14333984D01*
X12115420Y-14333984D02*
X12096372Y-14333984D01*
X12096372Y-14333984D02*
X12077324Y-14324460D01*
X12077324Y-14324460D02*
X12067801Y-14314936D01*
X12067801Y-14314936D02*
X12058277Y-14295888D01*
X12058277Y-14295888D02*
X12048753Y-14257793D01*
X12048753Y-14257793D02*
X12048753Y-14210174D01*
X12048753Y-14210174D02*
X12058277Y-14172079D01*
X12058277Y-14172079D02*
X12067801Y-14153031D01*
X12067801Y-14153031D02*
X12077324Y-14143508D01*
X12077324Y-14143508D02*
X12096372Y-14133984D01*
X12248753Y-14314936D02*
X12258277Y-14324460D01*
X12258277Y-14324460D02*
X12248753Y-14333984D01*
X12248753Y-14333984D02*
X12239229Y-14324460D01*
X12239229Y-14324460D02*
X12248753Y-14314936D01*
X12248753Y-14314936D02*
X12248753Y-14333984D01*
X12324943Y-14133984D02*
X12448753Y-14133984D01*
X12448753Y-14133984D02*
X12382086Y-14210174D01*
X12382086Y-14210174D02*
X12410658Y-14210174D01*
X12410658Y-14210174D02*
X12429705Y-14219698D01*
X12429705Y-14219698D02*
X12439229Y-14229222D01*
X12439229Y-14229222D02*
X12448753Y-14248269D01*
X12448753Y-14248269D02*
X12448753Y-14295888D01*
X12448753Y-14295888D02*
X12439229Y-14314936D01*
X12439229Y-14314936D02*
X12429705Y-14324460D01*
X12429705Y-14324460D02*
X12410658Y-14333984D01*
X12410658Y-14333984D02*
X12353515Y-14333984D01*
X12353515Y-14333984D02*
X12334467Y-14324460D01*
X12334467Y-14324460D02*
X12324943Y-14314936D01*
X12572562Y-14133984D02*
X12591610Y-14133984D01*
X12591610Y-14133984D02*
X12610658Y-14143508D01*
X12610658Y-14143508D02*
X12620182Y-14153031D01*
X12620182Y-14153031D02*
X12629705Y-14172079D01*
X12629705Y-14172079D02*
X12639229Y-14210174D01*
X12639229Y-14210174D02*
X12639229Y-14257793D01*
X12639229Y-14257793D02*
X12629705Y-14295888D01*
X12629705Y-14295888D02*
X12620182Y-14314936D01*
X12620182Y-14314936D02*
X12610658Y-14324460D01*
X12610658Y-14324460D02*
X12591610Y-14333984D01*
X12591610Y-14333984D02*
X12572562Y-14333984D01*
X12572562Y-14333984D02*
X12553515Y-14324460D01*
X12553515Y-14324460D02*
X12543991Y-14314936D01*
X12543991Y-14314936D02*
X12534467Y-14295888D01*
X12534467Y-14295888D02*
X12524943Y-14257793D01*
X12524943Y-14257793D02*
X12524943Y-14210174D01*
X12524943Y-14210174D02*
X12534467Y-14172079D01*
X12534467Y-14172079D02*
X12543991Y-14153031D01*
X12543991Y-14153031D02*
X12553515Y-14143508D01*
X12553515Y-14143508D02*
X12572562Y-14133984D01*
X12763039Y-14133984D02*
X12782086Y-14133984D01*
X12782086Y-14133984D02*
X12801134Y-14143508D01*
X12801134Y-14143508D02*
X12810658Y-14153031D01*
X12810658Y-14153031D02*
X12820182Y-14172079D01*
X12820182Y-14172079D02*
X12829705Y-14210174D01*
X12829705Y-14210174D02*
X12829705Y-14257793D01*
X12829705Y-14257793D02*
X12820182Y-14295888D01*
X12820182Y-14295888D02*
X12810658Y-14314936D01*
X12810658Y-14314936D02*
X12801134Y-14324460D01*
X12801134Y-14324460D02*
X12782086Y-14333984D01*
X12782086Y-14333984D02*
X12763039Y-14333984D01*
X12763039Y-14333984D02*
X12743991Y-14324460D01*
X12743991Y-14324460D02*
X12734467Y-14314936D01*
X12734467Y-14314936D02*
X12724943Y-14295888D01*
X12724943Y-14295888D02*
X12715420Y-14257793D01*
X12715420Y-14257793D02*
X12715420Y-14210174D01*
X12715420Y-14210174D02*
X12724943Y-14172079D01*
X12724943Y-14172079D02*
X12734467Y-14153031D01*
X12734467Y-14153031D02*
X12743991Y-14143508D01*
X12743991Y-14143508D02*
X12763039Y-14133984D01*
X12915420Y-14333984D02*
X12915420Y-14200650D01*
X12915420Y-14219698D02*
X12924943Y-14210174D01*
X12924943Y-14210174D02*
X12943991Y-14200650D01*
X12943991Y-14200650D02*
X12972563Y-14200650D01*
X12972563Y-14200650D02*
X12991610Y-14210174D01*
X12991610Y-14210174D02*
X13001134Y-14229222D01*
X13001134Y-14229222D02*
X13001134Y-14333984D01*
X13001134Y-14229222D02*
X13010658Y-14210174D01*
X13010658Y-14210174D02*
X13029705Y-14200650D01*
X13029705Y-14200650D02*
X13058277Y-14200650D01*
X13058277Y-14200650D02*
X13077324Y-14210174D01*
X13077324Y-14210174D02*
X13086848Y-14229222D01*
X13086848Y-14229222D02*
X13086848Y-14333984D01*
X13182086Y-14333984D02*
X13182086Y-14200650D01*
X13182086Y-14219698D02*
X13191610Y-14210174D01*
X13191610Y-14210174D02*
X13210658Y-14200650D01*
X13210658Y-14200650D02*
X13239229Y-14200650D01*
X13239229Y-14200650D02*
X13258277Y-14210174D01*
X13258277Y-14210174D02*
X13267801Y-14229222D01*
X13267801Y-14229222D02*
X13267801Y-14333984D01*
X13267801Y-14229222D02*
X13277324Y-14210174D01*
X13277324Y-14210174D02*
X13296372Y-14200650D01*
X13296372Y-14200650D02*
X13324943Y-14200650D01*
X13324943Y-14200650D02*
X13343991Y-14210174D01*
X13343991Y-14210174D02*
X13353515Y-14229222D01*
X13353515Y-14229222D02*
X13353515Y-14333984D01*
X13743991Y-14124460D02*
X13572563Y-14381603D01*
X14001134Y-14133984D02*
X14020182Y-14133984D01*
X14020182Y-14133984D02*
X14039229Y-14143508D01*
X14039229Y-14143508D02*
X14048753Y-14153031D01*
X14048753Y-14153031D02*
X14058277Y-14172079D01*
X14058277Y-14172079D02*
X14067801Y-14210174D01*
X14067801Y-14210174D02*
X14067801Y-14257793D01*
X14067801Y-14257793D02*
X14058277Y-14295888D01*
X14058277Y-14295888D02*
X14048753Y-14314936D01*
X14048753Y-14314936D02*
X14039229Y-14324460D01*
X14039229Y-14324460D02*
X14020182Y-14333984D01*
X14020182Y-14333984D02*
X14001134Y-14333984D01*
X14001134Y-14333984D02*
X13982086Y-14324460D01*
X13982086Y-14324460D02*
X13972563Y-14314936D01*
X13972563Y-14314936D02*
X13963039Y-14295888D01*
X13963039Y-14295888D02*
X13953515Y-14257793D01*
X13953515Y-14257793D02*
X13953515Y-14210174D01*
X13953515Y-14210174D02*
X13963039Y-14172079D01*
X13963039Y-14172079D02*
X13972563Y-14153031D01*
X13972563Y-14153031D02*
X13982086Y-14143508D01*
X13982086Y-14143508D02*
X14001134Y-14133984D01*
X14153515Y-14314936D02*
X14163039Y-14324460D01*
X14163039Y-14324460D02*
X14153515Y-14333984D01*
X14153515Y-14333984D02*
X14143991Y-14324460D01*
X14143991Y-14324460D02*
X14153515Y-14314936D01*
X14153515Y-14314936D02*
X14153515Y-14333984D01*
X14286848Y-14133984D02*
X14305896Y-14133984D01*
X14305896Y-14133984D02*
X14324944Y-14143508D01*
X14324944Y-14143508D02*
X14334467Y-14153031D01*
X14334467Y-14153031D02*
X14343991Y-14172079D01*
X14343991Y-14172079D02*
X14353515Y-14210174D01*
X14353515Y-14210174D02*
X14353515Y-14257793D01*
X14353515Y-14257793D02*
X14343991Y-14295888D01*
X14343991Y-14295888D02*
X14334467Y-14314936D01*
X14334467Y-14314936D02*
X14324944Y-14324460D01*
X14324944Y-14324460D02*
X14305896Y-14333984D01*
X14305896Y-14333984D02*
X14286848Y-14333984D01*
X14286848Y-14333984D02*
X14267801Y-14324460D01*
X14267801Y-14324460D02*
X14258277Y-14314936D01*
X14258277Y-14314936D02*
X14248753Y-14295888D01*
X14248753Y-14295888D02*
X14239229Y-14257793D01*
X14239229Y-14257793D02*
X14239229Y-14210174D01*
X14239229Y-14210174D02*
X14248753Y-14172079D01*
X14248753Y-14172079D02*
X14258277Y-14153031D01*
X14258277Y-14153031D02*
X14267801Y-14143508D01*
X14267801Y-14143508D02*
X14286848Y-14133984D01*
X14543991Y-14333984D02*
X14429706Y-14333984D01*
X14486848Y-14333984D02*
X14486848Y-14133984D01*
X14486848Y-14133984D02*
X14467801Y-14162555D01*
X14467801Y-14162555D02*
X14448753Y-14181603D01*
X14448753Y-14181603D02*
X14429706Y-14191127D01*
X14734467Y-14333984D02*
X14620182Y-14333984D01*
X14677325Y-14333984D02*
X14677325Y-14133984D01*
X14677325Y-14133984D02*
X14658277Y-14162555D01*
X14658277Y-14162555D02*
X14639229Y-14181603D01*
X14639229Y-14181603D02*
X14620182Y-14191127D01*
X14848753Y-14219698D02*
X14829706Y-14210174D01*
X14829706Y-14210174D02*
X14820182Y-14200650D01*
X14820182Y-14200650D02*
X14810658Y-14181603D01*
X14810658Y-14181603D02*
X14810658Y-14172079D01*
X14810658Y-14172079D02*
X14820182Y-14153031D01*
X14820182Y-14153031D02*
X14829706Y-14143508D01*
X14829706Y-14143508D02*
X14848753Y-14133984D01*
X14848753Y-14133984D02*
X14886848Y-14133984D01*
X14886848Y-14133984D02*
X14905896Y-14143508D01*
X14905896Y-14143508D02*
X14915420Y-14153031D01*
X14915420Y-14153031D02*
X14924944Y-14172079D01*
X14924944Y-14172079D02*
X14924944Y-14181603D01*
X14924944Y-14181603D02*
X14915420Y-14200650D01*
X14915420Y-14200650D02*
X14905896Y-14210174D01*
X14905896Y-14210174D02*
X14886848Y-14219698D01*
X14886848Y-14219698D02*
X14848753Y-14219698D01*
X14848753Y-14219698D02*
X14829706Y-14229222D01*
X14829706Y-14229222D02*
X14820182Y-14238746D01*
X14820182Y-14238746D02*
X14810658Y-14257793D01*
X14810658Y-14257793D02*
X14810658Y-14295888D01*
X14810658Y-14295888D02*
X14820182Y-14314936D01*
X14820182Y-14314936D02*
X14829706Y-14324460D01*
X14829706Y-14324460D02*
X14848753Y-14333984D01*
X14848753Y-14333984D02*
X14886848Y-14333984D01*
X14886848Y-14333984D02*
X14905896Y-14324460D01*
X14905896Y-14324460D02*
X14915420Y-14314936D01*
X14915420Y-14314936D02*
X14924944Y-14295888D01*
X14924944Y-14295888D02*
X14924944Y-14257793D01*
X14924944Y-14257793D02*
X14915420Y-14238746D01*
X14915420Y-14238746D02*
X14905896Y-14229222D01*
X14905896Y-14229222D02*
X14886848Y-14219698D01*
X15001134Y-14133984D02*
X15001134Y-14172079D01*
X15077325Y-14133984D02*
X15077325Y-14172079D01*
X15372563Y-14410174D02*
X15363039Y-14400650D01*
X15363039Y-14400650D02*
X15343991Y-14372079D01*
X15343991Y-14372079D02*
X15334468Y-14353031D01*
X15334468Y-14353031D02*
X15324944Y-14324460D01*
X15324944Y-14324460D02*
X15315420Y-14276841D01*
X15315420Y-14276841D02*
X15315420Y-14238746D01*
X15315420Y-14238746D02*
X15324944Y-14191127D01*
X15324944Y-14191127D02*
X15334468Y-14162555D01*
X15334468Y-14162555D02*
X15343991Y-14143508D01*
X15343991Y-14143508D02*
X15363039Y-14114936D01*
X15363039Y-14114936D02*
X15372563Y-14105412D01*
X15553515Y-14333984D02*
X15439229Y-14333984D01*
X15496372Y-14333984D02*
X15496372Y-14133984D01*
X15496372Y-14133984D02*
X15477325Y-14162555D01*
X15477325Y-14162555D02*
X15458277Y-14181603D01*
X15458277Y-14181603D02*
X15439229Y-14191127D01*
X15724944Y-14133984D02*
X15686848Y-14133984D01*
X15686848Y-14133984D02*
X15667801Y-14143508D01*
X15667801Y-14143508D02*
X15658277Y-14153031D01*
X15658277Y-14153031D02*
X15639229Y-14181603D01*
X15639229Y-14181603D02*
X15629706Y-14219698D01*
X15629706Y-14219698D02*
X15629706Y-14295888D01*
X15629706Y-14295888D02*
X15639229Y-14314936D01*
X15639229Y-14314936D02*
X15648753Y-14324460D01*
X15648753Y-14324460D02*
X15667801Y-14333984D01*
X15667801Y-14333984D02*
X15705896Y-14333984D01*
X15705896Y-14333984D02*
X15724944Y-14324460D01*
X15724944Y-14324460D02*
X15734468Y-14314936D01*
X15734468Y-14314936D02*
X15743991Y-14295888D01*
X15743991Y-14295888D02*
X15743991Y-14248269D01*
X15743991Y-14248269D02*
X15734468Y-14229222D01*
X15734468Y-14229222D02*
X15724944Y-14219698D01*
X15724944Y-14219698D02*
X15705896Y-14210174D01*
X15705896Y-14210174D02*
X15667801Y-14210174D01*
X15667801Y-14210174D02*
X15648753Y-14219698D01*
X15648753Y-14219698D02*
X15639229Y-14229222D01*
X15639229Y-14229222D02*
X15629706Y-14248269D01*
X15982087Y-14333984D02*
X15982087Y-14133984D01*
X16067801Y-14333984D02*
X16067801Y-14229222D01*
X16067801Y-14229222D02*
X16058277Y-14210174D01*
X16058277Y-14210174D02*
X16039230Y-14200650D01*
X16039230Y-14200650D02*
X16010658Y-14200650D01*
X16010658Y-14200650D02*
X15991610Y-14210174D01*
X15991610Y-14210174D02*
X15982087Y-14219698D01*
X16191610Y-14333984D02*
X16172563Y-14324460D01*
X16172563Y-14324460D02*
X16163039Y-14314936D01*
X16163039Y-14314936D02*
X16153515Y-14295888D01*
X16153515Y-14295888D02*
X16153515Y-14238746D01*
X16153515Y-14238746D02*
X16163039Y-14219698D01*
X16163039Y-14219698D02*
X16172563Y-14210174D01*
X16172563Y-14210174D02*
X16191610Y-14200650D01*
X16191610Y-14200650D02*
X16220182Y-14200650D01*
X16220182Y-14200650D02*
X16239230Y-14210174D01*
X16239230Y-14210174D02*
X16248753Y-14219698D01*
X16248753Y-14219698D02*
X16258277Y-14238746D01*
X16258277Y-14238746D02*
X16258277Y-14295888D01*
X16258277Y-14295888D02*
X16248753Y-14314936D01*
X16248753Y-14314936D02*
X16239230Y-14324460D01*
X16239230Y-14324460D02*
X16220182Y-14333984D01*
X16220182Y-14333984D02*
X16191610Y-14333984D01*
X16372563Y-14333984D02*
X16353515Y-14324460D01*
X16353515Y-14324460D02*
X16343991Y-14305412D01*
X16343991Y-14305412D02*
X16343991Y-14133984D01*
X16524944Y-14324460D02*
X16505896Y-14333984D01*
X16505896Y-14333984D02*
X16467801Y-14333984D01*
X16467801Y-14333984D02*
X16448753Y-14324460D01*
X16448753Y-14324460D02*
X16439230Y-14305412D01*
X16439230Y-14305412D02*
X16439230Y-14229222D01*
X16439230Y-14229222D02*
X16448753Y-14210174D01*
X16448753Y-14210174D02*
X16467801Y-14200650D01*
X16467801Y-14200650D02*
X16505896Y-14200650D01*
X16505896Y-14200650D02*
X16524944Y-14210174D01*
X16524944Y-14210174D02*
X16534468Y-14229222D01*
X16534468Y-14229222D02*
X16534468Y-14248269D01*
X16534468Y-14248269D02*
X16439230Y-14267317D01*
X16610658Y-14324460D02*
X16629706Y-14333984D01*
X16629706Y-14333984D02*
X16667801Y-14333984D01*
X16667801Y-14333984D02*
X16686849Y-14324460D01*
X16686849Y-14324460D02*
X16696372Y-14305412D01*
X16696372Y-14305412D02*
X16696372Y-14295888D01*
X16696372Y-14295888D02*
X16686849Y-14276841D01*
X16686849Y-14276841D02*
X16667801Y-14267317D01*
X16667801Y-14267317D02*
X16639230Y-14267317D01*
X16639230Y-14267317D02*
X16620182Y-14257793D01*
X16620182Y-14257793D02*
X16610658Y-14238746D01*
X16610658Y-14238746D02*
X16610658Y-14229222D01*
X16610658Y-14229222D02*
X16620182Y-14210174D01*
X16620182Y-14210174D02*
X16639230Y-14200650D01*
X16639230Y-14200650D02*
X16667801Y-14200650D01*
X16667801Y-14200650D02*
X16686849Y-14210174D01*
X16763039Y-14410174D02*
X16772563Y-14400650D01*
X16772563Y-14400650D02*
X16791611Y-14372079D01*
X16791611Y-14372079D02*
X16801134Y-14353031D01*
X16801134Y-14353031D02*
X16810658Y-14324460D01*
X16810658Y-14324460D02*
X16820182Y-14276841D01*
X16820182Y-14276841D02*
X16820182Y-14238746D01*
X16820182Y-14238746D02*
X16810658Y-14191127D01*
X16810658Y-14191127D02*
X16801134Y-14162555D01*
X16801134Y-14162555D02*
X16791611Y-14143508D01*
X16791611Y-14143508D02*
X16772563Y-14114936D01*
X16772563Y-14114936D02*
X16763039Y-14105412D01*
D12*
X11797500Y-14506500D02*
G75*
G02*
X11757500Y-14506500I-20000J0D01*
G01*
X11757500Y-14506500D02*
G75*
G02*
X11797500Y-14506500I20000J0D01*
G01*
D11*
X12096372Y-14397984D02*
X12115420Y-14397984D01*
X12115420Y-14397984D02*
X12134467Y-14407508D01*
X12134467Y-14407508D02*
X12143991Y-14417031D01*
X12143991Y-14417031D02*
X12153515Y-14436079D01*
X12153515Y-14436079D02*
X12163039Y-14474174D01*
X12163039Y-14474174D02*
X12163039Y-14521793D01*
X12163039Y-14521793D02*
X12153515Y-14559888D01*
X12153515Y-14559888D02*
X12143991Y-14578936D01*
X12143991Y-14578936D02*
X12134467Y-14588460D01*
X12134467Y-14588460D02*
X12115420Y-14597984D01*
X12115420Y-14597984D02*
X12096372Y-14597984D01*
X12096372Y-14597984D02*
X12077324Y-14588460D01*
X12077324Y-14588460D02*
X12067801Y-14578936D01*
X12067801Y-14578936D02*
X12058277Y-14559888D01*
X12058277Y-14559888D02*
X12048753Y-14521793D01*
X12048753Y-14521793D02*
X12048753Y-14474174D01*
X12048753Y-14474174D02*
X12058277Y-14436079D01*
X12058277Y-14436079D02*
X12067801Y-14417031D01*
X12067801Y-14417031D02*
X12077324Y-14407508D01*
X12077324Y-14407508D02*
X12096372Y-14397984D01*
X12248753Y-14578936D02*
X12258277Y-14588460D01*
X12258277Y-14588460D02*
X12248753Y-14597984D01*
X12248753Y-14597984D02*
X12239229Y-14588460D01*
X12239229Y-14588460D02*
X12248753Y-14578936D01*
X12248753Y-14578936D02*
X12248753Y-14597984D01*
X12429705Y-14464650D02*
X12429705Y-14597984D01*
X12382086Y-14388460D02*
X12334467Y-14531317D01*
X12334467Y-14531317D02*
X12458277Y-14531317D01*
X12572562Y-14397984D02*
X12591610Y-14397984D01*
X12591610Y-14397984D02*
X12610658Y-14407508D01*
X12610658Y-14407508D02*
X12620182Y-14417031D01*
X12620182Y-14417031D02*
X12629705Y-14436079D01*
X12629705Y-14436079D02*
X12639229Y-14474174D01*
X12639229Y-14474174D02*
X12639229Y-14521793D01*
X12639229Y-14521793D02*
X12629705Y-14559888D01*
X12629705Y-14559888D02*
X12620182Y-14578936D01*
X12620182Y-14578936D02*
X12610658Y-14588460D01*
X12610658Y-14588460D02*
X12591610Y-14597984D01*
X12591610Y-14597984D02*
X12572562Y-14597984D01*
X12572562Y-14597984D02*
X12553515Y-14588460D01*
X12553515Y-14588460D02*
X12543991Y-14578936D01*
X12543991Y-14578936D02*
X12534467Y-14559888D01*
X12534467Y-14559888D02*
X12524943Y-14521793D01*
X12524943Y-14521793D02*
X12524943Y-14474174D01*
X12524943Y-14474174D02*
X12534467Y-14436079D01*
X12534467Y-14436079D02*
X12543991Y-14417031D01*
X12543991Y-14417031D02*
X12553515Y-14407508D01*
X12553515Y-14407508D02*
X12572562Y-14397984D01*
X12763039Y-14397984D02*
X12782086Y-14397984D01*
X12782086Y-14397984D02*
X12801134Y-14407508D01*
X12801134Y-14407508D02*
X12810658Y-14417031D01*
X12810658Y-14417031D02*
X12820182Y-14436079D01*
X12820182Y-14436079D02*
X12829705Y-14474174D01*
X12829705Y-14474174D02*
X12829705Y-14521793D01*
X12829705Y-14521793D02*
X12820182Y-14559888D01*
X12820182Y-14559888D02*
X12810658Y-14578936D01*
X12810658Y-14578936D02*
X12801134Y-14588460D01*
X12801134Y-14588460D02*
X12782086Y-14597984D01*
X12782086Y-14597984D02*
X12763039Y-14597984D01*
X12763039Y-14597984D02*
X12743991Y-14588460D01*
X12743991Y-14588460D02*
X12734467Y-14578936D01*
X12734467Y-14578936D02*
X12724943Y-14559888D01*
X12724943Y-14559888D02*
X12715420Y-14521793D01*
X12715420Y-14521793D02*
X12715420Y-14474174D01*
X12715420Y-14474174D02*
X12724943Y-14436079D01*
X12724943Y-14436079D02*
X12734467Y-14417031D01*
X12734467Y-14417031D02*
X12743991Y-14407508D01*
X12743991Y-14407508D02*
X12763039Y-14397984D01*
X12915420Y-14597984D02*
X12915420Y-14464650D01*
X12915420Y-14483698D02*
X12924943Y-14474174D01*
X12924943Y-14474174D02*
X12943991Y-14464650D01*
X12943991Y-14464650D02*
X12972563Y-14464650D01*
X12972563Y-14464650D02*
X12991610Y-14474174D01*
X12991610Y-14474174D02*
X13001134Y-14493222D01*
X13001134Y-14493222D02*
X13001134Y-14597984D01*
X13001134Y-14493222D02*
X13010658Y-14474174D01*
X13010658Y-14474174D02*
X13029705Y-14464650D01*
X13029705Y-14464650D02*
X13058277Y-14464650D01*
X13058277Y-14464650D02*
X13077324Y-14474174D01*
X13077324Y-14474174D02*
X13086848Y-14493222D01*
X13086848Y-14493222D02*
X13086848Y-14597984D01*
X13182086Y-14597984D02*
X13182086Y-14464650D01*
X13182086Y-14483698D02*
X13191610Y-14474174D01*
X13191610Y-14474174D02*
X13210658Y-14464650D01*
X13210658Y-14464650D02*
X13239229Y-14464650D01*
X13239229Y-14464650D02*
X13258277Y-14474174D01*
X13258277Y-14474174D02*
X13267801Y-14493222D01*
X13267801Y-14493222D02*
X13267801Y-14597984D01*
X13267801Y-14493222D02*
X13277324Y-14474174D01*
X13277324Y-14474174D02*
X13296372Y-14464650D01*
X13296372Y-14464650D02*
X13324943Y-14464650D01*
X13324943Y-14464650D02*
X13343991Y-14474174D01*
X13343991Y-14474174D02*
X13353515Y-14493222D01*
X13353515Y-14493222D02*
X13353515Y-14597984D01*
X13743991Y-14388460D02*
X13572563Y-14645603D01*
X14001134Y-14397984D02*
X14020182Y-14397984D01*
X14020182Y-14397984D02*
X14039229Y-14407508D01*
X14039229Y-14407508D02*
X14048753Y-14417031D01*
X14048753Y-14417031D02*
X14058277Y-14436079D01*
X14058277Y-14436079D02*
X14067801Y-14474174D01*
X14067801Y-14474174D02*
X14067801Y-14521793D01*
X14067801Y-14521793D02*
X14058277Y-14559888D01*
X14058277Y-14559888D02*
X14048753Y-14578936D01*
X14048753Y-14578936D02*
X14039229Y-14588460D01*
X14039229Y-14588460D02*
X14020182Y-14597984D01*
X14020182Y-14597984D02*
X14001134Y-14597984D01*
X14001134Y-14597984D02*
X13982086Y-14588460D01*
X13982086Y-14588460D02*
X13972563Y-14578936D01*
X13972563Y-14578936D02*
X13963039Y-14559888D01*
X13963039Y-14559888D02*
X13953515Y-14521793D01*
X13953515Y-14521793D02*
X13953515Y-14474174D01*
X13953515Y-14474174D02*
X13963039Y-14436079D01*
X13963039Y-14436079D02*
X13972563Y-14417031D01*
X13972563Y-14417031D02*
X13982086Y-14407508D01*
X13982086Y-14407508D02*
X14001134Y-14397984D01*
X14153515Y-14578936D02*
X14163039Y-14588460D01*
X14163039Y-14588460D02*
X14153515Y-14597984D01*
X14153515Y-14597984D02*
X14143991Y-14588460D01*
X14143991Y-14588460D02*
X14153515Y-14578936D01*
X14153515Y-14578936D02*
X14153515Y-14597984D01*
X14286848Y-14397984D02*
X14305896Y-14397984D01*
X14305896Y-14397984D02*
X14324944Y-14407508D01*
X14324944Y-14407508D02*
X14334467Y-14417031D01*
X14334467Y-14417031D02*
X14343991Y-14436079D01*
X14343991Y-14436079D02*
X14353515Y-14474174D01*
X14353515Y-14474174D02*
X14353515Y-14521793D01*
X14353515Y-14521793D02*
X14343991Y-14559888D01*
X14343991Y-14559888D02*
X14334467Y-14578936D01*
X14334467Y-14578936D02*
X14324944Y-14588460D01*
X14324944Y-14588460D02*
X14305896Y-14597984D01*
X14305896Y-14597984D02*
X14286848Y-14597984D01*
X14286848Y-14597984D02*
X14267801Y-14588460D01*
X14267801Y-14588460D02*
X14258277Y-14578936D01*
X14258277Y-14578936D02*
X14248753Y-14559888D01*
X14248753Y-14559888D02*
X14239229Y-14521793D01*
X14239229Y-14521793D02*
X14239229Y-14474174D01*
X14239229Y-14474174D02*
X14248753Y-14436079D01*
X14248753Y-14436079D02*
X14258277Y-14417031D01*
X14258277Y-14417031D02*
X14267801Y-14407508D01*
X14267801Y-14407508D02*
X14286848Y-14397984D01*
X14543991Y-14597984D02*
X14429706Y-14597984D01*
X14486848Y-14597984D02*
X14486848Y-14397984D01*
X14486848Y-14397984D02*
X14467801Y-14426555D01*
X14467801Y-14426555D02*
X14448753Y-14445603D01*
X14448753Y-14445603D02*
X14429706Y-14455127D01*
X14724944Y-14397984D02*
X14629706Y-14397984D01*
X14629706Y-14397984D02*
X14620182Y-14493222D01*
X14620182Y-14493222D02*
X14629706Y-14483698D01*
X14629706Y-14483698D02*
X14648753Y-14474174D01*
X14648753Y-14474174D02*
X14696372Y-14474174D01*
X14696372Y-14474174D02*
X14715420Y-14483698D01*
X14715420Y-14483698D02*
X14724944Y-14493222D01*
X14724944Y-14493222D02*
X14734467Y-14512269D01*
X14734467Y-14512269D02*
X14734467Y-14559888D01*
X14734467Y-14559888D02*
X14724944Y-14578936D01*
X14724944Y-14578936D02*
X14715420Y-14588460D01*
X14715420Y-14588460D02*
X14696372Y-14597984D01*
X14696372Y-14597984D02*
X14648753Y-14597984D01*
X14648753Y-14597984D02*
X14629706Y-14588460D01*
X14629706Y-14588460D02*
X14620182Y-14578936D01*
X14801134Y-14397984D02*
X14934467Y-14397984D01*
X14934467Y-14397984D02*
X14848753Y-14597984D01*
X15001134Y-14397984D02*
X15001134Y-14436079D01*
X15077325Y-14397984D02*
X15077325Y-14436079D01*
X15372563Y-14674174D02*
X15363039Y-14664650D01*
X15363039Y-14664650D02*
X15343991Y-14636079D01*
X15343991Y-14636079D02*
X15334468Y-14617031D01*
X15334468Y-14617031D02*
X15324944Y-14588460D01*
X15324944Y-14588460D02*
X15315420Y-14540841D01*
X15315420Y-14540841D02*
X15315420Y-14502746D01*
X15315420Y-14502746D02*
X15324944Y-14455127D01*
X15324944Y-14455127D02*
X15334468Y-14426555D01*
X15334468Y-14426555D02*
X15343991Y-14407508D01*
X15343991Y-14407508D02*
X15363039Y-14378936D01*
X15363039Y-14378936D02*
X15372563Y-14369412D01*
X15429706Y-14397984D02*
X15553515Y-14397984D01*
X15553515Y-14397984D02*
X15486848Y-14474174D01*
X15486848Y-14474174D02*
X15515420Y-14474174D01*
X15515420Y-14474174D02*
X15534468Y-14483698D01*
X15534468Y-14483698D02*
X15543991Y-14493222D01*
X15543991Y-14493222D02*
X15553515Y-14512269D01*
X15553515Y-14512269D02*
X15553515Y-14559888D01*
X15553515Y-14559888D02*
X15543991Y-14578936D01*
X15543991Y-14578936D02*
X15534468Y-14588460D01*
X15534468Y-14588460D02*
X15515420Y-14597984D01*
X15515420Y-14597984D02*
X15458277Y-14597984D01*
X15458277Y-14597984D02*
X15439229Y-14588460D01*
X15439229Y-14588460D02*
X15429706Y-14578936D01*
X15629706Y-14417031D02*
X15639229Y-14407508D01*
X15639229Y-14407508D02*
X15658277Y-14397984D01*
X15658277Y-14397984D02*
X15705896Y-14397984D01*
X15705896Y-14397984D02*
X15724944Y-14407508D01*
X15724944Y-14407508D02*
X15734468Y-14417031D01*
X15734468Y-14417031D02*
X15743991Y-14436079D01*
X15743991Y-14436079D02*
X15743991Y-14455127D01*
X15743991Y-14455127D02*
X15734468Y-14483698D01*
X15734468Y-14483698D02*
X15620182Y-14597984D01*
X15620182Y-14597984D02*
X15743991Y-14597984D01*
X15982087Y-14597984D02*
X15982087Y-14397984D01*
X16067801Y-14597984D02*
X16067801Y-14493222D01*
X16067801Y-14493222D02*
X16058277Y-14474174D01*
X16058277Y-14474174D02*
X16039230Y-14464650D01*
X16039230Y-14464650D02*
X16010658Y-14464650D01*
X16010658Y-14464650D02*
X15991610Y-14474174D01*
X15991610Y-14474174D02*
X15982087Y-14483698D01*
X16191610Y-14597984D02*
X16172563Y-14588460D01*
X16172563Y-14588460D02*
X16163039Y-14578936D01*
X16163039Y-14578936D02*
X16153515Y-14559888D01*
X16153515Y-14559888D02*
X16153515Y-14502746D01*
X16153515Y-14502746D02*
X16163039Y-14483698D01*
X16163039Y-14483698D02*
X16172563Y-14474174D01*
X16172563Y-14474174D02*
X16191610Y-14464650D01*
X16191610Y-14464650D02*
X16220182Y-14464650D01*
X16220182Y-14464650D02*
X16239230Y-14474174D01*
X16239230Y-14474174D02*
X16248753Y-14483698D01*
X16248753Y-14483698D02*
X16258277Y-14502746D01*
X16258277Y-14502746D02*
X16258277Y-14559888D01*
X16258277Y-14559888D02*
X16248753Y-14578936D01*
X16248753Y-14578936D02*
X16239230Y-14588460D01*
X16239230Y-14588460D02*
X16220182Y-14597984D01*
X16220182Y-14597984D02*
X16191610Y-14597984D01*
X16372563Y-14597984D02*
X16353515Y-14588460D01*
X16353515Y-14588460D02*
X16343991Y-14569412D01*
X16343991Y-14569412D02*
X16343991Y-14397984D01*
X16524944Y-14588460D02*
X16505896Y-14597984D01*
X16505896Y-14597984D02*
X16467801Y-14597984D01*
X16467801Y-14597984D02*
X16448753Y-14588460D01*
X16448753Y-14588460D02*
X16439230Y-14569412D01*
X16439230Y-14569412D02*
X16439230Y-14493222D01*
X16439230Y-14493222D02*
X16448753Y-14474174D01*
X16448753Y-14474174D02*
X16467801Y-14464650D01*
X16467801Y-14464650D02*
X16505896Y-14464650D01*
X16505896Y-14464650D02*
X16524944Y-14474174D01*
X16524944Y-14474174D02*
X16534468Y-14493222D01*
X16534468Y-14493222D02*
X16534468Y-14512269D01*
X16534468Y-14512269D02*
X16439230Y-14531317D01*
X16610658Y-14588460D02*
X16629706Y-14597984D01*
X16629706Y-14597984D02*
X16667801Y-14597984D01*
X16667801Y-14597984D02*
X16686849Y-14588460D01*
X16686849Y-14588460D02*
X16696372Y-14569412D01*
X16696372Y-14569412D02*
X16696372Y-14559888D01*
X16696372Y-14559888D02*
X16686849Y-14540841D01*
X16686849Y-14540841D02*
X16667801Y-14531317D01*
X16667801Y-14531317D02*
X16639230Y-14531317D01*
X16639230Y-14531317D02*
X16620182Y-14521793D01*
X16620182Y-14521793D02*
X16610658Y-14502746D01*
X16610658Y-14502746D02*
X16610658Y-14493222D01*
X16610658Y-14493222D02*
X16620182Y-14474174D01*
X16620182Y-14474174D02*
X16639230Y-14464650D01*
X16639230Y-14464650D02*
X16667801Y-14464650D01*
X16667801Y-14464650D02*
X16686849Y-14474174D01*
X16763039Y-14674174D02*
X16772563Y-14664650D01*
X16772563Y-14664650D02*
X16791611Y-14636079D01*
X16791611Y-14636079D02*
X16801134Y-14617031D01*
X16801134Y-14617031D02*
X16810658Y-14588460D01*
X16810658Y-14588460D02*
X16820182Y-14540841D01*
X16820182Y-14540841D02*
X16820182Y-14502746D01*
X16820182Y-14502746D02*
X16810658Y-14455127D01*
X16810658Y-14455127D02*
X16801134Y-14426555D01*
X16801134Y-14426555D02*
X16791611Y-14407508D01*
X16791611Y-14407508D02*
X16772563Y-14378936D01*
X16772563Y-14378936D02*
X16763039Y-14369412D01*
D12*
X11747500Y-14720500D02*
X11747500Y-14820500D01*
X11697500Y-14770500D02*
X11797500Y-14770500D01*
D11*
X12163039Y-14861984D02*
X12048753Y-14861984D01*
X12105896Y-14861984D02*
X12105896Y-14661984D01*
X12105896Y-14661984D02*
X12086848Y-14690555D01*
X12086848Y-14690555D02*
X12067801Y-14709603D01*
X12067801Y-14709603D02*
X12048753Y-14719127D01*
X12248753Y-14842936D02*
X12258277Y-14852460D01*
X12258277Y-14852460D02*
X12248753Y-14861984D01*
X12248753Y-14861984D02*
X12239229Y-14852460D01*
X12239229Y-14852460D02*
X12248753Y-14842936D01*
X12248753Y-14842936D02*
X12248753Y-14861984D01*
X12382086Y-14661984D02*
X12401134Y-14661984D01*
X12401134Y-14661984D02*
X12420182Y-14671508D01*
X12420182Y-14671508D02*
X12429705Y-14681031D01*
X12429705Y-14681031D02*
X12439229Y-14700079D01*
X12439229Y-14700079D02*
X12448753Y-14738174D01*
X12448753Y-14738174D02*
X12448753Y-14785793D01*
X12448753Y-14785793D02*
X12439229Y-14823888D01*
X12439229Y-14823888D02*
X12429705Y-14842936D01*
X12429705Y-14842936D02*
X12420182Y-14852460D01*
X12420182Y-14852460D02*
X12401134Y-14861984D01*
X12401134Y-14861984D02*
X12382086Y-14861984D01*
X12382086Y-14861984D02*
X12363039Y-14852460D01*
X12363039Y-14852460D02*
X12353515Y-14842936D01*
X12353515Y-14842936D02*
X12343991Y-14823888D01*
X12343991Y-14823888D02*
X12334467Y-14785793D01*
X12334467Y-14785793D02*
X12334467Y-14738174D01*
X12334467Y-14738174D02*
X12343991Y-14700079D01*
X12343991Y-14700079D02*
X12353515Y-14681031D01*
X12353515Y-14681031D02*
X12363039Y-14671508D01*
X12363039Y-14671508D02*
X12382086Y-14661984D01*
X12572562Y-14661984D02*
X12591610Y-14661984D01*
X12591610Y-14661984D02*
X12610658Y-14671508D01*
X12610658Y-14671508D02*
X12620182Y-14681031D01*
X12620182Y-14681031D02*
X12629705Y-14700079D01*
X12629705Y-14700079D02*
X12639229Y-14738174D01*
X12639229Y-14738174D02*
X12639229Y-14785793D01*
X12639229Y-14785793D02*
X12629705Y-14823888D01*
X12629705Y-14823888D02*
X12620182Y-14842936D01*
X12620182Y-14842936D02*
X12610658Y-14852460D01*
X12610658Y-14852460D02*
X12591610Y-14861984D01*
X12591610Y-14861984D02*
X12572562Y-14861984D01*
X12572562Y-14861984D02*
X12553515Y-14852460D01*
X12553515Y-14852460D02*
X12543991Y-14842936D01*
X12543991Y-14842936D02*
X12534467Y-14823888D01*
X12534467Y-14823888D02*
X12524943Y-14785793D01*
X12524943Y-14785793D02*
X12524943Y-14738174D01*
X12524943Y-14738174D02*
X12534467Y-14700079D01*
X12534467Y-14700079D02*
X12543991Y-14681031D01*
X12543991Y-14681031D02*
X12553515Y-14671508D01*
X12553515Y-14671508D02*
X12572562Y-14661984D01*
X12763039Y-14661984D02*
X12782086Y-14661984D01*
X12782086Y-14661984D02*
X12801134Y-14671508D01*
X12801134Y-14671508D02*
X12810658Y-14681031D01*
X12810658Y-14681031D02*
X12820182Y-14700079D01*
X12820182Y-14700079D02*
X12829705Y-14738174D01*
X12829705Y-14738174D02*
X12829705Y-14785793D01*
X12829705Y-14785793D02*
X12820182Y-14823888D01*
X12820182Y-14823888D02*
X12810658Y-14842936D01*
X12810658Y-14842936D02*
X12801134Y-14852460D01*
X12801134Y-14852460D02*
X12782086Y-14861984D01*
X12782086Y-14861984D02*
X12763039Y-14861984D01*
X12763039Y-14861984D02*
X12743991Y-14852460D01*
X12743991Y-14852460D02*
X12734467Y-14842936D01*
X12734467Y-14842936D02*
X12724943Y-14823888D01*
X12724943Y-14823888D02*
X12715420Y-14785793D01*
X12715420Y-14785793D02*
X12715420Y-14738174D01*
X12715420Y-14738174D02*
X12724943Y-14700079D01*
X12724943Y-14700079D02*
X12734467Y-14681031D01*
X12734467Y-14681031D02*
X12743991Y-14671508D01*
X12743991Y-14671508D02*
X12763039Y-14661984D01*
X12915420Y-14861984D02*
X12915420Y-14728650D01*
X12915420Y-14747698D02*
X12924943Y-14738174D01*
X12924943Y-14738174D02*
X12943991Y-14728650D01*
X12943991Y-14728650D02*
X12972563Y-14728650D01*
X12972563Y-14728650D02*
X12991610Y-14738174D01*
X12991610Y-14738174D02*
X13001134Y-14757222D01*
X13001134Y-14757222D02*
X13001134Y-14861984D01*
X13001134Y-14757222D02*
X13010658Y-14738174D01*
X13010658Y-14738174D02*
X13029705Y-14728650D01*
X13029705Y-14728650D02*
X13058277Y-14728650D01*
X13058277Y-14728650D02*
X13077324Y-14738174D01*
X13077324Y-14738174D02*
X13086848Y-14757222D01*
X13086848Y-14757222D02*
X13086848Y-14861984D01*
X13182086Y-14861984D02*
X13182086Y-14728650D01*
X13182086Y-14747698D02*
X13191610Y-14738174D01*
X13191610Y-14738174D02*
X13210658Y-14728650D01*
X13210658Y-14728650D02*
X13239229Y-14728650D01*
X13239229Y-14728650D02*
X13258277Y-14738174D01*
X13258277Y-14738174D02*
X13267801Y-14757222D01*
X13267801Y-14757222D02*
X13267801Y-14861984D01*
X13267801Y-14757222D02*
X13277324Y-14738174D01*
X13277324Y-14738174D02*
X13296372Y-14728650D01*
X13296372Y-14728650D02*
X13324943Y-14728650D01*
X13324943Y-14728650D02*
X13343991Y-14738174D01*
X13343991Y-14738174D02*
X13353515Y-14757222D01*
X13353515Y-14757222D02*
X13353515Y-14861984D01*
X13743991Y-14652460D02*
X13572563Y-14909603D01*
X14001134Y-14661984D02*
X14020182Y-14661984D01*
X14020182Y-14661984D02*
X14039229Y-14671508D01*
X14039229Y-14671508D02*
X14048753Y-14681031D01*
X14048753Y-14681031D02*
X14058277Y-14700079D01*
X14058277Y-14700079D02*
X14067801Y-14738174D01*
X14067801Y-14738174D02*
X14067801Y-14785793D01*
X14067801Y-14785793D02*
X14058277Y-14823888D01*
X14058277Y-14823888D02*
X14048753Y-14842936D01*
X14048753Y-14842936D02*
X14039229Y-14852460D01*
X14039229Y-14852460D02*
X14020182Y-14861984D01*
X14020182Y-14861984D02*
X14001134Y-14861984D01*
X14001134Y-14861984D02*
X13982086Y-14852460D01*
X13982086Y-14852460D02*
X13972563Y-14842936D01*
X13972563Y-14842936D02*
X13963039Y-14823888D01*
X13963039Y-14823888D02*
X13953515Y-14785793D01*
X13953515Y-14785793D02*
X13953515Y-14738174D01*
X13953515Y-14738174D02*
X13963039Y-14700079D01*
X13963039Y-14700079D02*
X13972563Y-14681031D01*
X13972563Y-14681031D02*
X13982086Y-14671508D01*
X13982086Y-14671508D02*
X14001134Y-14661984D01*
X14153515Y-14842936D02*
X14163039Y-14852460D01*
X14163039Y-14852460D02*
X14153515Y-14861984D01*
X14153515Y-14861984D02*
X14143991Y-14852460D01*
X14143991Y-14852460D02*
X14153515Y-14842936D01*
X14153515Y-14842936D02*
X14153515Y-14861984D01*
X14286848Y-14661984D02*
X14305896Y-14661984D01*
X14305896Y-14661984D02*
X14324944Y-14671508D01*
X14324944Y-14671508D02*
X14334467Y-14681031D01*
X14334467Y-14681031D02*
X14343991Y-14700079D01*
X14343991Y-14700079D02*
X14353515Y-14738174D01*
X14353515Y-14738174D02*
X14353515Y-14785793D01*
X14353515Y-14785793D02*
X14343991Y-14823888D01*
X14343991Y-14823888D02*
X14334467Y-14842936D01*
X14334467Y-14842936D02*
X14324944Y-14852460D01*
X14324944Y-14852460D02*
X14305896Y-14861984D01*
X14305896Y-14861984D02*
X14286848Y-14861984D01*
X14286848Y-14861984D02*
X14267801Y-14852460D01*
X14267801Y-14852460D02*
X14258277Y-14842936D01*
X14258277Y-14842936D02*
X14248753Y-14823888D01*
X14248753Y-14823888D02*
X14239229Y-14785793D01*
X14239229Y-14785793D02*
X14239229Y-14738174D01*
X14239229Y-14738174D02*
X14248753Y-14700079D01*
X14248753Y-14700079D02*
X14258277Y-14681031D01*
X14258277Y-14681031D02*
X14267801Y-14671508D01*
X14267801Y-14671508D02*
X14286848Y-14661984D01*
X14420182Y-14661984D02*
X14543991Y-14661984D01*
X14543991Y-14661984D02*
X14477325Y-14738174D01*
X14477325Y-14738174D02*
X14505896Y-14738174D01*
X14505896Y-14738174D02*
X14524944Y-14747698D01*
X14524944Y-14747698D02*
X14534467Y-14757222D01*
X14534467Y-14757222D02*
X14543991Y-14776269D01*
X14543991Y-14776269D02*
X14543991Y-14823888D01*
X14543991Y-14823888D02*
X14534467Y-14842936D01*
X14534467Y-14842936D02*
X14524944Y-14852460D01*
X14524944Y-14852460D02*
X14505896Y-14861984D01*
X14505896Y-14861984D02*
X14448753Y-14861984D01*
X14448753Y-14861984D02*
X14429706Y-14852460D01*
X14429706Y-14852460D02*
X14420182Y-14842936D01*
X14639229Y-14861984D02*
X14677325Y-14861984D01*
X14677325Y-14861984D02*
X14696372Y-14852460D01*
X14696372Y-14852460D02*
X14705896Y-14842936D01*
X14705896Y-14842936D02*
X14724944Y-14814365D01*
X14724944Y-14814365D02*
X14734467Y-14776269D01*
X14734467Y-14776269D02*
X14734467Y-14700079D01*
X14734467Y-14700079D02*
X14724944Y-14681031D01*
X14724944Y-14681031D02*
X14715420Y-14671508D01*
X14715420Y-14671508D02*
X14696372Y-14661984D01*
X14696372Y-14661984D02*
X14658277Y-14661984D01*
X14658277Y-14661984D02*
X14639229Y-14671508D01*
X14639229Y-14671508D02*
X14629706Y-14681031D01*
X14629706Y-14681031D02*
X14620182Y-14700079D01*
X14620182Y-14700079D02*
X14620182Y-14747698D01*
X14620182Y-14747698D02*
X14629706Y-14766746D01*
X14629706Y-14766746D02*
X14639229Y-14776269D01*
X14639229Y-14776269D02*
X14658277Y-14785793D01*
X14658277Y-14785793D02*
X14696372Y-14785793D01*
X14696372Y-14785793D02*
X14715420Y-14776269D01*
X14715420Y-14776269D02*
X14724944Y-14766746D01*
X14724944Y-14766746D02*
X14734467Y-14747698D01*
X14905896Y-14728650D02*
X14905896Y-14861984D01*
X14858277Y-14652460D02*
X14810658Y-14795317D01*
X14810658Y-14795317D02*
X14934467Y-14795317D01*
X15001134Y-14661984D02*
X15001134Y-14700079D01*
X15077325Y-14661984D02*
X15077325Y-14700079D01*
X15372563Y-14938174D02*
X15363039Y-14928650D01*
X15363039Y-14928650D02*
X15343991Y-14900079D01*
X15343991Y-14900079D02*
X15334468Y-14881031D01*
X15334468Y-14881031D02*
X15324944Y-14852460D01*
X15324944Y-14852460D02*
X15315420Y-14804841D01*
X15315420Y-14804841D02*
X15315420Y-14766746D01*
X15315420Y-14766746D02*
X15324944Y-14719127D01*
X15324944Y-14719127D02*
X15334468Y-14690555D01*
X15334468Y-14690555D02*
X15343991Y-14671508D01*
X15343991Y-14671508D02*
X15363039Y-14642936D01*
X15363039Y-14642936D02*
X15372563Y-14633412D01*
X15553515Y-14861984D02*
X15439229Y-14861984D01*
X15496372Y-14861984D02*
X15496372Y-14661984D01*
X15496372Y-14661984D02*
X15477325Y-14690555D01*
X15477325Y-14690555D02*
X15458277Y-14709603D01*
X15458277Y-14709603D02*
X15439229Y-14719127D01*
X15724944Y-14661984D02*
X15686848Y-14661984D01*
X15686848Y-14661984D02*
X15667801Y-14671508D01*
X15667801Y-14671508D02*
X15658277Y-14681031D01*
X15658277Y-14681031D02*
X15639229Y-14709603D01*
X15639229Y-14709603D02*
X15629706Y-14747698D01*
X15629706Y-14747698D02*
X15629706Y-14823888D01*
X15629706Y-14823888D02*
X15639229Y-14842936D01*
X15639229Y-14842936D02*
X15648753Y-14852460D01*
X15648753Y-14852460D02*
X15667801Y-14861984D01*
X15667801Y-14861984D02*
X15705896Y-14861984D01*
X15705896Y-14861984D02*
X15724944Y-14852460D01*
X15724944Y-14852460D02*
X15734468Y-14842936D01*
X15734468Y-14842936D02*
X15743991Y-14823888D01*
X15743991Y-14823888D02*
X15743991Y-14776269D01*
X15743991Y-14776269D02*
X15734468Y-14757222D01*
X15734468Y-14757222D02*
X15724944Y-14747698D01*
X15724944Y-14747698D02*
X15705896Y-14738174D01*
X15705896Y-14738174D02*
X15667801Y-14738174D01*
X15667801Y-14738174D02*
X15648753Y-14747698D01*
X15648753Y-14747698D02*
X15639229Y-14757222D01*
X15639229Y-14757222D02*
X15629706Y-14776269D01*
X15982087Y-14861984D02*
X15982087Y-14661984D01*
X16067801Y-14861984D02*
X16067801Y-14757222D01*
X16067801Y-14757222D02*
X16058277Y-14738174D01*
X16058277Y-14738174D02*
X16039230Y-14728650D01*
X16039230Y-14728650D02*
X16010658Y-14728650D01*
X16010658Y-14728650D02*
X15991610Y-14738174D01*
X15991610Y-14738174D02*
X15982087Y-14747698D01*
X16191610Y-14861984D02*
X16172563Y-14852460D01*
X16172563Y-14852460D02*
X16163039Y-14842936D01*
X16163039Y-14842936D02*
X16153515Y-14823888D01*
X16153515Y-14823888D02*
X16153515Y-14766746D01*
X16153515Y-14766746D02*
X16163039Y-14747698D01*
X16163039Y-14747698D02*
X16172563Y-14738174D01*
X16172563Y-14738174D02*
X16191610Y-14728650D01*
X16191610Y-14728650D02*
X16220182Y-14728650D01*
X16220182Y-14728650D02*
X16239230Y-14738174D01*
X16239230Y-14738174D02*
X16248753Y-14747698D01*
X16248753Y-14747698D02*
X16258277Y-14766746D01*
X16258277Y-14766746D02*
X16258277Y-14823888D01*
X16258277Y-14823888D02*
X16248753Y-14842936D01*
X16248753Y-14842936D02*
X16239230Y-14852460D01*
X16239230Y-14852460D02*
X16220182Y-14861984D01*
X16220182Y-14861984D02*
X16191610Y-14861984D01*
X16372563Y-14861984D02*
X16353515Y-14852460D01*
X16353515Y-14852460D02*
X16343991Y-14833412D01*
X16343991Y-14833412D02*
X16343991Y-14661984D01*
X16524944Y-14852460D02*
X16505896Y-14861984D01*
X16505896Y-14861984D02*
X16467801Y-14861984D01*
X16467801Y-14861984D02*
X16448753Y-14852460D01*
X16448753Y-14852460D02*
X16439230Y-14833412D01*
X16439230Y-14833412D02*
X16439230Y-14757222D01*
X16439230Y-14757222D02*
X16448753Y-14738174D01*
X16448753Y-14738174D02*
X16467801Y-14728650D01*
X16467801Y-14728650D02*
X16505896Y-14728650D01*
X16505896Y-14728650D02*
X16524944Y-14738174D01*
X16524944Y-14738174D02*
X16534468Y-14757222D01*
X16534468Y-14757222D02*
X16534468Y-14776269D01*
X16534468Y-14776269D02*
X16439230Y-14795317D01*
X16610658Y-14852460D02*
X16629706Y-14861984D01*
X16629706Y-14861984D02*
X16667801Y-14861984D01*
X16667801Y-14861984D02*
X16686849Y-14852460D01*
X16686849Y-14852460D02*
X16696372Y-14833412D01*
X16696372Y-14833412D02*
X16696372Y-14823888D01*
X16696372Y-14823888D02*
X16686849Y-14804841D01*
X16686849Y-14804841D02*
X16667801Y-14795317D01*
X16667801Y-14795317D02*
X16639230Y-14795317D01*
X16639230Y-14795317D02*
X16620182Y-14785793D01*
X16620182Y-14785793D02*
X16610658Y-14766746D01*
X16610658Y-14766746D02*
X16610658Y-14757222D01*
X16610658Y-14757222D02*
X16620182Y-14738174D01*
X16620182Y-14738174D02*
X16639230Y-14728650D01*
X16639230Y-14728650D02*
X16667801Y-14728650D01*
X16667801Y-14728650D02*
X16686849Y-14738174D01*
X16763039Y-14938174D02*
X16772563Y-14928650D01*
X16772563Y-14928650D02*
X16791611Y-14900079D01*
X16791611Y-14900079D02*
X16801134Y-14881031D01*
X16801134Y-14881031D02*
X16810658Y-14852460D01*
X16810658Y-14852460D02*
X16820182Y-14804841D01*
X16820182Y-14804841D02*
X16820182Y-14766746D01*
X16820182Y-14766746D02*
X16810658Y-14719127D01*
X16810658Y-14719127D02*
X16801134Y-14690555D01*
X16801134Y-14690555D02*
X16791611Y-14671508D01*
X16791611Y-14671508D02*
X16772563Y-14642936D01*
X16772563Y-14642936D02*
X16763039Y-14633412D01*
X11768211Y-15105211D02*
X11768211Y-14963789D01*
X11626789Y-14963789D01*
X11626789Y-15105211D01*
X11768211Y-15105211D01*
X12048753Y-14945031D02*
X12058277Y-14935508D01*
X12058277Y-14935508D02*
X12077324Y-14925984D01*
X12077324Y-14925984D02*
X12124943Y-14925984D01*
X12124943Y-14925984D02*
X12143991Y-14935508D01*
X12143991Y-14935508D02*
X12153515Y-14945031D01*
X12153515Y-14945031D02*
X12163039Y-14964079D01*
X12163039Y-14964079D02*
X12163039Y-14983127D01*
X12163039Y-14983127D02*
X12153515Y-15011698D01*
X12153515Y-15011698D02*
X12039229Y-15125984D01*
X12039229Y-15125984D02*
X12163039Y-15125984D01*
X12248753Y-15106936D02*
X12258277Y-15116460D01*
X12258277Y-15116460D02*
X12248753Y-15125984D01*
X12248753Y-15125984D02*
X12239229Y-15116460D01*
X12239229Y-15116460D02*
X12248753Y-15106936D01*
X12248753Y-15106936D02*
X12248753Y-15125984D01*
X12334467Y-14945031D02*
X12343991Y-14935508D01*
X12343991Y-14935508D02*
X12363039Y-14925984D01*
X12363039Y-14925984D02*
X12410658Y-14925984D01*
X12410658Y-14925984D02*
X12429705Y-14935508D01*
X12429705Y-14935508D02*
X12439229Y-14945031D01*
X12439229Y-14945031D02*
X12448753Y-14964079D01*
X12448753Y-14964079D02*
X12448753Y-14983127D01*
X12448753Y-14983127D02*
X12439229Y-15011698D01*
X12439229Y-15011698D02*
X12324943Y-15125984D01*
X12324943Y-15125984D02*
X12448753Y-15125984D01*
X12572562Y-14925984D02*
X12591610Y-14925984D01*
X12591610Y-14925984D02*
X12610658Y-14935508D01*
X12610658Y-14935508D02*
X12620182Y-14945031D01*
X12620182Y-14945031D02*
X12629705Y-14964079D01*
X12629705Y-14964079D02*
X12639229Y-15002174D01*
X12639229Y-15002174D02*
X12639229Y-15049793D01*
X12639229Y-15049793D02*
X12629705Y-15087888D01*
X12629705Y-15087888D02*
X12620182Y-15106936D01*
X12620182Y-15106936D02*
X12610658Y-15116460D01*
X12610658Y-15116460D02*
X12591610Y-15125984D01*
X12591610Y-15125984D02*
X12572562Y-15125984D01*
X12572562Y-15125984D02*
X12553515Y-15116460D01*
X12553515Y-15116460D02*
X12543991Y-15106936D01*
X12543991Y-15106936D02*
X12534467Y-15087888D01*
X12534467Y-15087888D02*
X12524943Y-15049793D01*
X12524943Y-15049793D02*
X12524943Y-15002174D01*
X12524943Y-15002174D02*
X12534467Y-14964079D01*
X12534467Y-14964079D02*
X12543991Y-14945031D01*
X12543991Y-14945031D02*
X12553515Y-14935508D01*
X12553515Y-14935508D02*
X12572562Y-14925984D01*
X12763039Y-14925984D02*
X12782086Y-14925984D01*
X12782086Y-14925984D02*
X12801134Y-14935508D01*
X12801134Y-14935508D02*
X12810658Y-14945031D01*
X12810658Y-14945031D02*
X12820182Y-14964079D01*
X12820182Y-14964079D02*
X12829705Y-15002174D01*
X12829705Y-15002174D02*
X12829705Y-15049793D01*
X12829705Y-15049793D02*
X12820182Y-15087888D01*
X12820182Y-15087888D02*
X12810658Y-15106936D01*
X12810658Y-15106936D02*
X12801134Y-15116460D01*
X12801134Y-15116460D02*
X12782086Y-15125984D01*
X12782086Y-15125984D02*
X12763039Y-15125984D01*
X12763039Y-15125984D02*
X12743991Y-15116460D01*
X12743991Y-15116460D02*
X12734467Y-15106936D01*
X12734467Y-15106936D02*
X12724943Y-15087888D01*
X12724943Y-15087888D02*
X12715420Y-15049793D01*
X12715420Y-15049793D02*
X12715420Y-15002174D01*
X12715420Y-15002174D02*
X12724943Y-14964079D01*
X12724943Y-14964079D02*
X12734467Y-14945031D01*
X12734467Y-14945031D02*
X12743991Y-14935508D01*
X12743991Y-14935508D02*
X12763039Y-14925984D01*
X12915420Y-15125984D02*
X12915420Y-14992650D01*
X12915420Y-15011698D02*
X12924943Y-15002174D01*
X12924943Y-15002174D02*
X12943991Y-14992650D01*
X12943991Y-14992650D02*
X12972563Y-14992650D01*
X12972563Y-14992650D02*
X12991610Y-15002174D01*
X12991610Y-15002174D02*
X13001134Y-15021222D01*
X13001134Y-15021222D02*
X13001134Y-15125984D01*
X13001134Y-15021222D02*
X13010658Y-15002174D01*
X13010658Y-15002174D02*
X13029705Y-14992650D01*
X13029705Y-14992650D02*
X13058277Y-14992650D01*
X13058277Y-14992650D02*
X13077324Y-15002174D01*
X13077324Y-15002174D02*
X13086848Y-15021222D01*
X13086848Y-15021222D02*
X13086848Y-15125984D01*
X13182086Y-15125984D02*
X13182086Y-14992650D01*
X13182086Y-15011698D02*
X13191610Y-15002174D01*
X13191610Y-15002174D02*
X13210658Y-14992650D01*
X13210658Y-14992650D02*
X13239229Y-14992650D01*
X13239229Y-14992650D02*
X13258277Y-15002174D01*
X13258277Y-15002174D02*
X13267801Y-15021222D01*
X13267801Y-15021222D02*
X13267801Y-15125984D01*
X13267801Y-15021222D02*
X13277324Y-15002174D01*
X13277324Y-15002174D02*
X13296372Y-14992650D01*
X13296372Y-14992650D02*
X13324943Y-14992650D01*
X13324943Y-14992650D02*
X13343991Y-15002174D01*
X13343991Y-15002174D02*
X13353515Y-15021222D01*
X13353515Y-15021222D02*
X13353515Y-15125984D01*
X13743991Y-14916460D02*
X13572563Y-15173603D01*
X14001134Y-14925984D02*
X14020182Y-14925984D01*
X14020182Y-14925984D02*
X14039229Y-14935508D01*
X14039229Y-14935508D02*
X14048753Y-14945031D01*
X14048753Y-14945031D02*
X14058277Y-14964079D01*
X14058277Y-14964079D02*
X14067801Y-15002174D01*
X14067801Y-15002174D02*
X14067801Y-15049793D01*
X14067801Y-15049793D02*
X14058277Y-15087888D01*
X14058277Y-15087888D02*
X14048753Y-15106936D01*
X14048753Y-15106936D02*
X14039229Y-15116460D01*
X14039229Y-15116460D02*
X14020182Y-15125984D01*
X14020182Y-15125984D02*
X14001134Y-15125984D01*
X14001134Y-15125984D02*
X13982086Y-15116460D01*
X13982086Y-15116460D02*
X13972563Y-15106936D01*
X13972563Y-15106936D02*
X13963039Y-15087888D01*
X13963039Y-15087888D02*
X13953515Y-15049793D01*
X13953515Y-15049793D02*
X13953515Y-15002174D01*
X13953515Y-15002174D02*
X13963039Y-14964079D01*
X13963039Y-14964079D02*
X13972563Y-14945031D01*
X13972563Y-14945031D02*
X13982086Y-14935508D01*
X13982086Y-14935508D02*
X14001134Y-14925984D01*
X14153515Y-15106936D02*
X14163039Y-15116460D01*
X14163039Y-15116460D02*
X14153515Y-15125984D01*
X14153515Y-15125984D02*
X14143991Y-15116460D01*
X14143991Y-15116460D02*
X14153515Y-15106936D01*
X14153515Y-15106936D02*
X14153515Y-15125984D01*
X14286848Y-14925984D02*
X14305896Y-14925984D01*
X14305896Y-14925984D02*
X14324944Y-14935508D01*
X14324944Y-14935508D02*
X14334467Y-14945031D01*
X14334467Y-14945031D02*
X14343991Y-14964079D01*
X14343991Y-14964079D02*
X14353515Y-15002174D01*
X14353515Y-15002174D02*
X14353515Y-15049793D01*
X14353515Y-15049793D02*
X14343991Y-15087888D01*
X14343991Y-15087888D02*
X14334467Y-15106936D01*
X14334467Y-15106936D02*
X14324944Y-15116460D01*
X14324944Y-15116460D02*
X14305896Y-15125984D01*
X14305896Y-15125984D02*
X14286848Y-15125984D01*
X14286848Y-15125984D02*
X14267801Y-15116460D01*
X14267801Y-15116460D02*
X14258277Y-15106936D01*
X14258277Y-15106936D02*
X14248753Y-15087888D01*
X14248753Y-15087888D02*
X14239229Y-15049793D01*
X14239229Y-15049793D02*
X14239229Y-15002174D01*
X14239229Y-15002174D02*
X14248753Y-14964079D01*
X14248753Y-14964079D02*
X14258277Y-14945031D01*
X14258277Y-14945031D02*
X14267801Y-14935508D01*
X14267801Y-14935508D02*
X14286848Y-14925984D01*
X14467801Y-15011698D02*
X14448753Y-15002174D01*
X14448753Y-15002174D02*
X14439229Y-14992650D01*
X14439229Y-14992650D02*
X14429706Y-14973603D01*
X14429706Y-14973603D02*
X14429706Y-14964079D01*
X14429706Y-14964079D02*
X14439229Y-14945031D01*
X14439229Y-14945031D02*
X14448753Y-14935508D01*
X14448753Y-14935508D02*
X14467801Y-14925984D01*
X14467801Y-14925984D02*
X14505896Y-14925984D01*
X14505896Y-14925984D02*
X14524944Y-14935508D01*
X14524944Y-14935508D02*
X14534467Y-14945031D01*
X14534467Y-14945031D02*
X14543991Y-14964079D01*
X14543991Y-14964079D02*
X14543991Y-14973603D01*
X14543991Y-14973603D02*
X14534467Y-14992650D01*
X14534467Y-14992650D02*
X14524944Y-15002174D01*
X14524944Y-15002174D02*
X14505896Y-15011698D01*
X14505896Y-15011698D02*
X14467801Y-15011698D01*
X14467801Y-15011698D02*
X14448753Y-15021222D01*
X14448753Y-15021222D02*
X14439229Y-15030746D01*
X14439229Y-15030746D02*
X14429706Y-15049793D01*
X14429706Y-15049793D02*
X14429706Y-15087888D01*
X14429706Y-15087888D02*
X14439229Y-15106936D01*
X14439229Y-15106936D02*
X14448753Y-15116460D01*
X14448753Y-15116460D02*
X14467801Y-15125984D01*
X14467801Y-15125984D02*
X14505896Y-15125984D01*
X14505896Y-15125984D02*
X14524944Y-15116460D01*
X14524944Y-15116460D02*
X14534467Y-15106936D01*
X14534467Y-15106936D02*
X14543991Y-15087888D01*
X14543991Y-15087888D02*
X14543991Y-15049793D01*
X14543991Y-15049793D02*
X14534467Y-15030746D01*
X14534467Y-15030746D02*
X14524944Y-15021222D01*
X14524944Y-15021222D02*
X14505896Y-15011698D01*
X14715420Y-14925984D02*
X14677325Y-14925984D01*
X14677325Y-14925984D02*
X14658277Y-14935508D01*
X14658277Y-14935508D02*
X14648753Y-14945031D01*
X14648753Y-14945031D02*
X14629706Y-14973603D01*
X14629706Y-14973603D02*
X14620182Y-15011698D01*
X14620182Y-15011698D02*
X14620182Y-15087888D01*
X14620182Y-15087888D02*
X14629706Y-15106936D01*
X14629706Y-15106936D02*
X14639229Y-15116460D01*
X14639229Y-15116460D02*
X14658277Y-15125984D01*
X14658277Y-15125984D02*
X14696372Y-15125984D01*
X14696372Y-15125984D02*
X14715420Y-15116460D01*
X14715420Y-15116460D02*
X14724944Y-15106936D01*
X14724944Y-15106936D02*
X14734467Y-15087888D01*
X14734467Y-15087888D02*
X14734467Y-15040269D01*
X14734467Y-15040269D02*
X14724944Y-15021222D01*
X14724944Y-15021222D02*
X14715420Y-15011698D01*
X14715420Y-15011698D02*
X14696372Y-15002174D01*
X14696372Y-15002174D02*
X14658277Y-15002174D01*
X14658277Y-15002174D02*
X14639229Y-15011698D01*
X14639229Y-15011698D02*
X14629706Y-15021222D01*
X14629706Y-15021222D02*
X14620182Y-15040269D01*
X14905896Y-14925984D02*
X14867801Y-14925984D01*
X14867801Y-14925984D02*
X14848753Y-14935508D01*
X14848753Y-14935508D02*
X14839229Y-14945031D01*
X14839229Y-14945031D02*
X14820182Y-14973603D01*
X14820182Y-14973603D02*
X14810658Y-15011698D01*
X14810658Y-15011698D02*
X14810658Y-15087888D01*
X14810658Y-15087888D02*
X14820182Y-15106936D01*
X14820182Y-15106936D02*
X14829706Y-15116460D01*
X14829706Y-15116460D02*
X14848753Y-15125984D01*
X14848753Y-15125984D02*
X14886848Y-15125984D01*
X14886848Y-15125984D02*
X14905896Y-15116460D01*
X14905896Y-15116460D02*
X14915420Y-15106936D01*
X14915420Y-15106936D02*
X14924944Y-15087888D01*
X14924944Y-15087888D02*
X14924944Y-15040269D01*
X14924944Y-15040269D02*
X14915420Y-15021222D01*
X14915420Y-15021222D02*
X14905896Y-15011698D01*
X14905896Y-15011698D02*
X14886848Y-15002174D01*
X14886848Y-15002174D02*
X14848753Y-15002174D01*
X14848753Y-15002174D02*
X14829706Y-15011698D01*
X14829706Y-15011698D02*
X14820182Y-15021222D01*
X14820182Y-15021222D02*
X14810658Y-15040269D01*
X15001134Y-14925984D02*
X15001134Y-14964079D01*
X15077325Y-14925984D02*
X15077325Y-14964079D01*
X15372563Y-15202174D02*
X15363039Y-15192650D01*
X15363039Y-15192650D02*
X15343991Y-15164079D01*
X15343991Y-15164079D02*
X15334468Y-15145031D01*
X15334468Y-15145031D02*
X15324944Y-15116460D01*
X15324944Y-15116460D02*
X15315420Y-15068841D01*
X15315420Y-15068841D02*
X15315420Y-15030746D01*
X15315420Y-15030746D02*
X15324944Y-14983127D01*
X15324944Y-14983127D02*
X15334468Y-14954555D01*
X15334468Y-14954555D02*
X15343991Y-14935508D01*
X15343991Y-14935508D02*
X15363039Y-14906936D01*
X15363039Y-14906936D02*
X15372563Y-14897412D01*
X15534468Y-14992650D02*
X15534468Y-15125984D01*
X15486848Y-14916460D02*
X15439229Y-15059317D01*
X15439229Y-15059317D02*
X15563039Y-15059317D01*
X15791610Y-15125984D02*
X15791610Y-14925984D01*
X15877325Y-15125984D02*
X15877325Y-15021222D01*
X15877325Y-15021222D02*
X15867801Y-15002174D01*
X15867801Y-15002174D02*
X15848753Y-14992650D01*
X15848753Y-14992650D02*
X15820182Y-14992650D01*
X15820182Y-14992650D02*
X15801134Y-15002174D01*
X15801134Y-15002174D02*
X15791610Y-15011698D01*
X16001134Y-15125984D02*
X15982087Y-15116460D01*
X15982087Y-15116460D02*
X15972563Y-15106936D01*
X15972563Y-15106936D02*
X15963039Y-15087888D01*
X15963039Y-15087888D02*
X15963039Y-15030746D01*
X15963039Y-15030746D02*
X15972563Y-15011698D01*
X15972563Y-15011698D02*
X15982087Y-15002174D01*
X15982087Y-15002174D02*
X16001134Y-14992650D01*
X16001134Y-14992650D02*
X16029706Y-14992650D01*
X16029706Y-14992650D02*
X16048753Y-15002174D01*
X16048753Y-15002174D02*
X16058277Y-15011698D01*
X16058277Y-15011698D02*
X16067801Y-15030746D01*
X16067801Y-15030746D02*
X16067801Y-15087888D01*
X16067801Y-15087888D02*
X16058277Y-15106936D01*
X16058277Y-15106936D02*
X16048753Y-15116460D01*
X16048753Y-15116460D02*
X16029706Y-15125984D01*
X16029706Y-15125984D02*
X16001134Y-15125984D01*
X16182087Y-15125984D02*
X16163039Y-15116460D01*
X16163039Y-15116460D02*
X16153515Y-15097412D01*
X16153515Y-15097412D02*
X16153515Y-14925984D01*
X16334468Y-15116460D02*
X16315420Y-15125984D01*
X16315420Y-15125984D02*
X16277325Y-15125984D01*
X16277325Y-15125984D02*
X16258277Y-15116460D01*
X16258277Y-15116460D02*
X16248753Y-15097412D01*
X16248753Y-15097412D02*
X16248753Y-15021222D01*
X16248753Y-15021222D02*
X16258277Y-15002174D01*
X16258277Y-15002174D02*
X16277325Y-14992650D01*
X16277325Y-14992650D02*
X16315420Y-14992650D01*
X16315420Y-14992650D02*
X16334468Y-15002174D01*
X16334468Y-15002174D02*
X16343991Y-15021222D01*
X16343991Y-15021222D02*
X16343991Y-15040269D01*
X16343991Y-15040269D02*
X16248753Y-15059317D01*
X16420182Y-15116460D02*
X16439230Y-15125984D01*
X16439230Y-15125984D02*
X16477325Y-15125984D01*
X16477325Y-15125984D02*
X16496372Y-15116460D01*
X16496372Y-15116460D02*
X16505896Y-15097412D01*
X16505896Y-15097412D02*
X16505896Y-15087888D01*
X16505896Y-15087888D02*
X16496372Y-15068841D01*
X16496372Y-15068841D02*
X16477325Y-15059317D01*
X16477325Y-15059317D02*
X16448753Y-15059317D01*
X16448753Y-15059317D02*
X16429706Y-15049793D01*
X16429706Y-15049793D02*
X16420182Y-15030746D01*
X16420182Y-15030746D02*
X16420182Y-15021222D01*
X16420182Y-15021222D02*
X16429706Y-15002174D01*
X16429706Y-15002174D02*
X16448753Y-14992650D01*
X16448753Y-14992650D02*
X16477325Y-14992650D01*
X16477325Y-14992650D02*
X16496372Y-15002174D01*
X16572563Y-15202174D02*
X16582087Y-15192650D01*
X16582087Y-15192650D02*
X16601134Y-15164079D01*
X16601134Y-15164079D02*
X16610658Y-15145031D01*
X16610658Y-15145031D02*
X16620182Y-15116460D01*
X16620182Y-15116460D02*
X16629706Y-15068841D01*
X16629706Y-15068841D02*
X16629706Y-15030746D01*
X16629706Y-15030746D02*
X16620182Y-14983127D01*
X16620182Y-14983127D02*
X16610658Y-14954555D01*
X16610658Y-14954555D02*
X16601134Y-14935508D01*
X16601134Y-14935508D02*
X16582087Y-14906936D01*
X16582087Y-14906936D02*
X16572563Y-14897412D01*
M02*
